<svg xmlns="http://www.w3.org/2000/svg" viewBox="0 0 195.78 319.88"><defs><style>.cls-1{fill:#f69320;}.cls-2,.cls-4{fill:#231f20;}.cls-3{fill:#fedd10;}.cls-4,.cls-5{stroke:#231f20;stroke-miterlimit:10;stroke-width:0.73px;}.cls-5{fill:#fff;}</style></defs><g id="Layer_2" data-name="Layer 2"><g id="Finish"><path class="cls-1" d="M185.64,175.87s6.47,9,7.15,18.22c.45,6.19,1.25,12.66,1.21,14.57-1.46,71.72-21.69,100.49-88.93,100.49-45.14,0-66.75-64.69-68.79-85.72C35,209.85,25.76,204.09,20,197.92c-6.15-6.6-12-12.5-15.72-24.63C1.76,165,7.75,152.51,4.58,145c-7.8-18.54,3.23-41.59,3.23-41.59s-5.52,24,6.93,37.28c6.15,6.57-1.56,23,4.82,29.57,6.1,6.24,8.64,11.11,14.91,2.67,4.86-6.55-1.68-16.64-10.33-29.46-5-7.46-3.88-16.73-3.88-16.73s0,9.11,4.83,12.63c4.95,3.63,9.15,5.08,5.83-4-1.86-5.09-3.94-5-6-9.87s-1.53-17-3.43-21.28c-5.36-12-12.69-11.49-12.69-11.49s9.46-.3,17,9.16c1.7,2.13,2.64,9.24,4.39,11.36,3.22,3.88,8.15-5.8,7-15.7-1.7-11-2.34-14.66-6.7-19.53C24.75,71.52,21,73.85,16.34,66.86S17.4,37.54,17.4,37.54s.61,21,9.17,25.51C29.76,64.74,37,69.81,40,72c2.33,1.7,2.76,6.8,12.11,18.49,5.36,6.71,5.06,14.63,7.8,14.19,4.25-.69,10.7-7.72,5.36-26.9C61.84,65.6,54.47,65.18,46.54,60.29c-5.37-4.59-11-7.07-15.72-16.36C25.22,32.84,27.29,28,28.1,22.43c1.7-11.68,14-20.56,14-20.56S33.8,13.81,33.8,24.39a23.49,23.49,0,0,0,2.33,10,30.7,30.7,0,0,0,6.74,9.91c1.67,1.56,9,7.7,14.1,5.8s4.78-7,4.18-12.54c-1-6-16-18.59-16-18.59s18.44,6.1,21.43,15.79a50.59,50.59,0,0,1,2.14,13.11c-.19,5.26-.19,11,8.85,20.09,5,5,5.52,3.61,14.65,9.13,6.15,3.72,12.1,24.82,19.24,14.12,5.13-7.7-15.94-21.36-13.18-32.19,2.9-11.39-10.52-23.35-10.52-23.35S104.86,43.72,106,57.32c.64,7.43,6.37,16.87,14.28,15.93A13.48,13.48,0,0,0,132,63.74c.7-2.19,1.3-5.44-.28-14.78-2.26-13.43-18.19-26.67-18.19-26.67a44.43,44.43,0,0,1,27.75,28.09c1.81,5.5,2.8,19.44-.35,22.76C122.67,92.32,126.7,106,127,108.47c.69,5.06,7.63,12.56,7.63,20.29,0,5,1.09,7.82,5.25,8.83,6.09,1.48-.16-13.72,3.69-22.21,4.2-9.24,5.59-6.87,10.8-13.49,4.24-5.4-6.56-23.14-6.56-23.14s11.89,6.94,15,18.14c1.9,6.89-3.16,13.53-7.93,20-4,5.41,7.59,14.06,5.67,23.15-2.69,12.67-9.75,25.29.38,38.17a81.28,81.28,0,0,0,8.79-15.42c5.5-12.7-2.19-33.88-2.19-33.88s11.06,13.35,11.91,35c.2,5.12-3.18,28.84-3.47,33.93-.64,11.13,3.93,10.73,8.09,6.17,1.28-1.39,2.36-5.63,3.21-10.16C188.55,187.15,185.64,175.87,185.64,175.87Z"/><path class="cls-2" d="M184.06,176.8a43.68,43.68,0,0,1,4,7,35.85,35.85,0,0,1,2.48,7.27,70.56,70.56,0,0,1,.91,8.46,100.84,100.84,0,0,1,.65,12.88q-.19,6.63-.67,13.27c-1.05,14.2-3.14,28.65-8.53,41.92-4.18,10.32-10.8,19.66-20,26.09-10.21,7.15-22.51,10.59-34.75,12.23a157.08,157.08,0,0,1-23.94,1.37,44.37,44.37,0,0,1-19.6-5C72.28,295.92,63,284.83,56,273.11a142.48,142.48,0,0,1-15.15-36c-.66-2.44-1.26-4.89-1.76-7.37-.41-2.05-.75-4.08-.94-5.84a32.46,32.46,0,0,0-3.63-12.36,41.13,41.13,0,0,0-7.25-9.11C21.71,197,15.86,191.61,11.6,185a40,40,0,0,1-5.88-13.51c-.84-4.42.28-9.14.93-13.51.61-4.16,1.34-8.75-.05-12.83a58.5,58.5,0,0,1-2.16-6.81,39,39,0,0,1-.81-7.14A63.16,63.16,0,0,1,8,107.8a37,37,0,0,1,1.44-3.52L6,102.87a57.33,57.33,0,0,0-.91,19.19A38.18,38.18,0,0,0,9.78,137a28.85,28.85,0,0,0,2.33,3.37,20.29,20.29,0,0,1,2.19,2.78,13.73,13.73,0,0,1,1.17,6.37c0,5.05-.9,10.11-.2,15.14a12.28,12.28,0,0,0,2.4,6.14,49.09,49.09,0,0,0,5.82,6.07c1.62,1.41,3.52,2.58,5.75,2.27,2.79-.39,4.85-2.76,6.45-4.88,3.08-4,2.55-9,.77-13.48a60.78,60.78,0,0,0-5.07-9.65c-2.17-3.49-4.78-6.78-6.73-10.39a24.51,24.51,0,0,1-2.57-14.06H18.43c0,4.89,1.42,10.86,5.46,14,1.88,1.46,4.47,3.39,7,3.27,3.09-.14,3.27-3.46,2.81-5.79A21.72,21.72,0,0,0,31.44,132a34.8,34.8,0,0,0-3-4.07c-2.1-2.82-2.68-6.06-3.05-9.47-.4-3.64-.58-7.3-1.13-10.92A21.86,21.86,0,0,0,20.19,98c-2.45-3.42-6.71-7.49-11.34-7.2-2.33.14-2.37,3.72,0,3.66A16.14,16.14,0,0,1,15.48,96a22.19,22.19,0,0,1,6.44,4.25,12.44,12.44,0,0,1,3.77,5.84c.94,3.08,1.81,9.86,6.21,9.79s6.29-7,6.86-10.38c1-5.92-.1-12-1.41-17.8a23.73,23.73,0,0,0-4.91-10.3,21.77,21.77,0,0,0-6.22-5.2,40,40,0,0,1-5.3-2.9c-3.41-2.63-4.42-6.11-4.55-10.21a76.93,76.93,0,0,1,2.8-21l-3.6-.49a63.53,63.53,0,0,0,2,13.92,28.2,28.2,0,0,0,3.94,9.29c2,2.83,4.8,4.16,7.64,6A106.73,106.73,0,0,1,39,73.55c-.54-.44.6.72.22.23a8.71,8.71,0,0,1,.65,1c.55.95,1,1.94,1.54,2.91a79.55,79.55,0,0,0,6.31,10.12,64.48,64.48,0,0,1,4.91,6.83,40,40,0,0,1,2.65,6.42c.89,2.62,2,6.14,5.5,5.24a9.37,9.37,0,0,0,5-3.59c4.61-6.11,3.6-15.14,2-22.1-1-4.68-2.56-9.36-5.86-13-2.51-2.74-5.82-4.44-9.11-6.06a43.73,43.73,0,0,1-5.06-2.69c-1.68-1.12-3.24-2.51-4.85-3.73a34.71,34.71,0,0,1-9.22-9.76c-2.47-4.12-4.59-9-4.82-13.82a41.62,41.62,0,0,1,1-8.89C31.12,15.24,36.35,8.94,42,4.23c.19-.16,1-.94.65-.54A3.81,3.81,0,0,1,43,3.45L40.5,1a49.49,49.49,0,0,0-8,18.44c-1.75,9.35,2.08,19.49,8.92,26,4.68,4.46,13.76,10.32,19.5,4.29,3-3.1,2.56-7.79,2.13-11.72-.33-3-2.18-5.49-4-7.8A92,92,0,0,0,46.43,17.65l-1.78,3.06A54.59,54.59,0,0,1,55.73,25.9,26.16,26.16,0,0,1,63.07,32c2.18,2.86,2.74,6.67,3.3,10.12a83.46,83.46,0,0,1,.5,9.21,21.73,21.73,0,0,0,2.31,8.61,38.15,38.15,0,0,0,8.15,10.33,24.12,24.12,0,0,0,6.11,4.14c1.43.7,2.86,1.41,4.26,2.17a22.79,22.79,0,0,1,4.4,2.7,31,31,0,0,1,4.69,6.45,53.75,53.75,0,0,0,5,7.21c1.48,1.65,3.47,3.21,5.81,3.06,2.57-.16,4.78-2.44,5.82-4.65,1.11-2.39.57-5-.45-7.29-2.5-5.66-7.15-10.15-10.36-15.39-1.38-2.25-2.76-4.82-2.79-7.52,0-1.58.54-3.1.64-4.68A18,18,0,0,0,99.88,51C98.31,45,94.32,39.55,90,35.21c-.3-.29-.59-.58-.9-.86l-2.22,2.88a37.73,37.73,0,0,1,13,10.17,21.73,21.73,0,0,1,3.21,5.35,30.48,30.48,0,0,1,1.39,6.54,21.85,21.85,0,0,0,6.69,12.55,12.52,12.52,0,0,0,12.59,2.52,15.42,15.42,0,0,0,10-10.14,23.06,23.06,0,0,0,.61-9.21c-.5-5.48-1.54-10.62-4.14-15.51A64.1,64.1,0,0,0,114.79,21L113,24.05a22.6,22.6,0,0,1,2.68,1l.37.16.69.32c.55.26,1.1.52,1.64.8,1.25.65,2.47,1.36,3.65,2.11a42.61,42.61,0,0,1,15.43,17.38,35.24,35.24,0,0,1,3.31,11.67c.42,3.91.71,8.19-.23,12.06-.46,1.89-1.27,2.61-2.57,4.06a71.8,71.8,0,0,0-5.45,6.85,47.68,47.68,0,0,0-6.19,12,31.37,31.37,0,0,0-1.28,15.22c1.3,7.67,7.62,13.51,7.78,21.51.09,4.21,1.21,8.23,5.51,9.8,3.24,1.19,5.69-.26,6.12-3.67.44-3.58-.29-7.29-.37-10.88a24.39,24.39,0,0,1,.45-6.09,21.79,21.79,0,0,1,2.8-6.27c1.61-2.64,4.09-4.25,6.2-6.44a12.9,12.9,0,0,0,3.25-4.47,9.88,9.88,0,0,0,.34-4.22c-.68-6.34-3.9-12.49-7-18l-.7-1.19-2.5,2.5a36.15,36.15,0,0,1,9.52,8.38c2.25,2.77,4.38,6.3,4.88,9.9.65,4.63-2.14,9.06-4.64,12.72-2,2.92-4.89,5.51-4.34,9.33.42,3,2.18,5.74,3.59,8.37,1.53,2.86,3.15,6,3,9.33a27.86,27.86,0,0,1-1.31,6c-.56,2.06-1.16,4.11-1.72,6.17-1.25,4.64-2.32,9.47-2,14.3a25.81,25.81,0,0,0,5.49,14.36,1.87,1.87,0,0,0,3.16,0,66,66,0,0,0,4.32-6.62c2.47-4.23,5-8.8,6-13.65,1.64-8.12.26-16.76-1.81-24.67-.51-1.94-1.06-3.88-1.74-5.77l-3.06,1.78c.05.06.17.16.18.23-.08-.36-.19-.27,0,0l.35.48c.71,1,1.36,2,2,3a58.81,58.81,0,0,1,5.13,10.85,64,64,0,0,1,3.63,17.51,59.37,59.37,0,0,1-.48,9.88c-.84,8.17-2.08,16.3-2.81,24.47-.31,3.46-.7,8.73,2.3,11.23s6.69-.18,8.72-2.45,2.64-5.64,3.26-8.48a33.7,33.7,0,0,0,.83-9.28,65.77,65.77,0,0,0-2-12.32c-.59-2.28-4.12-1.32-3.53,1a61.82,61.82,0,0,1,1.68,9.44,30.37,30.37,0,0,1,.06,7.13,32.92,32.92,0,0,1-2.23,8.79,7,7,0,0,1-3.17,3.2,2.07,2.07,0,0,1-1.2.3c.21,0,0,0-.08-.07.11.12-.25-.26-.31-.35-1.12-1.7-.9-4.43-.82-6.35,0-1.24.18-2.48.32-3.72.86-8,2-16,2.77-24.1a52.61,52.61,0,0,0,.2-9.88,68.06,68.06,0,0,0-3.5-16.51c-2-5.82-4.78-11.81-8.74-16.61-1.15-1.39-3.66.1-3.06,1.78a73.63,73.63,0,0,1,3.56,14.68,44,44,0,0,1,.23,12.44c-.68,4.67-2.91,8.89-5.2,13a67.3,67.3,0,0,1-5,7.82h3.16a22.6,22.6,0,0,1-5-13,43.07,43.07,0,0,1,1.93-12.84c1.11-4.1,2.74-8.3,3.13-12.55.32-3.45-1-6.82-2.5-9.85-1.36-2.74-3.35-5.43-4-8.45a3.25,3.25,0,0,1,.45-2.78c1.43-2.14,3.06-4.14,4.45-6.31,2.43-3.82,4.56-8.28,4.06-12.92a23,23,0,0,0-4.46-10.53,39.51,39.51,0,0,0-11.76-10.91,1.85,1.85,0,0,0-2.51,2.51,61.7,61.7,0,0,1,6.28,13.39c.7,2.2,1.72,5.61.51,7.56-1.69,2.71-4.56,4.37-6.68,6.68a23.26,23.26,0,0,0-5.51,10.81c-.74,4-.37,8.07-.1,12.1a23.87,23.87,0,0,1,.08,4.78,7.67,7.67,0,0,1-.25.92c-.1.27-.08.11,0,0,.29-.38.07.08,0,0s.21,0,0,0a4.62,4.62,0,0,1-3.45-2.47c-.85-2-.51-4.17-.74-6.23-.84-7.55-6.61-13.19-7.83-20.55,0-.17,0-.33-.08-.5-.06-.38,0-.25,0-.22-.05-.43-.1-.87-.13-1.31a25.64,25.64,0,0,1,0-3.28,30.1,30.1,0,0,1,2-9A47.11,47.11,0,0,1,137,80.47c2.61-3.46,6.3-6.14,7.19-10.56a40.9,40.9,0,0,0,.27-12,39.53,39.53,0,0,0-2.75-11.44,46.18,46.18,0,0,0-27.07-25.68l-.67-.22c-1.67-.47-3.23,1.86-1.78,3.06a66.4,66.4,0,0,1,12.42,13.77,32.41,32.41,0,0,1,5.44,13c.59,3.63,1.23,8,.53,11.43A12,12,0,0,1,124,70.37c-3.82,1.74-7.76,1.34-10.82-1.64a19.33,19.33,0,0,1-5.34-11.79,23,23,0,0,0-4.94-11.57,40.32,40.32,0,0,0-14.2-11.3c-1.76-.83-3.87,1.39-2.22,2.87A37.17,37.17,0,0,1,94.72,47.7c1.54,3,2.59,6.61,2,10a14,14,0,0,0,.45,8.06c2.19,5.81,6.56,10.45,10,15.5,1.34,2,3,4.22,3.25,6.64a3.43,3.43,0,0,1-.37,2,5.43,5.43,0,0,1-2.21,2.29,1.67,1.67,0,0,1-1.47-.21,8.59,8.59,0,0,1-2.21-2,57.34,57.34,0,0,1-4.62-6.84,34,34,0,0,0-4.67-6.35c-2.33-2.27-5.66-3.69-8.55-5.11a24.63,24.63,0,0,1-5.79-3.52A36,36,0,0,1,72.6,58.6a17.77,17.77,0,0,1-2.09-7.67,79.12,79.12,0,0,0-.5-9.09c-.54-3.56-1.14-7.52-3.07-10.63a24,24,0,0,0-6.61-6.65A56.82,56.82,0,0,0,46.52,17.5l-.89-.32c-1.69-.56-3.18,1.88-1.78,3.06a113.68,113.68,0,0,1,9.3,8.8,36.23,36.23,0,0,1,5.37,6.79c1.35,2.4,1.49,6,1,8.65C58,52.71,48,46.42,44.55,43.34c-5.92-5.27-9.88-14.11-8.7-22.07,1-6.54,4.07-13.06,7.81-18.47,1-1.47-1-3.58-2.5-2.51A42.64,42.64,0,0,0,29.88,12.57,32,32,0,0,0,26,23.84a31.41,31.41,0,0,0-.62,9.47c1.17,9.41,6.75,18.08,14.13,23.82a60.5,60.5,0,0,0,9.72,6.75c3.14,1.59,6.53,3,9.15,5.38,3.44,3.18,4.83,7.62,5.84,12.06a35.36,35.36,0,0,1,.93,13.15,13,13,0,0,1-2.84,6.72,5.12,5.12,0,0,1-1.91,1.4c-.29.15.22-.06-.18.07a3,3,0,0,0-.53.16c-.25.17-.11-.06.16.05s.15.14.1,0c-.51-1.47-1.17-2.93-1.7-4.41a34.69,34.69,0,0,0-3-6.54c-1.45-2.39-3.36-4.5-5-6.77-1.27-1.78-2.48-3.6-3.6-5.48-1.32-2.22-2.39-4.58-3.7-6.8s-3.23-3.27-5.19-4.66a115.16,115.16,0,0,0-10-6.55,12.4,12.4,0,0,1-5.19-6.44c-2.18-5.16-3-11-3.36-16.55,0-.38-.05-.75-.06-1.13-.06-2-3.07-2.54-3.59-.48A96,96,0,0,0,12.8,54.64c-.23,3.68-.31,7.75,1,11.24,1.65,4.3,5.35,6.88,9.3,8.83a19.6,19.6,0,0,1,9,8.72c2,4,2.43,8.8,3.11,13.14A24.81,24.81,0,0,1,35,105.7c-.44,2-1.09,4.62-2.64,6.1a2.24,2.24,0,0,1-.57.43c.11,0-.09-.15.08,0a4,4,0,0,1-.95-1.58c-.85-2.14-1.31-4.43-2.05-6.6C27.12,98.89,22.18,95,17.33,92.83a20.31,20.31,0,0,0-8.48-2v3.66c.21,0,.41,0,.62,0s-.14,0-.16,0l.38.07a10.83,10.83,0,0,1,1.12.29,12.07,12.07,0,0,1,4.75,3.26,19.73,19.73,0,0,1,4.76,8.18,56.14,56.14,0,0,1,1.1,8.68,62.91,62.91,0,0,0,1.17,9,20.25,20.25,0,0,0,4.34,7.92,15.06,15.06,0,0,1,2.41,4.46,22,22,0,0,1,.68,2.27,15.37,15.37,0,0,0,.24,2c0,.07-.05,0,.26-.22s.2,0-.07-.09a12.88,12.88,0,0,1-2.73-1.36,10.77,10.77,0,0,1-4.88-6.9,21.82,21.82,0,0,1-.75-5.32c0-2.42-3.39-2.28-3.66,0a28.23,28.23,0,0,0,1,10.58c1.78,6.52,6.52,11.78,9.93,17.5,2.35,3.95,5.58,9.12,4.93,14-.31,2.27-1.91,4.23-3.57,5.71-1.44,1.27-2.61,1.39-4.14.24A48.5,48.5,0,0,1,21,169.09,8.78,8.78,0,0,1,18.84,164c-.62-4.67.29-9.45.29-14.14a20.71,20.71,0,0,0-.83-6.6c-.74-2.25-2.18-3.68-3.6-5.51A30.75,30.75,0,0,1,9.11,124.2a52.54,52.54,0,0,1,.46-20.35c.44-1.92-2.41-3.37-3.34-1.41a66.53,66.53,0,0,0-4.77,14.47c-2.07,9.5-2.21,19.37,1.35,28.53,1.6,4.1.75,8.7.1,12.91-.7,4.58-1.59,9.3-.75,13.92.88,4.87,3.33,9.86,5.93,14a69.57,69.57,0,0,0,8.16,10.27c5.16,5.58,11.67,10.4,15.31,17.2,3,5.55,2.94,11.93,4.22,18a144.78,144.78,0,0,0,12.8,35.5c6.54,12.81,15.16,25.05,26.85,33.64a51.81,51.81,0,0,0,18.89,8.88c7.76,1.78,15.89,1.33,23.77.82,13.72-.89,27.72-3.3,40-9.71a58.87,58.87,0,0,0,24.36-23.95c6.69-12.13,9.7-26,11.43-39.58,1.09-8.63,1.62-17.32,1.86-26a119.47,119.47,0,0,0-.87-13.76,54,54,0,0,0-1.09-8.42,42.21,42.21,0,0,0-2.62-7.18,43.68,43.68,0,0,0-4-7C185.86,173.05,182.68,174.87,184.06,176.8Z"/><path class="cls-3" d="M182.73,252.35c.05,1-.62,3.14-.61,4.11,0,1.63,0,3.26-.08,4.87-.14,2.86-1.12,4.74-1.87,6.77-.49,1.33.92,3.71.94,5.5.06,4.32-9.29,26.59-22.47,34.89-2.33,1.46-26.63,9-28.31,9-.76,0-6.62.61-7.07.61C86.59,318.06,58,292.37,58,257.21,58,225,64.44,220.64,71.78,193c6-22.68-13.23-13.37-4.58-37.16,2-4.36,6.88-7.76,11.14-10.61,4.72-4.6-3.4-6.29,3.3-13.26-3.13,9.14,6.68,8,3.11,15.3-4.87,7.69-9.06,8.36-8.16,15.48,1.88,10.63,15.21,5.29,17.9,15.51,8,30.3,24.44,13.21,19.23-14.55-1.89-10.12-12.65-18.47-19.82-30.43a31.74,31.74,0,0,1-3-16.72,41.58,41.58,0,0,1,2.16-10,11.52,11.52,0,0,0-3.64-13s9.14,5,8.71,12.66a50.68,50.68,0,0,0,.45,10.71c1,6.44,3.6,12.76,9.2,17,7.92,3.93,10.31-4.21,8.78-12.2-1.23-6.38-5.82-12.65-5.82-12.65s16.42,8.21,13.23,33.17c-6.61,28.5,21.34,40.2,40.81,70.44,3.46,5.36,6.15,9.3,8.3,12.71.71,1.12,4.72,3.55,5.32,4.58C182.22,236.57,179.64,248.13,182.73,252.35Z"/><path class="cls-2" d="M180.9,252.35c0,1.46-.58,2.88-.6,4.36a30.92,30.92,0,0,1-.37,6.59c-.4,1.63-1.35,3.16-1.62,4.8s.62,3.32.91,5a4.6,4.6,0,0,1,0,1c0,.32.07-.39,0,0,0,.17-.07.35-.1.52a21.32,21.32,0,0,1-.64,2.34,52.24,52.24,0,0,1-2.49,6.28,72.85,72.85,0,0,1-9.41,15.42,43,43,0,0,1-6.56,6.65,17.45,17.45,0,0,1-2.62,1.81c-.12.06-.69.32-.45.22s-.6.24-.79.31c-4.21,1.63-8.54,3-12.84,4.32-4,1.26-8,2.56-12.13,3.53l-.74.17-.29,0c-.23.06.52,0,.2,0a13.45,13.45,0,0,0-2.28.16,59.43,59.43,0,0,1-6.67.43,71.59,71.59,0,0,1-19.54-3.16A61.51,61.51,0,0,1,72,292.89a57,57,0,0,1-12.13-34,114.4,114.4,0,0,1,5-38.14c1.74-5.44,3.71-10.8,5.44-16.24,1.12-3.54,2.17-7.1,3.12-10.69a32.91,32.91,0,0,0,1.36-9,15.8,15.8,0,0,0-4-10.14c-.47-.56-.95-1.1-1.41-1.65l-.46-.57c-.23-.3-.45-.6-.65-.92a8.78,8.78,0,0,1-1.47-4,26.45,26.45,0,0,1,2.55-12,17.64,17.64,0,0,1,3.55-4.11A43,43,0,0,1,77.48,148,10.38,10.38,0,0,0,81,144.72c1.12-2,.58-3.84,0-5.85a4.16,4.16,0,0,1-.27-2,7.56,7.56,0,0,1,2.22-3.62l-3.06-1.78c-.93,2.84-1,5.85.75,8.38a30.8,30.8,0,0,0,2.09,2.48,4.09,4.09,0,0,1,.63.84c0,.07.31.63.18.3,0,.13.21.82.17.5.18,1.37-.69,2.69-1.57,3.94-1.16,1.64-2.49,3.14-3.8,4.66-2.3,2.68-3.86,5.42-3.66,9.06a10.52,10.52,0,0,0,4.26,8.2c2.2,1.58,4.9,2.24,7.42,3.11,2.32.79,4.57,1.85,5.76,4.12.92,1.74,1.21,3.87,1.84,5.74a42.63,42.63,0,0,0,2.25,5.48c2,4,5.94,9.14,11.1,7.55,4.88-1.5,7.15-7.42,8.2-11.91A44.61,44.61,0,0,0,116.54,173a42.6,42.6,0,0,0-1.69-12.31c-2.61-7.87-8.88-14.06-13.87-20.47-2.94-3.79-5.82-7.64-7.17-12.31a31.68,31.68,0,0,1-.66-14.36c.77-4.4,3-8.58,2.31-13.12a13.35,13.35,0,0,0-3.78-7.35A10,10,0,0,0,90.37,92l-1.85,3.16a16.67,16.67,0,0,1,7.07,7.2c1.32,2.9.56,6.29.69,9.37a41.05,41.05,0,0,0,1.87,11.21,27.37,27.37,0,0,0,4.83,8.91c2.15,2.59,4.82,4.79,8.34,4.92,6,.23,7.7-6.65,7.52-11.42-.24-6.16-2.88-12.24-6.49-17.19l-2.5,2.5a10.57,10.57,0,0,1,1,.61c.4.25.78.53,1.16.81s-.19-.16.07,0l.3.24.82.7a26.24,26.24,0,0,1,6.42,8.64,34.61,34.61,0,0,1,2.88,16.54c-.16,3.31-1,6.5-1.25,9.8a33.59,33.59,0,0,0,.49,8.61c2.14,11.43,10.43,20.51,18.07,28.75,4.65,5,9.38,10,13.78,15.24a204.31,204.31,0,0,1,13.61,19.07c.95,1.43,1.89,2.85,2.83,4.29a17.87,17.87,0,0,0,2.23,3.21,31.19,31.19,0,0,0,3.2,2.53c.4.31.79.61,1.15.95.12.11.42.52.22.21a7.43,7.43,0,0,1,.56,1.13c2.37,5.65,1,12.08,2.37,17.94a9.5,9.5,0,0,0,1.37,3.32c1.34,1.92,4.51.09,3.16-1.85s-1.39-4.81-1.53-7.14a72.69,72.69,0,0,0-.89-9.88c-.52-2.72-1.4-5.36-3.62-7.11-1-.83-2.16-1.57-3.15-2.45a6.29,6.29,0,0,1-.52-.51c.24.29-.18-.32-.24-.41-.44-.7-.89-1.39-1.34-2.07-4.21-6.45-8.3-13-13-19.1-4.41-5.7-9.27-11-14.19-16.31-7.72-8.28-16.84-17-19.93-28.25a28.73,28.73,0,0,1-1-7.82c0-3.21.8-6.22,1.13-9.38a40.59,40.59,0,0,0-2-18.33c-2.2-5.9-6.33-11.94-12-15l-.28-.16c-1.48-.74-3.67.9-2.51,2.51A30.38,30.38,0,0,1,115,123.23c.42,3,.62,10.49-4.09,9.83-2.86-.41-5-3.18-6.52-5.45a26.2,26.2,0,0,1-3.52-8.58,43.72,43.72,0,0,1-1-10.58c.06-3,.08-5.6-1.34-8.36A20.64,20.64,0,0,0,90.37,92c-2.11-1.17-3.7,1.79-1.85,3.16-.27-.21-.33-.29,0,0s.51.47.76.72A10.16,10.16,0,0,1,91,98.41a9,9,0,0,1,.93,4.12,21.45,21.45,0,0,1-1.35,5.73c-2.53,8.85-2.49,19.38,2.6,27.36,4.52,7.08,10.55,13,15.08,20.08a25.39,25.39,0,0,1,3.91,9.85A51.56,51.56,0,0,1,112.8,177c-.3,4.83-1.37,11.11-5,14.37a4.64,4.64,0,0,1-1.57.93,2.93,2.93,0,0,1-1.66,0,5,5,0,0,1-1.89-1.12,12.89,12.89,0,0,1-2.15-2.62,37.67,37.67,0,0,1-4.18-10.39,11.27,11.27,0,0,0-5.06-7c-2.22-1.33-4.76-1.94-7.17-2.8-2.09-.74-4.1-1.76-5.12-3.86a7.81,7.81,0,0,1,.82-8c2.25-3.07,5.45-5.66,6.92-9.24a6.45,6.45,0,0,0-.69-6.52c-.61-.84-1.34-1.57-2-2.36a5.49,5.49,0,0,1-1.12-2.09,7.47,7.47,0,0,1,.46-3.81,1.84,1.84,0,0,0-3.06-1.78c-2.1,2.23-3.73,4.86-3.18,8a26.79,26.79,0,0,0,.76,2.61c0,.19.11.38.14.57s0-.15,0,.27a1.62,1.62,0,0,1-.2.75c-.73,1.36-2.51,2.12-3.71,3a41,41,0,0,0-4.69,3.85A19.87,19.87,0,0,0,66,154.07a24,24,0,0,0-1.9,5.33c-1.18,4.39-1.71,9.24.61,13.35a24,24,0,0,0,2.86,3.79l.73.86.33.42c.16.19-.07-.12.18.23a15.23,15.23,0,0,1,1.26,2,4.4,4.4,0,0,1,.35.82,12.12,12.12,0,0,1,.39,1.34,11.8,11.8,0,0,1,.3,3,35.68,35.68,0,0,1-1.68,9.31c-1.77,6.46-3.88,12.81-6,19.14a142.05,142.05,0,0,0-4.67,15.65,112.28,112.28,0,0,0-2.39,20c-.29,7.39-.22,14.74,1.42,22a59.72,59.72,0,0,0,7,17.5,62.78,62.78,0,0,0,27.89,24.59,71,71,0,0,0,19,5.61,80.2,80.2,0,0,0,10.49.86c2.27,0,4.53-.33,6.79-.52a44,44,0,0,0,9-2c4.88-1.44,9.75-3,14.57-4.61,1.8-.61,3.59-1.22,5.35-1.93a20.18,20.18,0,0,0,5.17-3.32,56.78,56.78,0,0,0,12.21-15,71.14,71.14,0,0,0,6.86-14.78,11.84,11.84,0,0,0,.81-4.66,14.25,14.25,0,0,0-.58-2.57,4.37,4.37,0,0,1-.38-2,19.43,19.43,0,0,1,.92-2.4,16.41,16.41,0,0,0,.76-2.68A35.83,35.83,0,0,0,184,257c0-1.56.6-3,.6-4.6C184.55,250,180.89,250,180.9,252.35Z"/><path class="cls-2" d="M151.52,231.53l4-2.1,2.35-1.25a2.42,2.42,0,0,0,.5-.27c-.21.19-.59.22-.11.08.94-.28,1.87-.65,2.78-1a16,16,0,0,1,3.66-1.24c2.21-.12,4.56.84,6.56,1.69a41.18,41.18,0,0,1,4.27,2.1c2,1.16,3.89-2,1.84-3.16-3.5-2-7.55-3.89-11.6-4.26-2.74-.25-5.24,1.21-7.76,2.08a22.48,22.48,0,0,0-3.2,1.46l-5.1,2.7c-2.08,1.11-.23,4.27,1.85,3.16Z"/><path class="cls-2" d="M99.66,247.76c1.16-5.06,6.67-8.17,11.21-9.75s10.77-2.7,15,.08c2,1.28,3.82-1.88,1.85-3.16-4-2.61-9.37-2.44-13.89-1.54a28,28,0,0,0-13.8,6.82,13.51,13.51,0,0,0-4,6.58c-.52,2.29,3,3.27,3.53,1Z"/><path class="cls-2" d="M109.45,275.52a30.93,30.93,0,0,0,15-1.3c4-1.36,8.8-3.9,9.67-8.5.21-1.15-1.55-1.64-1.77-.48-.78,4.14-5.32,6.26-8.94,7.39a28.87,28.87,0,0,1-13.46,1.12c-1.15-.21-1.65,1.56-.49,1.77Z"/><circle class="cls-4" cx="152.99" cy="289.93" r="10.52"/><circle class="cls-4" cx="167.25" cy="244.83" r="14.88"/><circle class="cls-4" cx="117.06" cy="255.39" r="14.88"/><path class="cls-2" d="M181.25,255.15c-.69,2-2.57,3.65-4.31,4.87a19.6,19.6,0,0,1-2.64,1.58l-.59.28-.11,0-.18.07-.42.13c-.05,0-.11,0-.16,0,.2-.09.2,0,.07,0a.92.92,0,0,0,0,1.83,4.38,4.38,0,0,0,1.62-.47,16.59,16.59,0,0,0,2.09-1.09,19,19,0,0,0,4.62-3.8,9.49,9.49,0,0,0,1.78-3,.93.93,0,0,0-.64-1.12.94.94,0,0,0-1.13.64Z"/><circle class="cls-5" cx="111.32" cy="251.71" r="5.74"/><circle class="cls-5" cx="162.88" cy="240.51" r="5.74"/><circle class="cls-5" cx="125.58" cy="263.58" r="1.9"/><circle class="cls-5" cx="176.41" cy="252.76" r="1.9"/></g></g></svg>