<svg xmlns="http://www.w3.org/2000/svg" viewBox="0 0 487.11 115.89"><defs><style>.cls-1{fill:#231f20;}.cls-2{fill:#fedd10;stroke:#231f20;stroke-miterlimit:10;}.cls-3{fill:#fff;}</style></defs><g id="Layer_2" data-name="Layer 2"><g id="Finish"><rect class="cls-1" width="487.11" height="115.89"/><path class="cls-2" d="M50.72,77.79a2.9,2.9,0,0,1,.62-.14c.58,0,1.16,0,1.73,0a4.86,4.86,0,0,1,1.07.16c.45.13.88.36,1.34.47a.78.78,0,0,0,.7-.12,2,2,0,0,1,2.49-.47,4.8,4.8,0,0,0,.56.09l.31-.8a2.92,2.92,0,0,0,2.53.3c.84-.22,1.7-.37,2.55-.51a2.89,2.89,0,0,1,2.32.37,2.41,2.41,0,0,0,2,.36,4.9,4.9,0,0,1,2.71.15c.14,1,.54,1.34,1.46,1.2.63-.1.82,0,.81.64a7.72,7.72,0,0,0,1,3.74,5.43,5.43,0,0,1,.43,2.88,1.17,1.17,0,0,1-.32.68A6.3,6.3,0,0,1,69.11,89a27.16,27.16,0,0,0-3.92-.33,16.39,16.39,0,0,0-2.58.38c-.43.08-.85.18-1.33.29l-.44-1c-.12,0-.23,0-.25,0-.71,1.37-2,1.07-3.07.87a4.69,4.69,0,0,0-2.35-.17.83.83,0,0,1-.54,0,5.28,5.28,0,0,0-2.27-.18,8.87,8.87,0,0,1-1.8-.35l-.67.76a2.8,2.8,0,0,0-2.76-.61A8,8,0,0,1,43,88.62a1.32,1.32,0,0,0-1.32.23c-.45.31-1,.43-1.58.83l1.75.46,0,.24c-.55,0-1.11,0-1.66-.11s-.46-.38-.57-.7A3.93,3.93,0,0,0,39,88.2a5.21,5.21,0,0,1-1.05-2.38,4.33,4.33,0,0,0-.53-1.16,4.14,4.14,0,0,0-.57-.8,7.44,7.44,0,0,0-1.5-1.56,2.05,2.05,0,0,1-1-1.73c-.1-.8-.16-1.6-.27-2.39s-.36-1.35-1.21-1.5c-.42-.07-.56-.39-.65-.78-.5-2-1-4-1.53-6.06a2.07,2.07,0,0,1-.12-.65,9.5,9.5,0,0,0-1-4.35,12.31,12.31,0,0,1-.65-4c0-.44,0-.88-.05-1.32a1.55,1.55,0,0,0-.21-.72,6,6,0,0,1-1.55-4.29,11.53,11.53,0,0,0-.16-1.3c-.1-.61-.19-1.22-.35-1.82a2,2,0,0,0-.48-1,3.4,3.4,0,0,1-1.27-3c0-.5,0-.85-.59-1-.19-.05-.32-.35-.44-.56a12.27,12.27,0,0,1-.92-3.26,3.26,3.26,0,0,1,.17-2.26c-.92-.8-.58-1.85-.53-2.82,0-.73.26-1.44.33-2.17.14-1.36-.13-1.76-1.53-2.42-.42.21-.25.53-.16.85s.1.53.16.85c-.18-.05-.28-.05-.29-.09-.36-1.22-.69-2.44-1.07-3.65A1.57,1.57,0,0,1,20.47,29L20,28.08c.54-1.1,1.51-.53,2.25-.55a2.63,2.63,0,0,1,2.07.66c.72-.05,1.28-.14,1.83-.12,2.09.05,4.17.21,6.26.19a20.52,20.52,0,0,0,3.47-.47c.43-.07.79-.16,1,.12l3.43-1.08c.45.63.67.8,1.14.82L41.11,27c.77-1,1.09-1,2.3,0l.24-.55h1.72l.2,1.47.3,0,.4-1.36a8.86,8.86,0,0,1,3.61,1.94h.22c.68-.12,1.19-.7,2-.54a5.18,5.18,0,0,0,2.13-.33c.89-.22,1.76-.5,2.63-.78.47-.15,1.1-.21,1.34-.54.37-.5.8-.42,1.25-.5a.45.45,0,0,0,.28-.15c.67-1,1.63-.51,2.39-.31a29.91,29.91,0,0,1,3.47,1.34,1,1,0,0,1,.3.13,30.89,30.89,0,0,0,3.41,2.73c.5.36.41,1.57.08,2.14-.73,1.28-1.74,2.42-2,3.95a2.73,2.73,0,0,1-1.88,2.1,17.82,17.82,0,0,1-4.06.92c-.56.11-1.16,0-1.73.12a9.07,9.07,0,0,0-1.27.43c-.49-1.44-1.85-1.1-3-1.28-.13,0-.36,0-.4.12-.36.82-1.25.51-1.82.88a1.64,1.64,0,0,1-1,.09c-.91-.08-.91-.09-1.23.78l-1-.63c-.49.3-1.21.11-1.59.76-.06.1-.32.09-.49.11s-.36-.06-.42,0c-1.08,1.13-2.42.49-3.65.55a2.5,2.5,0,0,1-.92-.28c-.4-.15-.79-.32-1.27-.51l-.26.77c-.29-.07-.71,0-.89-.22-.78-.83-1.87-.57-2.77-.7a3.78,3.78,0,0,0-2.7.63c-.59.4-1.4.44-1.91,1-.08.1-.26.1-.41.13-1,.17-1.11.24-1.08,1.22A22.7,22.7,0,0,0,32,45.38a1.88,1.88,0,0,0,.47,1,2.59,2.59,0,0,1,.6,1.48c.18,1,.48,2,.74,3,.17.64.4,1.26.53,1.9a2.15,2.15,0,0,0,3.14,1.59c.13-.06.27-.1.39-.15.91.79,1.55.91,2.53-.43.74.14,1.63,1.28,2.23-.38l.93.93a2.44,2.44,0,0,1,2.3-.87A38.25,38.25,0,0,0,52,52.93a23.14,23.14,0,0,1,6.22-.39A5.69,5.69,0,0,1,59.4,53a1.69,1.69,0,0,1,1.77-.48c1.16.18,2.33.2,3.5.33A5.47,5.47,0,0,1,67,54c.34.22.6.55,1,.75A3.17,3.17,0,0,1,69.4,57.5a5.44,5.44,0,0,0,.26,1.62c.75,1.77-1.11,4.15-2.86,4.27a6.1,6.1,0,0,1-4.5-1,1.75,1.75,0,0,0-.9-.29c-.68-.06-1.36.08-2-.46-.18-.16-.62,0-1.07,0,0-.63,0-1.24,0-1.84s-.42-1-1.12-.78a3.07,3.07,0,0,1-1.72.16.55.55,0,0,0-.42.06c-.85.64-1.83.36-2.75.41s-1.12.25-1.34,1a4.48,4.48,0,0,1-.2.74c-.16.27-.39.65-.64.7a19.21,19.21,0,0,0-2.74,1.19,3.2,3.2,0,0,1-2.18.33c-.88-.28-1.11,0-1.33,1a2.45,2.45,0,0,1-.51-.3c-.57-.58-.56-.59-1.24-.1a1,1,0,0,1-.27.2c-.37.11-.77.34-1.11.26s-.5-.62-.51-1.09c0-.84-.12-1.67-.17-2.51s-.29-1.14-1.25-.84a3.5,3.5,0,0,0-.55.25c0,.14-.05.25,0,.28,1,.8.88,2.11,1.34,3.15.08.17,0,.42-.05.63A19.64,19.64,0,0,0,39,67.05a5.66,5.66,0,0,0,.29,1.9,4.37,4.37,0,0,0,.54,1.3,3,3,0,0,1,.57,2.27.65.65,0,0,0,.16.39c.94,1.26,1.82,2.56,2.83,3.76a5.06,5.06,0,0,0,2.78,1.67,3.32,3.32,0,0,1,2.1,1.07c.47.6,1.31.46,2,.44a4.31,4.31,0,0,1,2.82.82,2.52,2.52,0,0,0-1.92-1.42c-.8-.14-1.63-.16-2.45-.35.64-.53,1-1.49,2-1.13a1,1,0,0,0-.24.35,1.48,1.48,0,0,0,0,.46c.18,0,.44-.06.53-.18C51.4,78,51.08,77.85,50.72,77.79ZM58.78,59.4c.15.61.21,1,.35,1.4a.51.51,0,0,0,.45.18.47.47,0,0,0,.24-.39A1.25,1.25,0,0,0,58.78,59.4Zm-23,10c-.81.61-.81.81-.1,1.55C36.25,70.54,35.77,70.05,35.74,69.44ZM30.09,57.18c-.49.47-.43.8,0,1.14C30.35,57.81,30.35,57.81,30.09,57.18ZM59.57,38.49c.19-.24.42-.41.39-.53a.56.56,0,0,0-.41-.35c-.16,0-.32.19-.48.29ZM69,79.39a3.19,3.19,0,0,0-.35-.3s-.17.08-.17.09a.86.86,0,0,0,.18.34S68.78,79.46,69,79.39ZM44.94,39l0,.3.55-.15a.52.52,0,0,0,0-.18A5.44,5.44,0,0,0,44.94,39Zm7.22,49-.1.24.41.15.07-.16Z"/><path class="cls-3" d="M234.75,94.19c-1.41,0-2.76-.07-3.68-1.45-.72-1.09-1.67-2-2.4-3.11a8.12,8.12,0,0,1-.77-1.92,14.54,14.54,0,0,0-.59-1.76,5,5,0,0,1-.33-3.52,3.66,3.66,0,0,0,0-1.51c-.33-1.49-.79-3-1.09-4.44-.16-.8-.47-1.27-1.31-1.32-.13,0-.24-.14-.38-.23.07-.57.36-.65.85-.53,1.4.35,1.9,0,2.13-1.48a9.58,9.58,0,0,0,.35-1.93c-.08-1.27-.32-2.53-.51-3.8,0-.21-.19-.41-.21-.62-.14-1.48-.25-3-.38-4.44,0,0,0-.08,0-.11.64-1.28-.13-2.28-.71-3.27a6,6,0,0,1-.61-3.91,6.44,6.44,0,0,0,0-1.52,2.16,2.16,0,0,1,1.35-2.54c.59-.31.95,0,1.37.21a1.26,1.26,0,0,0-.13-1.84,3.55,3.55,0,0,0-3.2-1,11.74,11.74,0,0,0-1.18.24c-.89.22-1.26.57-1.1,1.65a21.15,21.15,0,0,1-.07,3.37c0,.53,0,1.07,0,1.61-.54.08-.72-.2-.64-.56a2.5,2.5,0,0,0-.47-1.86,1.38,1.38,0,0,1-.23-.92,6.33,6.33,0,0,0-.35-2.9c-1.05.47-1.22.78-1.24,1.78a25.28,25.28,0,0,1-.22,2.61,3,3,0,0,1-.41.8,2,2,0,0,1-.5-1.84,6.7,6.7,0,0,0,.19-.74c0-.5.1-1.18-.44-1.37a2.52,2.52,0,0,0-1.45.2,3.52,3.52,0,0,0-.81.55,2.51,2.51,0,0,0-1.16,2.64c.14,1.12.17,2.26.2,3.39a2.8,2.8,0,0,1-.24,1.18,1.27,1.27,0,0,1-.62.51c-.4.18-.83.3-1.34.48-1.57-.92-1.57-.92-1.62-3.43a4.67,4.67,0,0,0-1,.8c-.72,1.07-1.63,2.09-1.46,3.54a14.86,14.86,0,0,1,.1,1.63,1.3,1.3,0,0,1-.2.7,7.09,7.09,0,0,0-1.34,2.62.52.52,0,0,1-.13.3c-.9.64-.79,1.59-.73,2.49.05.7.17,1.39.28,2.07a4.14,4.14,0,0,0,1,2.18,6,6,0,0,1,.72,1.56,5.56,5.56,0,0,0,.61,1.38A7.41,7.41,0,0,1,210,79c.09.87.11,1.75.18,2.63A2.7,2.7,0,0,1,209,84.21a3.83,3.83,0,0,1-3.37.58,4.24,4.24,0,0,1-3.45-2.85,9.56,9.56,0,0,0-1.36-2,5.72,5.72,0,0,1-.48-5.53,3,3,0,0,0,.38-1.22,11.88,11.88,0,0,0-.43-3.79c-.24-1.1-.24-2.25-.38-3.38a3.43,3.43,0,0,0-.49-1.45c-.06.11-.17.22-.18.34a11.37,11.37,0,0,0-.07,3,6.57,6.57,0,0,1-.62,3.83c0-.58,0-1.18,0-1.76a8.51,8.51,0,0,0-.43-2.65c-.51-1.1-.34-2.23-.56-3.33,0-.12.09-.26.15-.45l1,.11c.15-.89-.64-1.37-.81-2.19.19-.36.67-.81.13-1.35.15-1.41-.8-2.85.13-4.27a1.56,1.56,0,0,0,0-1c-.26-1.18-.21-1.32.94-2,.53.2.52.67.5,1.1,0,1.17-.09,2.34-.15,3.51,0,.4-.06.81,0,1.21a.79.79,0,0,0,.86.83,4.55,4.55,0,0,0,.24-1.08c0-1.61-.09-3.23-.25-4.83a2.61,2.61,0,0,0-2.36-2.48c-.57-.11-.72,0-.72.61,0,1.54,0,3.07-.1,4.6a7.34,7.34,0,0,1-.37,1.41l-.27,0c-.05-.45-.11-.9-.13-1.35a1.14,1.14,0,0,0-.7-1.13,1.7,1.7,0,0,1-1.07-2c.05-.58,0-1.16,0-1.73a1.32,1.32,0,0,0-1.83,1.3A1.06,1.06,0,0,1,192.2,54c-.9.49-1,.92-.34,1.79A1.1,1.1,0,0,1,192,56a1,1,0,0,1-1.22.66c-.27-1.39.06-2.83-.32-4.39-.29.27-.52.38-.56.54a22.44,22.44,0,0,0-.45,2.58,7.41,7.41,0,0,1-.26,1.94c-.72-.36-.59-1.71-1.63-1.11-.79-1-.25-2.14-.63-3.25-.76,1-.85,1.34-.71,2.21a5.07,5.07,0,0,1-.49-.19,5.91,5.91,0,0,1-.51-.4c-.22,1.08-.95,1.84-.67,3a2.22,2.22,0,0,1-.72,2.18,6.93,6.93,0,0,0-1.08,2c-.83-.49,0-1.48-.6-2.23a4.47,4.47,0,0,0-.76.54A7.48,7.48,0,0,1,178.56,62a2.13,2.13,0,0,0-1.3,1.62,2.62,2.62,0,0,0,0,1.31l.53-1.29a4.6,4.6,0,0,0,.93.48,1.2,1.2,0,0,0,.88-.12c.14-.09.16-.55.06-.76a.89.89,0,0,1,.37-1.32,1,1,0,0,1,.66,1.11A11.31,11.31,0,0,0,180.8,67a15.17,15.17,0,0,1,0,2.94c.05,1.32.16,2.63.27,3.95a4.59,4.59,0,0,0,.21.87h.23l.56-1.16a4.85,4.85,0,0,1,.54,1.81,25.65,25.65,0,0,1,.65,3.23c.22,1.88.35,3.78.47,5.68a2.81,2.81,0,0,1-.23,1.17c-.49,1.21-1.07,1.39-2.23.68-1,1.32-2.33,1.18-3.67.77-.3-.28-.58-.77-.92-.83-1.16-.2-1.21-1.12-1.41-1.94a25.92,25.92,0,0,1-.35-5.77,1.63,1.63,0,0,0-.19-.69c-.31,1.35-.14,2.76-.42,4.12-.18-.06-.29-.07-.31-.11-.47-1.27-1-2.52-1.36-3.81a25.78,25.78,0,0,1-.47-2.79c-.22-1.22-.43-2.44-.67-3.66-.28-1.4-.64-2.78-.85-4.18s-.26-2.75-.39-4.2c-.82,0-1.12-.58-1.26-1.24-.26-1.26-.45-2.54-.7-3.92a1,1,0,0,1-.91-1.14,1.49,1.49,0,0,0-.57-.88,1.91,1.91,0,0,1-.67-1.55c0-1.2-.13-2.41-.22-3.61-.06-.9-.41-1.85.39-2.37-.22-.74-.38-1.29-.55-1.84a1.68,1.68,0,0,0-.15-.51,2,2,0,0,1,0-2.36,3,3,0,0,0,.34-.69c.25-1.22,1.24-1.31,2.19-1.48.17,0,.41,0,.5-.14.66-.8,1.46-.53,2.23-.32a7.24,7.24,0,0,1,1.4.61,1.47,1.47,0,0,0,1.56.14,1,1,0,0,1,1.35.26c.29.32.52.67,1.1.5.22-.06.67.28.84.56a3,3,0,0,1,.52,2.29,2.74,2.74,0,0,1-.08.43,14.42,14.42,0,0,0-.47,6.3,13.87,13.87,0,0,1-.26,3.05c0,.41,0,.83-.08,1.5a6.94,6.94,0,0,0,1.55-1.86,3.69,3.69,0,0,1,2.71-2,2.22,2.22,0,0,0,1.21-.69c.71-.78,1.32-1.66,2-2.48s1.24-1.43,1.86-2.15a6.34,6.34,0,0,0,.65-.89A3.57,3.57,0,0,1,188.69,45a1.21,1.21,0,0,1,1.56.18,1.38,1.38,0,0,1,1.79-.29c.18.11.55,0,.81-.08a8.33,8.33,0,0,1,3.19-.67c.14,0,.29,0,.44,0,1,.15,1.26.6.77,1.57.78.6,1.37-.81,2.09,0l.15-.76c.22,0,.47.17.63.1,1.31-.63,2.2.21,3.18.9l-.74.78c.47.34.85.67,1.27.93s.78.41.83.93a.69.69,0,0,0,.14.3,4.46,4.46,0,0,0,4.29,1c.12-.06.26-.19.38-.18a1,1,0,0,0,1.19-.86.53.53,0,0,1,.18-.26c.8-.58,1.58-1.19,2.42-1.71a5.37,5.37,0,0,1,1.37-.38c.75-1.67,2.29-1.87,3.86-1.72a10.14,10.14,0,0,0,4.41-.63,1.62,1.62,0,0,1,1.26,0,1.37,1.37,0,0,0,.83.15,2.49,2.49,0,0,1,2.4.65,5.76,5.76,0,0,0,1.26.65,4.23,4.23,0,0,1,.76.4c.54.45.54.69.16,1.29a5.5,5.5,0,0,0-.34.69c.44.37.71.16,1,0,1.05-.7,1.51-.53,1.87.69.12.38.2.78.34,1.16a11.15,11.15,0,0,0,.7,1.71,3,3,0,0,1,.32,2.91,19.84,19.84,0,0,0-.9,2.48,10.8,10.8,0,0,0-.25,1.72c-.06.53-.1,1.07-.13,1.6a2.31,2.31,0,0,0,.05.64,5.77,5.77,0,0,1,.11,3.32,6.81,6.81,0,0,0-.11,2.08,1.93,1.93,0,0,1-1,1.83,1.4,1.4,0,0,0-.62.94,24.2,24.2,0,0,0,0,3c0,.65.11,1.3.18,2A4.2,4.2,0,0,0,231,75a11.1,11.1,0,0,1,.4,3.8,9.37,9.37,0,0,0,.38,1.79,1.3,1.3,0,0,0,1,.92,2.89,2.89,0,0,1,1.14.8,15.19,15.19,0,0,1,1.71,2,2.3,2.3,0,0,1,.31,1.34,11.21,11.21,0,0,0,.77,4.83,3.41,3.41,0,0,1,0,2.64"/><path class="cls-3" d="M236.62,93.13l-.86-.24a2.53,2.53,0,0,0-.16.52"/><path class="cls-3" d="M175.14,58.65c.32-.52.63-1,.9-1.5a1.33,1.33,0,0,0,.1-.63c-.08-1.86-.18-3.72-.28-5.59a8.93,8.93,0,0,0-.15-.93c-.19.1-.3.12-.31.16a15.55,15.55,0,0,0-.85,4.05c0,1.09,0,2.18,0,3.26A1.12,1.12,0,0,0,175.14,58.65Z"/><path class="cls-3" d="M229.17,75.59c-.51-.65-1-.84-1.31-.49a2.08,2.08,0,0,0-.78,1.85c.17,1,.36,1.94.57,2.9a3.88,3.88,0,0,0,.41.76c.43-.77.46-.78.3-1.46s-.45-1.63-.64-2.45a4.31,4.31,0,0,1,0-.88Z"/><path class="cls-3" d="M200.48,46.2a1.27,1.27,0,0,0,1.38.41.57.57,0,0,0,.28-.4c0-.08-.14-.27-.24-.3A1.24,1.24,0,0,0,200.48,46.2Z"/><path class="cls-3" d="M166.88,53.45c.37-.91.37-.91-.26-1.19Z"/><path class="cls-3" d="M229.14,83.41c-.12-.09-.2-.19-.27-.18s-.14.12-.2.19.13.18.2.18S229,83.5,229.14,83.41Z"/><path class="cls-3" d="M190.15,46a1.37,1.37,0,0,0-.27-.19s-.14.08-.14.11.06.2.13.22S190,46,190.15,46Z"/><path class="cls-3" d="M196.55,45.66c0-.06,0-.17,0-.18a.55.55,0,0,0-.22,0c0,.06,0,.14.08.17S196.49,45.66,196.55,45.66Z"/><path class="cls-3" d="M202.17,60l-.11.14c.05,0,.1.11.14.1s.08-.09.12-.14Z"/><path class="cls-3" d="M173.3,54.29l.14.14c0-.06.07-.13.06-.18s-.09-.09-.13-.14Z"/><path class="cls-3" d="M179.13,67.41a.81.81,0,0,0-.18.2s.09.15.1.14a1.7,1.7,0,0,0,.22-.15Z"/><path class="cls-2" d="M128.87,86.2a14.05,14.05,0,0,1-1.3-.72,1.68,1.68,0,0,1-.54-.64,1,1,0,0,0-1.21-.69c-.72.08-.77,0-.87-.75,0-.21,0-.48-.14-.62-.85-1-1-2.34-1.51-3.52-.41-1-.4-1-1.51-1s-1.49-.09-1.87-1.21a6.05,6.05,0,0,1-.39-1.81,20.89,20.89,0,0,0-.81-4.53,34.16,34.16,0,0,1-.7-4,6.61,6.61,0,0,1,.38-1.9,4.91,4.91,0,0,0,.22-1,14.43,14.43,0,0,0-.21-2.63c-.3-1.42-.38-2.87-.76-4.3a14.67,14.67,0,0,1-.53-6.08c.13-.78.41-1.55-.11-2.29a.36.36,0,0,1,0-.32c.47-.89.55-2,1.5-2.61a2.4,2.4,0,0,0,.64-.83c.71-1.28,1.33-2.61,2.13-3.83.3-.46,1-.68,1.19-1.29,0-.07.18-.13.28-.15l3.71-.82a2.62,2.62,0,0,1,1.92.19A2,2,0,0,0,130,39a7.66,7.66,0,0,1,1.73-.21c.8-.07,1.61-.09,2.41-.17a1.67,1.67,0,0,1,1.51.45,10.46,10.46,0,0,0,1.22,1.08c.16.12.41.26.56.22a.6.6,0,0,0,.28-.51c0-.4,0-.75.5-.81a.83.83,0,0,1,.93.59,1.62,1.62,0,0,0,1.94,1,2.68,2.68,0,0,1,1.14.25c.51.17,1,.37,1.51.57s1.08.43,1.61.66c.13,0,.24.2.37.23a3.7,3.7,0,0,1,2.13,1.77,1.48,1.48,0,0,1-.19,2.31c-.26.25-.78.38-.43,1l1-.15a9.19,9.19,0,0,0,2,3.28,4.36,4.36,0,0,1,.61,1.83,5.65,5.65,0,0,0,1,3.08,1.45,1.45,0,0,1,.18.74c.12,1.3.28,2.61.31,3.92a19.32,19.32,0,0,1-.24,2.84c0,.25-.28.47-.45.68s-.33.3-.45.47c-.6.83-.92.94-1.82.56-.26-.12-.51-.27-.89-.46l-.53,2.42c-.54-.7-.29-1.69-1.21-2l-.44,1.55-.95-.64c-.08.18-.22.35-.19.48.14.57,0,.93-.75,1-.13-1.32-.26-2.63-.38-3.94l-.26,0c-.1.19-.3.37-.3.56,0,.86,0,1.68-.85,2.2-.12.07-.07.4-.12.6s-.15.51-.27.89L140.25,65c-.57.8-1.62,1-1.66,2-.8.06-.62-.77-1.06-1-.89.06-.36.9-.7,1.3-.46.1-.69-.12-.7-.57,0-.64-.35-.78-.93-.76-.8,0-.9-.09-1.12-.88a6.75,6.75,0,0,0-.24-.72s-.12-.07-.25-.15a3.85,3.85,0,0,0-.51.29,1.2,1.2,0,0,1-1.59.13,3.41,3.41,0,0,0-1.56-.36,16.61,16.61,0,0,0-2,.21l.3,2.16,2.66-.16a1.44,1.44,0,0,1-1.31.64,5.12,5.12,0,0,0-1.17.2,1.75,1.75,0,0,1-2-.5c-.49-.51-.52-.49-1.2-.17.47,2.79,1,5.59.27,8.51-.72-.28-.88-.89-1.21-1.35-.47-.64-.71-.72-1.65-.44.21.88.4,1.77.68,2.63a1.26,1.26,0,0,0,.67.61c.32.16.72.16,1.06.3.78.31,1,.67.88,1.53a1.63,1.63,0,0,0,0,.43c.15.7.33,1.39.51,2.12.7-.23.38-.74.35-1.16s0-.91-.06-1.39c1-.15,1.57,1.22,2.58.29L129.7,80c.84-.6,0-1.56.72-2.19l1.62.28a25.93,25.93,0,0,1,2.79.54,10.45,10.45,0,0,1,1.87,1l.48-.72.95.71.59-.87a4.2,4.2,0,0,1,2,.74c.41.32,1.17.22,1.78.22.13,0,.3-.37.39-.59s.24-.54.69-.44l.24.88c1.31.3,1.62.16,2.16-1a4.31,4.31,0,0,1,.71,0,.92.92,0,0,0,1.16-.33.79.79,0,0,1,.56-.3,7,7,0,0,1,3.56.36,3.63,3.63,0,0,0,2.34.33A3.53,3.53,0,0,1,158,80.1a1.43,1.43,0,0,1,.28,1.34,3.75,3.75,0,0,1-1.77,2.39,10.19,10.19,0,0,1-4,1.64c-1.16.08-2.33.14-3.49.12-.32,0-.64-.3-1-.49A15,15,0,0,1,141,86.91a2.07,2.07,0,0,1-.9-.27c-.16-.06-.27-.24-.42-.35a5.51,5.51,0,0,0-.54-.38L139,87a2.34,2.34,0,0,1-2.62.07c-.48-.25-1-.54-1.46-.74a5.56,5.56,0,0,0-1.08-.2l-.12.22.63,1c-1.06.16-2,.17-2.44-1a.77.77,0,0,0-.47-.42C130.58,85.86,129.62,85.23,128.87,86.2Zm3-38.65a5.27,5.27,0,0,1-.29-1c-.06-.57-.06-1.16-.08-1.74s-.1-.82-.54-1a8.18,8.18,0,0,0-3.52-.54c-1.43.1-2.2,1.2-3,2.21-.14.2-.09.55-.12.83s.06.53,0,.61c-.61.48-.44,1.09-.44,1.71a2.17,2.17,0,0,1-.32,1.13,4.19,4.19,0,0,0-.69,2.5,8,8,0,0,1-.5,3.34,4.29,4.29,0,0,0-.14,1.61,6.54,6.54,0,0,0,.28,1.37c.16.64-.1.9-.72,1.08a1.49,1.49,0,0,0-.6,2.51c.46-.45.9-.94,1.4-1.35s1.29-.94,2-1.39c.23-.16.55-.4.75-.34a2.38,2.38,0,0,0,1.68-.31,1.65,1.65,0,0,1,1.22,0,13.38,13.38,0,0,0,2.91.32c.19,0,.44-.23.58-.41a1.59,1.59,0,0,1,1.77-.62,2,2,0,0,0,2.73-1,1.38,1.38,0,0,0,1.78-.81c.06-.13.29-.22.45-.26a19.48,19.48,0,0,1,4.25-.06.93.93,0,0,1,.5.21c.74.62,1.82.69,2.43,1.52,0,0,.13,0,.3-.06a1.76,1.76,0,0,0-.07-1.42,16.85,16.85,0,0,0-1-1.83c-.69-1.12-.9-2.49-2-3.41-.65-.57-1.21-1.24-1.8-1.87-.15-.15-.39-.28-.43-.45-.15-.6-.57-.78-1.1-.92-.71-.19-.92.29-1.15.94a3.63,3.63,0,0,1-.27-.54c-.24-1.11-.37-1.22-1.45-1a.91.91,0,0,1-1-.31c-.3-.35-.64-.67-1-1.07C133.84,46.54,133.47,47.85,131.89,47.55Zm8.54,16.36c.82-.78.66-1.46-.45-2.07A2.08,2.08,0,0,0,140.43,63.91Zm-16.78,4c.45-.38.57-.68.25-1.11C123.36,67.05,123.25,67.35,123.65,67.91Z"/><path class="cls-3" d="M300.28,52.89a8.48,8.48,0,0,1,1.42-.1,1.48,1.48,0,0,0,1.38-.48.9.9,0,0,1,.75-.23c.62.17.84-.17,1.12-.6a5.21,5.21,0,0,1,1.29-1.59c1.21-.79,1.07-.94,2.63,0,.51-.12.51-.54.59-.94a1.24,1.24,0,0,1,1.23-1.17,2.29,2.29,0,0,1,2,.4,1.13,1.13,0,0,0,.9.31c1.17-.4,2.11.3,3.16.52a7.53,7.53,0,0,0,1.5.12,3.13,3.13,0,0,1,2.95,1.31c.28.44.51.76,1.1.69s.78.36,1,.77a2,2,0,0,0,1.21,1.19.92.92,0,0,1,.57.48c.28,1,1.21,1.19,2,1.54a1.17,1.17,0,0,1,.76.83,1.81,1.81,0,0,0,1,1.24c.18.08.26.36.43.46.35.21.74.36,1.34.64.08.33.24.88.34,1.45.08.41.14.75.64.91a1.94,1.94,0,0,1,.75.6c.28.29.45.72.77.92,1.14.69,1,1.76,1,2.82a4,4,0,0,0,0,1.09,16.83,16.83,0,0,1,.38,4.25,10.64,10.64,0,0,0,.27,1.83.81.81,0,0,0,1.12.75c.41,1.67.77,3.24,1.19,4.79a33.41,33.41,0,0,0,1.67,6,2.78,2.78,0,0,1-.93,2.85,4.18,4.18,0,0,1-2.94.94,4.77,4.77,0,0,1-1.35-.39,1.64,1.64,0,0,0-1.67,0c-.23.13-.46.23-.68.37a4.75,4.75,0,0,1-3.62.37c-.91-.17-1.35-1-1.9-1.58a3.78,3.78,0,0,1-.94-1.83,41.81,41.81,0,0,1-.6-5.12,9.36,9.36,0,0,1,.47-2.33,22.52,22.52,0,0,0,.57-2.66,2.25,2.25,0,0,0-.43-1.42,4.36,4.36,0,0,1-.93-3,3.6,3.6,0,0,0-.81-2.55,7.22,7.22,0,0,1-1-1.93,1.92,1.92,0,0,0-1-1.21,1.69,1.69,0,0,1-1.06-1.54c-.06-.63-.45-1.24-.07-1.9-.31-1.15-.58-2.33-.95-3.47a1.49,1.49,0,0,0-1.79-1,2.09,2.09,0,0,0-1.23-1.82,1.37,1.37,0,0,0-.71-.22c-1.14.16-2.28.4-3.42.55a4,4,0,0,1-1.38-.11c-.72-.16-.88-.12-1.19.57-.17.36-.34.73-.49,1.1-.31.77-.33.78-1.2.61a1.92,1.92,0,0,0-.34,0c-.09.12-.19.22-.27.35-.5.85-.49.84-1.38.41a1.86,1.86,0,0,0-.73-.21,11.84,11.84,0,0,1-4-1,3.88,3.88,0,0,0-1.1-.42,1.43,1.43,0,0,0,.3.34.71.71,0,0,1,.25,1.18.4.4,0,0,0-.09.2,4.52,4.52,0,0,1-1.15,2.64,1.05,1.05,0,0,0-.11.84,1.69,1.69,0,0,0,.53.88c.34.25.59-.1.82-.35a1.13,1.13,0,0,1,.26-.16c1.23,1.15,1.42,1.74.88,2.68-.45-.2-.26-.62-.32-1s-.25-.62-.66-.57a.54.54,0,0,0-.48.8,3.64,3.64,0,0,0,.61,1.13,1.76,1.76,0,0,1,.4,1.49,5.55,5.55,0,0,0,.39,2.3,1.78,1.78,0,0,1,0,1.56.88.88,0,0,0,.17,1.09,2.35,2.35,0,0,1,.4,1.09c.15.75.2,1.51.35,2.26a1.19,1.19,0,0,0,1.11,1h.22a2.83,2.83,0,0,1,2.45,1.7c.39.79.46.75,1.26.5a16.8,16.8,0,0,1,1.3,6.71c-.23-.05-.48-.19-.68-.14s-.31.28-.43.46c-.53.75-1.06,1.49-1.54,2.27a3,3,0,0,0-.22.9l1.72.12,0,0a2.22,2.22,0,0,1-2.56.28c-1.06-.5-2.05-1-3.23-.48a.64.64,0,0,1-.52-.06c-1.19-.85-2.36-1.72-2.57-3.36-.14-1.12-.41-2.23-.64-3.34a2.36,2.36,0,0,0-.2-.62,4.7,4.7,0,0,1-.33-2.77,2.27,2.27,0,0,0,.06-.85c-.4-1.32-.84-2.64-1.27-4a1.14,1.14,0,0,1-.11-.42c.08-.58-.37-.63-.86-.79-.11-1.51-.22-3-.32-4.56a3.54,3.54,0,0,1,0-.65,3.9,3.9,0,0,0-1.14-3.56c0-.07,0-.18,0-.21.75-.49.73-1.08.53-1.93a28.51,28.51,0,0,1-.23-3.48c-.09-.86-.41-1.69-.53-2.55a10.15,10.15,0,0,1-.06-2.27c.08-.87.31-1.73.47-2.6a3.07,3.07,0,0,1,.9-1.71,3.36,3.36,0,0,0,.66-1.22c.28-.87.77-1.13,1.55-.7A2.83,2.83,0,0,1,298.26,48c.27.83.55,1.66.86,2.48a1,1,0,0,1-.11,1,3,3,0,0,0-.46.87,2.17,2.17,0,0,0,1.21,2.32.63.63,0,0,0,.78-.68,7.09,7.09,0,0,0-.25-1.18Zm21.21,4.81a.65.65,0,0,0,.19.95,16.61,16.61,0,0,0,1.42.94.62.62,0,0,0,.58,0,.57.57,0,0,0,.08-.56,2.87,2.87,0,0,0-.81-.66C322.52,58.09,322,57.94,321.49,57.7Zm15.67,25.17c-.54,1.3-.56,2.09-.1,2.86C337.92,85.17,338,84.15,337.16,82.87Zm-1.57-.61c.73,0,1.14-.17,1.32-.67s.41-.93-.19-1.47ZM322.2,63c0-.29.07-.54,0-.67a1.25,1.25,0,0,0-.57-.41c-.06,0-.32.16-.31.21a1.39,1.39,0,0,0,.28.63C321.69,62.87,321.93,62.89,322.2,63Zm6.18,5.83c.16-.94.11-1.13-.39-1.64A1.26,1.26,0,0,0,328.38,68.81Zm6.37,17.76a.93.93,0,0,0,1.26.08C335.4,86,335.4,86,334.75,86.57Zm-7.81-15.49c-.16-.4-.23-.87-.84-1C326.18,70.64,326.29,71.07,326.94,71.08ZM302.41,81.16c-.18-.4-.37-.69-.81-.48a.39.39,0,0,0-.08.37C301.75,81.43,302.05,81.43,302.41,81.16Zm17.32-29.88c-.16-.14-.25-.28-.34-.29s-.22.12-.33.19c.1.11.17.26.29.32S319.55,51.39,319.73,51.28Zm7.16,5.55a1.7,1.7,0,0,0-.22-.15s-.11.11-.11.12l.19.19Zm4.34,12a1.19,1.19,0,0,0,.09-.15s0-.08-.05-.08l-.15.09Zm-7.08-4.19a1,1,0,0,0-.26-.11s-.07.08-.1.13a.88.88,0,0,0,.23.14S324.09,64.71,324.15,64.64Zm5.23,17.71a1.66,1.66,0,0,0,.06-.16.16.16,0,0,0-.08,0,.74.74,0,0,0-.13.12Z"/><path class="cls-3" d="M342.13,44.21a7.74,7.74,0,0,1,2.83.19,1.83,1.83,0,0,0,1.86-.28.66.66,0,0,1,.5-.15,12.63,12.63,0,0,1,2,.48c.21.07.36.42.47.67a12,12,0,0,1,.36,1.19L351.24,45c1.05,1,2.24.14,3.36.59.14-1.28.5-2.37.64-3.58a1.9,1.9,0,0,0-1.3.84,6.22,6.22,0,0,1-.52-1.21.94.94,0,0,0-.78-.83c.2-.87.32-1.7.58-2.48a1.72,1.72,0,0,1,1.21-1.29,2.77,2.77,0,0,0,1.89-1.54,1.75,1.75,0,0,1,2.59-.77,4.27,4.27,0,0,1,.87.47,1.53,1.53,0,0,0,1.83.26c.14.12.32.2.34.31a1.76,1.76,0,0,0,1.39,1.49c.21.05.42.41.5.66a9.42,9.42,0,0,1,.3,1.4,18.41,18.41,0,0,0,1.71,5.42c.47.95.86,1.07,1.87.68l.5-.21a1.5,1.5,0,0,1,1.59,0,3.33,3.33,0,0,1,.56-.63,1.5,1.5,0,0,1,.76-.28c1.09-.06,2.19,0,3.28-.11a10.38,10.38,0,0,1,4,.52,1.78,1.78,0,0,1,1.36,1.43,1.06,1.06,0,0,0,.5.64,3.47,3.47,0,0,1,2.09,3.28,1.5,1.5,0,0,0,.68,1.38,1.73,1.73,0,0,1-.06,2.95,13.94,13.94,0,0,1-2.21.93l-1.21.47a5.14,5.14,0,0,1-1.44.46c-1.34.06-2.69,0-4,0-1,0-1.94-.08-3-.12-.11-.19-.29-.49-.48-.79-.47-.72-.66-.82-1.45-.56a10.71,10.71,0,0,0-1.69.77,1,1,0,0,0-.55,1.21A9.48,9.48,0,0,0,367.2,58a29.22,29.22,0,0,1,1.2,4.88c.16,1,.51,1.9.73,2.86s.57,2.21-.12,3.3a1.52,1.52,0,0,0-.05,1c.13.83.28,1.66.49,2.48a3.33,3.33,0,0,0,.56,1.17,5.67,5.67,0,0,1,1.13,3,7.3,7.3,0,0,0,.86,2.7,5.42,5.42,0,0,1,.46,1.68c.15.9.25,1.81.37,2.72.24,2-.65,3.09-2.67,3.45a3.79,3.79,0,0,1-4.64-2.7A32.49,32.49,0,0,0,364,81.65a9.13,9.13,0,0,1-.89-2.45,12.64,12.64,0,0,1-.08-3.48c.25-1.71.6-3.46-.11-5.16a.43.43,0,0,1,0-.22,2.53,2.53,0,0,0-1.45-2.61,1.66,1.66,0,0,1-.54-.77,15.11,15.11,0,0,1-.47-1.44c-.19-.61-.68-1.15-.42-1.87.05-.14-.11-.34-.15-.52-.13-.56-.25-1.13-.37-1.69a2.45,2.45,0,0,0-.05-.55c-.5-1.14.09-2,.71-2.88a1.42,1.42,0,0,0,.32-1.31,4.58,4.58,0,0,0-.15-.64,4.41,4.41,0,0,1-.55-2.63c.06-.29-.21-.65-.41-1.17a4.83,4.83,0,0,0-.53.71.83.83,0,0,1-.94.58c-.4,0-.55-.32-.6-.68-.08-.6-.41-.73-1-.69a9.57,9.57,0,0,0-2.72.11c-.22.08-.56-.1-.82-.22-.93-.42-.93-.43-1.48.51,0,0-.06,0-.17.11a4.69,4.69,0,0,1-.21-.46,1.07,1.07,0,0,0-1.15-.82,6.19,6.19,0,0,1-2.84-.71c-1-.47-2-.72-3.07-1.1A4.11,4.11,0,0,1,343,49c-.05,0-.08-.11-.12-.18l-2.22-3.54,1.32-1.63.22.07c0,.16,0,.33,0,.49a2.05,2.05,0,0,0-.16.38c0,.22-.14.54,0,.66s.51.19.76-.24Zm16,3.54c-.26.29-.49.44-.54.63-.1.39.39,1,.67.92s.54-.47.52-.69S358.44,48.11,358.15,47.75Zm11.51,38.38c-.49-.58-.92-1.11-1.36-1.62C367.93,85.5,368.29,86,369.66,86.13Zm-3.93-9.38c0-.65-.29-.92-.71-.84s-.53.43-.36,1Zm6-24c.5.09.87,0,1-.5,0-.09-.16-.37-.25-.38C372,51.88,371.73,52.14,371.75,52.77Zm11.32.5.17-.26a1.63,1.63,0,0,0-.41-.1c-.11,0-.28.12-.29.21a.37.37,0,0,0,.21.29C382.83,53.44,383,53.32,383.07,53.27Z"/><path class="cls-3" d="M260.62,87.19c-.09.21-.19.41-.27.62a4.51,4.51,0,0,1-.4,1.12c-.33.51-.68.94.07,1.49a3.58,3.58,0,0,1-1.77-1,3.72,3.72,0,0,0-2.4-1.31c-.61-.07-.85-.61-1-1.06a1.89,1.89,0,0,0-1.66-1.37,2.58,2.58,0,0,1-.93-.51,6.29,6.29,0,0,1-.94-.92,2.58,2.58,0,0,1-.57-.91,15,15,0,0,0-.48-2.12c-.16-.39.11-1,.23-1.48a1.35,1.35,0,0,0-.29-1.34,2.42,2.42,0,0,1-.59-1.49c-.08-.47-.22-.92-.32-1.39a22.72,22.72,0,0,0-.71-3.09,12,12,0,0,1-.72-4.24,6.38,6.38,0,0,1,0-2,.79.79,0,0,0,0-.43c-.22-1-.44-2.06-.7-3.08a2.32,2.32,0,0,1,0-1.6,4.32,4.32,0,0,0,.32-2.35,16.47,16.47,0,0,1,.21-1.81c0-.56-.41-1.11-.4-1.66,0-1.82.18-3.65.33-5.47a1.2,1.2,0,0,1,.49-.75c.78-.59,1.74-1,2.12-2a.43.43,0,0,1,.23-.23c.89-.36,1.13-1.2,1.49-2l.94-.15c.21,0,.49,0,.64-.09,1.54-1.17,3.21-.46,4.82-.33,1.17.1,2.32.34,3.49.42a7.21,7.21,0,0,0,1.95-.22,4.56,4.56,0,0,1,3.57.64,17.37,17.37,0,0,0,2.48,1.12A6.31,6.31,0,0,1,273.21,50c.35.93.73,1.17,2.05,1.16.13,1,.28,2.13.38,3.2.08.84.09,1.68.16,2.51a1.06,1.06,0,0,0,.68,1,1.23,1.23,0,0,1,.58.59,5.14,5.14,0,0,1-.34,4c-1-.32-1.09-.28-1.56.67a3.9,3.9,0,0,0-.45,2,5.11,5.11,0,0,1-.36,1.92,1.26,1.26,0,0,1-.81.61A5.39,5.39,0,0,0,271.08,69a3.6,3.6,0,0,1-2.8,1c-.73,0-1.47,0-2.2-.08-.39,0-.93-.08-1.12-.34-.45-.61-1-.5-1.58-.47l-6,.33-.51-1.76a2.4,2.4,0,0,0-.16-.52c-.31-.61-1.21-1.11-1.59-.92a1.81,1.81,0,0,0-1,2,1.86,1.86,0,0,1-.06,1.69,2.56,2.56,0,0,0,0,2c.33,1.07.72,2.14,1.11,3.2s1.06,1.35,2.15.78a3.14,3.14,0,0,1,.36,1.56c.1,1.16.18,2.32.38,3.47a2,2,0,0,0,1.24,1.45c.34.15.65.36,1.11.62l-1,.67a2.9,2.9,0,0,0,1,2c.15,0,.3,0,.34-.12.78-1.33,2.09-.82,3.21-.93a16.91,16.91,0,0,1,1.74,0A2.71,2.71,0,0,0,268,83.3a9,9,0,0,1,3-2.63,2.38,2.38,0,0,1,2-.15,13,13,0,0,0,3.74.76,1.51,1.51,0,0,1,1.54,1.13c.23.72.82,1.31.7,2.16a1.08,1.08,0,0,1-.51.88c-.75.5-1.43,1.13-2.13,1.69a4.19,4.19,0,0,1-1.21.9c-1.55.45-3.06,1.31-4.77.65-1,.28-1.85-.54-2.85-.39s-1.91.11-2.84.26c-.67.12-1.31.45-2,.61-1.48.36-1.65.22-1.79-1.27a4.3,4.3,0,0,0-.16-.69Zm9.29-31.53a3.63,3.63,0,0,0,.65-.41c.65-.65.47-1.52.48-2.29s-.33-1.2-1.3-1.45c-.49-.12-1-.19-1.49-.28a12.76,12.76,0,0,1-2.34-.47,16.34,16.34,0,0,0-4.08-.77,1.89,1.89,0,0,1-.92-.29.8.8,0,0,0-1.16,0,1,1,0,0,1-1.4,0,1.87,1.87,0,0,0-1.83-.64,3,3,0,0,0-3.22,2.6.89.89,0,0,1-.74.81c-.29.08-.7.23-.79.45a6.67,6.67,0,0,0-.56,2c-.07.89.07,1,1,1a1.83,1.83,0,0,1,1.75,1.4c.41,1.2.06,2.39.12,3.58,0,.13-.11.27-.18.4-.37.79-.34.85.3,1.49a2.28,2.28,0,0,1,.65,1c.29,1.1.26,1.11,1.35,1a6.58,6.58,0,0,0,.75-.14l3-.62c.67-.13,1.36-.22,2-.39.92-.22,1.83-.51,2.75-.73a1.33,1.33,0,0,0,1-.76l1.21-2.7a1.92,1.92,0,0,0,0-1.49,4.61,4.61,0,0,1-.17-1.29c0-.61.05-1.23,0-1.84a.78.78,0,0,1,.67-1,1.17,1.17,0,0,1,1.28.36ZM278,85c-.21-.2-.32-.37-.39-.36a1.83,1.83,0,0,0-.53.25s.11.32.15.31A4.9,4.9,0,0,0,278,85Z"/><path class="cls-3" d="M398.85,58.35a4.74,4.74,0,0,0,1.61-3.48c0-.58,0-1.2.83-1.4.1.5.16,1,.29,1.41s.54.63.91.24A2.54,2.54,0,0,0,403.54,53a11.65,11.65,0,0,1,.07-1.92,1.19,1.19,0,0,1,1,1.37c0,.43-.13.89.46,1.11a1.05,1.05,0,0,0,.43-1.15c-.12-1.07-.08-1,.73-1.6a3.57,3.57,0,0,0,.82-1.35c.12-.26.1-.67.48-.58.2,0,.42.38.47.62a9.92,9.92,0,0,1,.11,1.63,1.71,1.71,0,0,0,.59,1.59c.51-.49.44-1.73,1.76-1.21,0-.46,0-.77,0-1.08a1.92,1.92,0,0,1,1.45-2.17c.65-.2,1.2-.23,1.57.51a1.39,1.39,0,0,0,1.38.74c.51,0,.75.27,1,.66a4.17,4.17,0,0,1,1,3.56,1,1,0,0,0,.08.42,2.41,2.41,0,0,0,.23.36,2.86,2.86,0,0,1,.46-.58c.18-.14.49-.31.64-.24a1,1,0,0,1,.49.62,9.86,9.86,0,0,1,0,1.09,3.44,3.44,0,0,0,1.42,2.94,1,1,0,0,1,.43,1c-.07.84,0,.84.63,1.34.87-.35.15-1.21.6-1.86a4.47,4.47,0,0,1,.19.65c.13,1.5.24,3,.37,4.48a.85.85,0,0,0,1.08.77.77.77,0,0,1,.94.54c.74,1.67,1.44,3.35,2.19,5a2.58,2.58,0,0,0,1.2,1.57,1.79,1.79,0,0,1,1,1.82,1.17,1.17,0,0,0,.46.89A14.27,14.27,0,0,1,433,79.21a3.57,3.57,0,0,0,1.36,1.54,7.47,7.47,0,0,1,.79.6A3.44,3.44,0,0,1,436.27,85c-.07.33-.45.63-.76.85a9.89,9.89,0,0,1-1.31.75,1.44,1.44,0,0,1-.6.23,14.68,14.68,0,0,1-4.88-.65,2.36,2.36,0,0,1-.65-.38,15.51,15.51,0,0,0-2-1.69c-1.72-1-2.05-2.65-2.1-4.42,0-1.13,0-2.27,0-3.4,0-.48-.07-1-.6-1.18-.64.35,0,1.56-1.21,1.54,0-.25-.08-.51-.11-.78a2,2,0,0,0-2.28-1.83c-.7,0-.77,0-.94-.74s-.42-1.67-.69-2.49a1,1,0,0,0-.54-.49,1.66,1.66,0,0,1-1.31-1.84l-.75.32c-.45-.42-.29-.81-.05-1.22a5.33,5.33,0,0,0,.53-1.07,2,2,0,0,0,0-1.67,5.13,5.13,0,0,1-.21-1.5,12.91,12.91,0,0,0-1.08-4.44,2.62,2.62,0,0,0-1.12-1.14,1.2,1.2,0,0,1-.74-1.59c.3-1-.88-2.69-1.94-3-.42-.12-.65,0-.7.43s-.07,1-.15,1.53c0,.27-.1.69-.27.76-.66.29-.84.91-1.08,1.46a2,2,0,0,1-1.21,1.18,2.83,2.83,0,0,0-1.76,1.69,12.36,12.36,0,0,1-1,1.68c-.37.62-.72,1.26-1,1.91a11.83,11.83,0,0,0-.57,1.54,4.77,4.77,0,0,0-.16,1.07c-.06.84-.09,1.67-.12,2.51,0,.47,0,.94,0,1.41a3.43,3.43,0,0,1,0,1.2c-.46,1.1.11,2.06.32,3.07a.9.9,0,0,0,.23.31.68.68,0,0,0,.26,0c.37-.12.81-.44,1.09-.33a4,4,0,0,1,1.29,1c.15.15.15.47.17.71a2.23,2.23,0,0,1-.1.43c-.08.57.15,1.11.49,1.07.59-.06.43-.56.44-.94,0-.15,0-.29,0-.44q0-.65.63-.51a6.45,6.45,0,0,1,2.23,1.46c.55-1.28,1.83-1.14,2.85-1.51a6.78,6.78,0,0,1,3.35-.39c.83.13,1.68.1,2.52.18.41,0,.88-.08,1.15.44s.83,1.13.65,1.92a2.86,2.86,0,0,1-1.65,2.18c-.39.16-.66.4-.57.82.29,1.33-.68,1.75-1.58,2.14s-2.12.78-3.18,1.15a9,9,0,0,0-2.14.9,5.6,5.6,0,0,1-2.44.4,13.39,13.39,0,0,1-1.42,0c-.91-1.08-.91-1.08-2.09-.33-.23-.39-.49-.77-.69-1.18a1.15,1.15,0,0,0-.94-.79,6.83,6.83,0,0,1-1.59-.44c-.31-.13-.76-.39-.8-.64-.21-1.47-.62-3,.31-4.51a9.06,9.06,0,0,1,.86.75c.32.36.68.49,1.06.21a.69.69,0,0,0,.05-1,1.81,1.81,0,0,0-.92-.69,1.8,1.8,0,0,1-1.47-1c-.06-.11-.22-.17-.36-.26a2,2,0,0,0-1,1.76,5.38,5.38,0,0,0-.05,1.25c.19.87-.34,1.64-.17,2.48.1.49-.22.73-.63.9a.57.57,0,0,1-.85-.4,1.29,1.29,0,0,1,.25-1.44c.49-.42.46-1,.66-1.52.36-1,0-1.87,0-2.8,0,0-.1-.09-.21-.19l-.62.93A5,5,0,0,1,396.12,74a14,14,0,0,1-.78-4.63,4.73,4.73,0,0,0-.1-1c0-.21-.17-.47-.09-.63a3.11,3.11,0,0,0-.11-2.23c-.39-1.6,0-3.16,0-4.77a3,3,0,0,1,2.27,1c0-.53,0-1,0-1.57a13.14,13.14,0,0,1,.12-1.53,9.49,9.49,0,0,1,.35-1.58.7.7,0,0,1,.9-.44c.4.13.35.51.29.84Zm5.18,22a2.4,2.4,0,0,0-.86,1.51c-.1.39.23.59.61.44C404.64,82,404.76,81.29,404,80.39Zm7.65,4.17c-.32-.24-.52-.48-.61-.44a1.63,1.63,0,0,0-.62.49s.24.44.31.42A5.74,5.74,0,0,0,411.68,84.56Zm-2.87-31.14c-.15.54,0,.8.43.92C409.46,53.89,409.33,53.64,408.81,53.42Zm2.31,28.83-.21.24c0,.42.26.56.9.42Zm14.73-8.51c.55-.28.57-.5.21-1ZM399,60.23c-.41.18-.41.18-.3.69Zm-1.27,4.34,0,.17a.45.45,0,0,0,.16,0s0-.07,0-.08A.45.45,0,0,0,397.77,64.57Z"/><path class="cls-3" d="M460.18,47.75c-1.21.38-1.26.53-1.35,1.78-.15,2.22-.43,4.43-.55,6.66-.1,1.74,0,3.5,0,5.25,0,.48,0,1,0,1.42,0,.25-.07.64.07.74a26,26,0,0,0,2.5,1.68c.09.06.56-.25.62-.46a4.19,4.19,0,0,0,.08-1.28c0-.88-.06-1.75-.08-2.62a.77.77,0,0,1,.23-.48,9.48,9.48,0,0,1,.32,3.12c-.07,1.69-.29,3.38-.45,5.14h-1a9.88,9.88,0,0,1-.68,1.06c-.14.16-.41.21-.62.32-.1-.22-.31-.46-.28-.65a5.81,5.81,0,0,1,.41-1.48c.49-1.09.46-1.26-.68-2a2.33,2.33,0,0,0-1,2.63,7,7,0,0,0,1,2.74,1.78,1.78,0,0,1,.29,1.56,7.66,7.66,0,0,0,0,1.37,1.8,1.8,0,0,1,2,.53,1.2,1.2,0,0,1,.31.54c0,.87.37,1.74-.08,2.6a1,1,0,0,0-.07.54c.23,1.3-.48,2.21-1.21,3.15a3.46,3.46,0,0,0-.64,1.47,7.52,7.52,0,0,0,0,2.84,10.71,10.71,0,0,1,0,2.06,1.29,1.29,0,0,0-1.57.85c-.15.28-.41.51-.59.78a1.28,1.28,0,0,1-1.45.54c-.55-.13-.52-.63-.59-1.06a2,2,0,0,0-.13-.37c-.13,0-.21,0-.27,0-1.08.54-1.39.43-1.58-.81a20.85,20.85,0,0,1-.24-3.7c0-1.28.07-2.55,0-3.83a18.88,18.88,0,0,1,.39-3.81,3.51,3.51,0,0,0-.19-2,4.67,4.67,0,0,1-.26-2.47,1.11,1.11,0,0,0-.57-1.26c-.06.61-.12,1.12-.19,1.81a1.57,1.57,0,0,1-.67-1.46c0-.5,0-1,0-1.56l1-.34c.14-.5.27-1,.44-1.57l-1.17-.26c-.16-.55-.35-1.09-.46-1.64a1.94,1.94,0,0,1,.06-.75c.1-.69.25-1.37.31-2.06a4.74,4.74,0,0,0-.12-1.12l-.29-.05c-.23.4-.47.8-.71,1.23-.09-.13-.17-.2-.16-.24a5,5,0,0,0-.18-3.2c-.51-1.37-.08-2.76,0-4.14a19.73,19.73,0,0,0,.09-3.07,2.61,2.61,0,0,1,.68-2.32c.09-.08.12-.24.26-.54-.88.27-1.57.46-1.66,1.49-.27-.14-.56-.21-.59-.33-.11-.45-.35-1.1-.14-1.35,1.35-1.68.64-3.49.47-5.27,0-.25,0-.51-.07-.76a21.66,21.66,0,0,0-.5-2.67c-.11-.35-.59-.58-1-.95-.5-1.5.47-3.27-.3-4.93-.69,0-.76.44-.72.91s.14,1.09.21,1.64a1.28,1.28,0,0,1-.52,1.27,2.72,2.72,0,0,1-.34-.79c-.05-.69,0-1.39-.06-2.08-.1-1.26-.21-2.53-.37-3.79-.13-1-.45-2.08.31-3a1.13,1.13,0,0,0,.21-.72,5.49,5.49,0,0,1,.3-2.38c.07-.18-.06-.43,0-.64a18.13,18.13,0,0,1,.19-1.95,1,1,0,0,1,1-.87,7.68,7.68,0,0,0,1.32-.46c1.4-.42,1.88-.13,2.16,1.27a4.06,4.06,0,0,0,.16.44l.9-.13.61.93,1.15-.27a3.89,3.89,0,0,0,.45.83,3.37,3.37,0,0,0,.74.54l.83-.95.72,1.15a10.26,10.26,0,0,1,1.64-.38c.69,0,.78.68,1.12,1.12l.75-.1c.36.44.65.84,1,1.21s.68.66,1,1c0,.55,0,1.19.08,1.83a7.25,7.25,0,0,1-.63,3.53,3,3,0,0,0-.26,1c0,.81,0,1.61,0,2.42a1.61,1.61,0,0,1-.53,1.37,3.75,3.75,0,0,0-.57,1.17l.9.34c0,.61,0,1.22-.09,1.84a6.51,6.51,0,0,0,0,2.6,3.49,3.49,0,0,1-.18,1.81,6.88,6.88,0,0,1-.61,1.29ZM447.42,23.93a9.43,9.43,0,0,0-.19,4.4,3.36,3.36,0,0,0,.48-.14.22.22,0,0,0,.11-.18A9.73,9.73,0,0,0,447.42,23.93Zm1.16,7.45.11-1.12-.82.53c-.43-.27-.7-1-1.37-.56a.74.74,0,0,0-.2,1.15Zm10.43,46c.52.07.81-.08.8-.55a.38.38,0,0,0-.28-.27C459.06,76.52,458.91,76.81,459,77.33Zm-.24.68-.88.32C458.34,78.78,458.6,78.75,458.77,78Z"/><path class="cls-2" d="M105.24,77.18c-.11,1.16-1.18,1.15-1.94,1.52.15.53.39.63.83.46s.89-.26,1.52-.44a9.34,9.34,0,0,1,.12,1.48,7.84,7.84,0,0,1-.3,1.73,6.12,6.12,0,0,0,.28,3.09,4.21,4.21,0,0,0,.49-2.07c0-.46,0-.46.53-.79a3.52,3.52,0,0,1,.28,3.13,2.82,2.82,0,0,0-.47,1.66c.12,1-.25,1.4-1.22,1.57-.21,0-.43,0-.62.08-.44,1.76-1.29,1.6-3.12,1.45-.49,0-.94-.32-1.46,0a.66.66,0,0,1-.6-.1,3.77,3.77,0,0,0-2.68-1.14c0-.34,0-.55,0-.77a.62.62,0,0,0-.55-.7c-1.22-.21-1.52-1.09-1.64-2.16-.06-.53-.26-1-.36-1.58a2.11,2.11,0,0,1,0-1,2.28,2.28,0,0,0-.09-1.71c-.26-.64-.42-1.19.12-1.56-.29-1.35-.59-2.55-.76-3.77a1.72,1.72,0,0,1,.47-1,3.78,3.78,0,0,1,.83-.6c-.93-1-1-2.24-1.4-3.42a4.34,4.34,0,0,0-.79-1.65,3.09,3.09,0,0,1-.5-1.52c-.23-1.7-.41-3.41-.6-5.11-.13-1.13-.25-2.26-.37-3.39-.27-2.58-.59-5.15-.8-7.74-.08-.93.15-1.88.16-2.83A3.82,3.82,0,0,0,90.19,46c-.24-.39,0-1.06,0-1.61a9.84,9.84,0,0,0-.43-3.88,5.86,5.86,0,0,1-.24-1.83c0-.84,0-1.68,0-2.51a3.17,3.17,0,0,1,.25-.83c.09-.28.32-.57.27-.82a3.76,3.76,0,0,1,.63-2.38c.21-.42.36-.86.58-1.4.65.59,1.5,0,2.13.6.07.06.39-.13.58-.24s.59-.38,1-.64a3.72,3.72,0,0,1,.24.84,3.34,3.34,0,0,0,1.1,2.21c.4.42,1.18.46,1.76.75a10.27,10.27,0,0,1,1.75,1c.17.12.14.54.14.82,0,1.35,0,2.71,0,4.06,0,2.74,0,5.49,0,8.23,0,1,0,1.91,0,2.86a6.2,6.2,0,0,1-.23,2.38A1.43,1.43,0,0,0,99.86,55l.87-.44c.06.09.17.17.17.25,0,.59,0,1.17,0,1.76a1.33,1.33,0,0,0,.51,1.23,1.76,1.76,0,0,1,.51,1.25c0,1.28-.12,2.55-.19,3.87,1,.37.71,1.25.84,2,.07.38.19.76.24,1.14a21.88,21.88,0,0,1,.4,3.29,14.29,14.29,0,0,1-.49,2.8.93.93,0,0,0,.58,1.14,14.26,14.26,0,0,1,1.6,1.09c-1.33.31-1.58,1-.78,2A8.51,8.51,0,0,0,105.24,77.18ZM35.89,30.76c2.09,0,4.17.21,6.26.19a20.52,20.52,0,0,0,3.47-.47m118.2,32c-.82,0-1.12-.58-1.26-1.24-.26-1.26-.45-2.54-.7-3.92m-42.81-8.06a2.4,2.4,0,0,0,.63-.83c.71-1.28,1.33-2.61,2.13-3.83M280.65,77.2a2.25,2.25,0,0,0,.05-.85c-.4-1.32-.84-2.64-1.26-3.95m48.39-13.6c-.13-.57-.26-1.13-.37-1.7,0-.18,0-.39-.06-.54m-88.29,17a11.78,11.78,0,0,1-.72-4.24,6.08,6.08,0,0,1,0-2M364,72.84a5,5,0,0,1-2.08-2.72,13.73,13.73,0,0,1-.78-4.63m54.23-8.81c-.51-1.36-.08-2.75,0-4.14a19.6,19.6,0,0,0,.09-3.06M100,36.08c0,1.35,0,2.71,0,4.06,0,2.74,0,5.49,0,8.23m2.77,37.81c-.37.09-.58.27-.42.66,0,.09.28.2.34.16C102.93,86.8,102.94,86.52,102.67,86.18ZM91.8,35.31c0,.45-.19.8.31,1.08C92.34,35.94,92.12,35.69,91.8,35.31Zm0,21.85-.25.05.17.39c.06,0,.17-.06.17-.08S91.85,57.28,91.82,57.16Z"/><path class="cls-2" d="M50.72,77.79a2.9,2.9,0,0,1,.62-.14c.58,0,1.16,0,1.73,0a4.86,4.86,0,0,1,1.07.16c.45.13.88.36,1.34.47a.78.78,0,0,0,.7-.12,2,2,0,0,1,2.49-.47,4.8,4.8,0,0,0,.56.09l.31-.8a2.92,2.92,0,0,0,2.53.3c.84-.22,1.7-.37,2.55-.51a2.89,2.89,0,0,1,2.32.37,2.41,2.41,0,0,0,2,.36,4.9,4.9,0,0,1,2.71.15c.14,1,.54,1.34,1.46,1.2.63-.1.82,0,.81.64a7.72,7.72,0,0,0,1,3.74,5.43,5.43,0,0,1,.43,2.88,1.17,1.17,0,0,1-.32.68A6.3,6.3,0,0,1,69.11,89a27.16,27.16,0,0,0-3.92-.33,16.39,16.39,0,0,0-2.58.38c-.43.08-.85.18-1.33.29l-.44-1c-.12,0-.23,0-.25,0-.71,1.37-2,1.07-3.07.87a4.69,4.69,0,0,0-2.35-.17.83.83,0,0,1-.54,0,5.28,5.28,0,0,0-2.27-.18,8.87,8.87,0,0,1-1.8-.35l-.67.76a2.8,2.8,0,0,0-2.76-.61A8,8,0,0,1,43,88.62a1.32,1.32,0,0,0-1.32.23c-.45.31-1,.43-1.58.83l1.75.46,0,.24c-.55,0-1.11,0-1.66-.11s-.46-.38-.57-.7A3.93,3.93,0,0,0,39,88.2a5.21,5.21,0,0,1-1.05-2.38,4.33,4.33,0,0,0-.53-1.16,4.14,4.14,0,0,0-.57-.8,7.44,7.44,0,0,0-1.5-1.56,2.05,2.05,0,0,1-1-1.73c-.1-.8-.16-1.6-.27-2.39s-.36-1.35-1.21-1.5c-.42-.07-.56-.39-.65-.78-.5-2-1-4-1.53-6.06a2.07,2.07,0,0,1-.12-.65,9.5,9.5,0,0,0-1-4.35,12.31,12.31,0,0,1-.65-4c0-.44,0-.88-.05-1.32a1.55,1.55,0,0,0-.21-.72,6,6,0,0,1-1.55-4.29,11.53,11.53,0,0,0-.16-1.3c-.1-.61-.19-1.22-.35-1.82a2,2,0,0,0-.48-1,3.4,3.4,0,0,1-1.27-3c0-.5,0-.85-.59-1-.19-.05-.32-.35-.44-.56a12.27,12.27,0,0,1-.92-3.26,3.26,3.26,0,0,1,.17-2.26c-.92-.8-.58-1.85-.53-2.82,0-.73.26-1.44.33-2.17.14-1.36-.13-1.76-1.53-2.42-.42.21-.25.53-.16.85s.1.53.16.85c-.18-.05-.28-.05-.29-.09-.36-1.22-.69-2.44-1.07-3.65A1.57,1.57,0,0,1,20.47,29L20,28.08c.54-1.1,1.51-.53,2.25-.55a2.63,2.63,0,0,1,2.07.66c.72-.05,1.28-.14,1.83-.12,2.09.05,4.17.21,6.26.19a20.52,20.52,0,0,0,3.47-.47c.43-.07.79-.16,1,.12l3.43-1.08c.45.63.67.8,1.14.82L41.11,27c.77-1,1.09-1,2.3,0l.24-.55h1.72l.2,1.47.3,0,.4-1.36a8.86,8.86,0,0,1,3.61,1.94h.22c.68-.12,1.19-.7,2-.54a5.18,5.18,0,0,0,2.13-.33c.89-.22,1.76-.5,2.63-.78.47-.15,1.1-.21,1.34-.54.37-.5.8-.42,1.25-.5a.45.45,0,0,0,.28-.15c.67-1,1.63-.51,2.39-.31a29.91,29.91,0,0,1,3.47,1.34,1,1,0,0,1,.3.13,30.89,30.89,0,0,0,3.41,2.73c.5.36.41,1.57.08,2.14-.73,1.28-1.74,2.42-2,3.95a2.73,2.73,0,0,1-1.88,2.1,17.82,17.82,0,0,1-4.06.92c-.56.11-1.16,0-1.73.12a9.07,9.07,0,0,0-1.27.43c-.49-1.44-1.85-1.1-3-1.28-.13,0-.36,0-.4.12-.36.82-1.25.51-1.82.88a1.64,1.64,0,0,1-1,.09c-.91-.08-.91-.09-1.23.78l-1-.63c-.49.3-1.21.11-1.59.76-.06.1-.32.09-.49.11s-.36-.06-.42,0c-1.08,1.13-2.42.49-3.65.55a2.5,2.5,0,0,1-.92-.28c-.4-.15-.79-.32-1.27-.51l-.26.77c-.29-.07-.71,0-.89-.22-.78-.83-1.87-.57-2.77-.7a3.78,3.78,0,0,0-2.7.63c-.59.4-1.4.44-1.91,1-.08.1-.26.1-.41.13-1,.17-1.11.24-1.08,1.22A22.7,22.7,0,0,0,32,45.38a1.88,1.88,0,0,0,.47,1,2.59,2.59,0,0,1,.6,1.48c.18,1,.48,2,.74,3,.17.64.4,1.26.53,1.9a2.15,2.15,0,0,0,3.14,1.59c.13-.06.27-.1.39-.15.91.79,1.55.91,2.53-.43.74.14,1.63,1.28,2.23-.38l.93.93a2.44,2.44,0,0,1,2.3-.87A38.25,38.25,0,0,0,52,52.93a23.14,23.14,0,0,1,6.22-.39A5.69,5.69,0,0,1,59.4,53a1.69,1.69,0,0,1,1.77-.48c1.16.18,2.33.2,3.5.33A5.47,5.47,0,0,1,67,54c.34.22.6.55,1,.75A3.17,3.17,0,0,1,69.4,57.5a5.44,5.44,0,0,0,.26,1.62c.75,1.77-1.11,4.15-2.86,4.27a6.1,6.1,0,0,1-4.5-1,1.75,1.75,0,0,0-.9-.29c-.68-.06-1.36.08-2-.46-.18-.16-.62,0-1.07,0,0-.63,0-1.24,0-1.84s-.42-1-1.12-.78a3.07,3.07,0,0,1-1.72.16.55.55,0,0,0-.42.06c-.85.64-1.83.36-2.75.41s-1.12.25-1.34,1a4.48,4.48,0,0,1-.2.74c-.16.27-.39.65-.64.7a19.21,19.21,0,0,0-2.74,1.19,3.2,3.2,0,0,1-2.18.33c-.88-.28-1.11,0-1.33,1a2.45,2.45,0,0,1-.51-.3c-.57-.58-.56-.59-1.24-.1a1,1,0,0,1-.27.2c-.37.11-.77.34-1.11.26s-.5-.62-.51-1.09c0-.84-.12-1.67-.17-2.51s-.29-1.14-1.25-.84a3.5,3.5,0,0,0-.55.25c0,.14-.05.25,0,.28,1,.8.88,2.11,1.34,3.15.08.17,0,.42-.05.63A19.64,19.64,0,0,0,39,67.05a5.66,5.66,0,0,0,.29,1.9,4.37,4.37,0,0,0,.54,1.3,3,3,0,0,1,.57,2.27.65.65,0,0,0,.16.39c.94,1.26,1.82,2.56,2.83,3.76a5.06,5.06,0,0,0,2.78,1.67,3.32,3.32,0,0,1,2.1,1.07c.47.6,1.31.46,2,.44a4.31,4.31,0,0,1,2.82.82,2.52,2.52,0,0,0-1.92-1.42c-.8-.14-1.63-.16-2.45-.35.64-.53,1-1.49,2-1.13a1,1,0,0,0-.24.35,1.48,1.48,0,0,0,0,.46c.18,0,.44-.06.53-.18C51.4,78,51.08,77.85,50.72,77.79ZM58.78,59.4c.15.61.21,1,.35,1.4a.51.51,0,0,0,.45.18.47.47,0,0,0,.24-.39A1.25,1.25,0,0,0,58.78,59.4Zm-23,10c-.81.61-.81.81-.1,1.55C36.25,70.54,35.77,70.05,35.74,69.44ZM30.09,57.18c-.49.47-.43.8,0,1.14C30.35,57.81,30.35,57.81,30.09,57.18ZM59.57,38.49c.19-.24.42-.41.39-.53a.56.56,0,0,0-.41-.35c-.16,0-.32.19-.48.29ZM69,79.39a3.19,3.19,0,0,0-.35-.3s-.17.08-.17.09a.86.86,0,0,0,.18.34S68.78,79.46,69,79.39ZM44.94,39l0,.3.55-.15a.52.52,0,0,0,0-.18A5.44,5.44,0,0,0,44.94,39Zm7.22,49-.1.24.41.15.07-.16Z"/><path class="cls-3" d="M181.34,60.08A7.48,7.48,0,0,1,178.56,62a2.13,2.13,0,0,0-1.3,1.62"/><path class="cls-2" d="M147.61,46.42c-.26.25-.78.38-.43,1l1-.15"/><path class="cls-2" d="M131.67,58.68a1.59,1.59,0,0,1,1.77-.62,2,2,0,0,0,2.73-1"/><path class="cls-3" d="M295.85,72.63c.08-.58-.37-.63-.86-.79-.11-1.51-.22-3-.32-4.56"/><path class="cls-3" d="M342.13,44.21a7.74,7.74,0,0,1,2.83.19,1.83,1.83,0,0,0,1.86-.28.66.66,0,0,1,.5-.15,12.63,12.63,0,0,1,2,.48c.21.07.36.42.47.67a12,12,0,0,1,.36,1.19L351.24,45c1.05,1,2.24.14,3.36.59.14-1.28.5-2.37.64-3.58a1.9,1.9,0,0,0-1.3.84,6.22,6.22,0,0,1-.52-1.21.94.94,0,0,0-.78-.83c.2-.87.32-1.7.58-2.48a1.72,1.72,0,0,1,1.21-1.29,2.77,2.77,0,0,0,1.89-1.54,1.75,1.75,0,0,1,2.59-.77,4.27,4.27,0,0,1,.87.47,1.53,1.53,0,0,0,1.83.26c.14.12.32.2.34.31a1.76,1.76,0,0,0,1.39,1.49c.21.05.42.41.5.66a9.42,9.42,0,0,1,.3,1.4,18.41,18.41,0,0,0,1.71,5.42c.47.95.86,1.07,1.87.68l.5-.21a1.5,1.5,0,0,1,1.59,0,3.33,3.33,0,0,1,.56-.63,1.5,1.5,0,0,1,.76-.28c1.09-.06,2.19,0,3.28-.11a10.38,10.38,0,0,1,4,.52,1.78,1.78,0,0,1,1.36,1.43,1.06,1.06,0,0,0,.5.64,3.47,3.47,0,0,1,2.09,3.28,1.5,1.5,0,0,0,.68,1.38,1.73,1.73,0,0,1-.06,2.95,13.94,13.94,0,0,1-2.21.93l-1.21.47a5.14,5.14,0,0,1-1.44.46c-1.34.06-2.69,0-4,0-1,0-1.94-.08-3-.12-.11-.19-.29-.49-.48-.79-.47-.72-.66-.82-1.45-.56a10.71,10.71,0,0,0-1.69.77,1,1,0,0,0-.55,1.21A9.48,9.48,0,0,0,367.2,58a29.22,29.22,0,0,1,1.2,4.88c.16,1,.51,1.9.73,2.86s.57,2.21-.12,3.3a1.52,1.52,0,0,0-.05,1c.13.83.28,1.66.49,2.48a3.33,3.33,0,0,0,.56,1.17,5.67,5.67,0,0,1,1.13,3,7.3,7.3,0,0,0,.86,2.7,5.42,5.42,0,0,1,.46,1.68c.15.9.25,1.81.37,2.72.24,2-.65,3.09-2.67,3.45a3.79,3.79,0,0,1-4.64-2.7A32.49,32.49,0,0,0,364,81.65a9.13,9.13,0,0,1-.89-2.45,12.64,12.64,0,0,1-.08-3.48c.25-1.71.6-3.46-.11-5.16a.43.43,0,0,1,0-.22,2.53,2.53,0,0,0-1.45-2.61,1.66,1.66,0,0,1-.54-.77,15.11,15.11,0,0,1-.47-1.44c-.19-.61-.68-1.15-.42-1.87.05-.14-.11-.34-.15-.52-.13-.56-.25-1.13-.37-1.69a2.45,2.45,0,0,0-.05-.55c-.5-1.14.09-2,.71-2.88a1.42,1.42,0,0,0,.32-1.31,4.58,4.58,0,0,0-.15-.64,4.41,4.41,0,0,1-.55-2.63c.06-.29-.21-.65-.41-1.17a4.83,4.83,0,0,0-.53.71.83.83,0,0,1-.94.58c-.4,0-.55-.32-.6-.68-.08-.6-.41-.73-1-.69a9.57,9.57,0,0,0-2.72.11c-.22.08-.56-.1-.82-.22-.93-.42-.93-.43-1.48.51,0,0-.06,0-.17.11a4.69,4.69,0,0,1-.21-.46,1.07,1.07,0,0,0-1.15-.82,6.19,6.19,0,0,1-2.84-.71c-1-.47-2-.72-3.07-1.1A4.11,4.11,0,0,1,343,49c-.05,0-.08-.11-.12-.18l-2.22-3.54,1.32-1.63.22.07c0,.16,0,.33,0,.49a2.05,2.05,0,0,0-.16.38c0,.22-.14.54,0,.66s.51.19.76-.24Zm16,3.54c-.26.29-.49.44-.54.63-.1.39.39,1,.67.92s.54-.47.52-.69S358.44,48.11,358.15,47.75Zm11.51,38.38c-.49-.58-.92-1.11-1.36-1.62C367.93,85.5,368.29,86,369.66,86.13Zm-3.93-9.38c0-.65-.29-.92-.71-.84s-.53.43-.36,1Zm6-24c.5.09.87,0,1-.5,0-.09-.16-.37-.25-.38C372,51.88,371.73,52.14,371.75,52.77Zm11.32.5.17-.26a1.63,1.63,0,0,0-.41-.1c-.11,0-.28.12-.29.21a.37.37,0,0,0,.21.29C382.83,53.44,383,53.32,383.07,53.27Z"/><path class="cls-3" d="M265,69.62c-.45-.61-1-.5-1.58-.47l-6,.33"/><path class="cls-3" d="M408.75,57.36a2,2,0,0,1-1.21,1.18,2.83,2.83,0,0,0-1.76,1.69"/><path class="cls-3" d="M450.16,52.41a2.61,2.61,0,0,1,.68-2.32c.09-.08.12-.24.26-.54"/><path class="cls-2" d="M105.24,77.18c-.11,1.16-1.18,1.15-1.94,1.52.15.53.39.63.83.46s.89-.26,1.52-.44a9.34,9.34,0,0,1,.12,1.48,7.84,7.84,0,0,1-.3,1.73,6.12,6.12,0,0,0,.28,3.09,4.21,4.21,0,0,0,.49-2.07c0-.46,0-.46.53-.79a3.52,3.52,0,0,1,.28,3.13,2.82,2.82,0,0,0-.47,1.66c.12,1-.25,1.4-1.22,1.57-.21,0-.43,0-.62.08-.44,1.76-1.29,1.6-3.12,1.45-.49,0-.94-.32-1.46,0a.66.66,0,0,1-.6-.1,3.77,3.77,0,0,0-2.68-1.14c0-.34,0-.55,0-.77a.62.62,0,0,0-.55-.7c-1.22-.21-1.52-1.09-1.64-2.16-.06-.53-.26-1-.36-1.58a2.11,2.11,0,0,1,0-1,2.28,2.28,0,0,0-.09-1.71c-.26-.64-.42-1.19.12-1.56-.29-1.35-.59-2.55-.76-3.77a1.72,1.72,0,0,1,.47-1,3.78,3.78,0,0,1,.83-.6c-.93-1-1-2.24-1.4-3.42a4.34,4.34,0,0,0-.79-1.65,3.09,3.09,0,0,1-.5-1.52c-.23-1.7-.41-3.41-.6-5.11-.13-1.13-.25-2.26-.37-3.39-.27-2.58-.59-5.15-.8-7.74-.08-.93.15-1.88.16-2.83A3.82,3.82,0,0,0,90.19,46c-.24-.39,0-1.06,0-1.61a9.84,9.84,0,0,0-.43-3.88,5.86,5.86,0,0,1-.24-1.83c0-.84,0-1.68,0-2.51a3.17,3.17,0,0,1,.25-.83c.09-.28.32-.57.27-.82a3.76,3.76,0,0,1,.63-2.38c.21-.42.36-.86.58-1.4.65.59,1.5,0,2.13.6.07.06.39-.13.58-.24s.59-.38,1-.64a3.72,3.72,0,0,1,.24.84,3.34,3.34,0,0,0,1.1,2.21c.4.42,1.18.46,1.76.75a10.27,10.27,0,0,1,1.75,1c.17.12.14.54.14.82,0,1.35,0,2.71,0,4.06,0,2.74,0,5.49,0,8.23,0,1,0,1.91,0,2.86a6.2,6.2,0,0,1-.23,2.38A1.43,1.43,0,0,0,99.86,55l.87-.44c.06.09.17.17.17.25,0,.59,0,1.17,0,1.76a1.33,1.33,0,0,0,.51,1.23,1.76,1.76,0,0,1,.51,1.25c0,1.28-.12,2.55-.19,3.87,1,.37.71,1.25.84,2,.07.38.19.76.24,1.14a21.88,21.88,0,0,1,.4,3.29,14.29,14.29,0,0,1-.49,2.8.93.93,0,0,0,.58,1.14,14.26,14.26,0,0,1,1.6,1.09c-1.33.31-1.58,1-.78,2A8.51,8.51,0,0,0,105.24,77.18ZM35.89,30.76c2.09,0,4.17.21,6.26.19a20.52,20.52,0,0,0,3.47-.47m118.2,32c-.82,0-1.12-.58-1.26-1.24-.26-1.26-.45-2.54-.7-3.92m-42.81-8.06a2.4,2.4,0,0,0,.63-.83c.71-1.28,1.33-2.61,2.13-3.83M280.65,77.2a2.25,2.25,0,0,0,.05-.85c-.4-1.32-.84-2.64-1.26-3.95m48.39-13.6c-.13-.57-.26-1.13-.37-1.7,0-.18,0-.39-.06-.54m-88.29,17a11.78,11.78,0,0,1-.72-4.24,6.08,6.08,0,0,1,0-2M364,72.84a5,5,0,0,1-2.08-2.72,13.73,13.73,0,0,1-.78-4.63m54.23-8.81c-.51-1.36-.08-2.75,0-4.14a19.6,19.6,0,0,0,.09-3.06M100,36.08c0,1.35,0,2.71,0,4.06,0,2.74,0,5.49,0,8.23m2.77,37.81c-.37.09-.58.27-.42.66,0,.09.28.2.34.16C102.93,86.8,102.94,86.52,102.67,86.18ZM91.8,35.31c0,.45-.19.8.31,1.08C92.34,35.94,92.12,35.69,91.8,35.31Zm0,21.85-.25.05.17.39c.06,0,.17-.06.17-.08S91.85,57.28,91.82,57.16Z"/></g></g></svg>