<svg xmlns="http://www.w3.org/2000/svg" viewBox="0 0 281.08 333.41"><defs><style>.cls-1{fill:#ececec;}.cls-2{fill:#c0bfbf;}.cls-3{fill:#969696;}.cls-4{opacity:0.79;}.cls-11,.cls-5{fill:#231f20;}.cls-10,.cls-6{fill:#fedd10;}.cls-11,.cls-12,.cls-6{stroke:#231f20;stroke-miterlimit:10;}.cls-6{stroke-width:0.23px;}.cls-12,.cls-7{fill:#fff;}.cls-8{opacity:0.81;}.cls-9{fill:#f69320;}.cls-11,.cls-12{stroke-width:0.36px;}</style></defs><g id="Layer_2" data-name="Layer 2"><g id="Finish"><path class="cls-1" d="M150.59,330.7c-3.65,2.36-7.83,2.39-11.94,2.71l-16.52-2.76-17.52-4.2c-5.43-1.72-10.8-3.69-16.54-4.21-5.71-1.63-11.6-1.37-17.45-1.57-2.93-.74-5.75-2-8.86-1.81l-8.67-3.6c-4.67-3.26-6.18-7.58-4.38-13a87,87,0,0,0,4-17.45c1.79-4.73.6-10.78,4.6-14.3,3.4-3,3.49-5.41,1.56-8.78A2.1,2.1,0,0,0,60,259c-1.23-4.4-.49-8.65.94-12.86,1.81-5.33.26-9.6-4.14-12.95a77.37,77.37,0,0,1,.25-15.81l3.31-18.14a43.62,43.62,0,0,0,1.28-16.44c0-6.16-2.94-11.58-4.32-17.39l-3-11c-.15-2.15-.29-4.29-.44-6.43s-.05-4.35-.08-6.52c-.24-15.54-5.67-30.13-8.28-45.24V73.12c-4.87,10.84-5.08,20.4-1.94,30.16l.18,1.89a4.07,4.07,0,0,0,.55,4.34q1.08,6,2.15,12c-2.69,1.11-3-.82-3.53-2.65-.85-2.64-.71-5.76-4-8.48-.45,8,.9,15.75-4.53,21.84l-6.55-2a35,35,0,0,0-8.83-5.34L5,113.8c-5.6-4.47-6-9.55-3.57-16.28C10.14,73.37,18.65,49.19,34.7,28.6l3.18-3.08c4.73-3.46,10.3-5.23,15.48-7.8C59.08,16,64.81,14.31,70.5,12.48S82,9.27,87,5.8C90.67,4.21,94.36,2.67,98,1c1.87-.84,3.66-1.89,5.39.2.84,3,3.1,4.82,5.6,6.39,2.41,1.74,4.64,3.77,7.57,4.65a36,36,0,0,0,24.24,5.94c-2.83-1-2.83-1-6.62-3.8,20.7-2.24,41.27-1.08,58.26-13.79l.19.2c2.24,5.75,7.46,4.63,12,5.17l3,.48c4.16,6.38,10.11,10.23,17.2,12.79,6,2.16,6.27,3.15,3.2,8.76-4.32,7.89-7.69,16.07-9.08,25a25.72,25.72,0,0,1-12.14,18.66c-7.79,4.84-11.73,12.8-16.54,20a10.82,10.82,0,0,0-1.43,8.92c4.18,16.13,5.34,32.59,5.94,49.2a112.78,112.78,0,0,0,1.81,17.87c2.27,11.39,6.61,21.94,11.17,32.45s8.23,21.4,14.37,31.16l.73,3-4.26,1-2.48-3.07c-.08-3-2.14-5-3.86-7-2.59-3.12-5.06-6.36-6.4-10.15-3.17-8.93-8.09-17-11.73-25.73-3.16-7.55-6.72-15.24-7.07-23.34-.33-7.87-3.43-14.43-6.28-21.28-.61-1.48-1.39-3.31-3.45-2.9s-2.24,2.24-2.4,3.89c-.32,3.25.14,6.75-.88,9.74-2.83,8.32-.81,15.84,2.84,23.2,6.56,13.19,13.14,26.36,19.91,39.44,2.14,4.13,3.08,9.09,7.43,11.87q1.76,3.73,3.5,7.49c-.72,1.92,1.4,3.82,0,5.87-.53-.1-1.16,0-1.52-.33a9.66,9.66,0,0,1-2.31-2.29c-9.18-14.6-21.4-27.3-27.6-43.79-.41-1.09-.69-2.84-2.42-2.35s-1.08,2-1.11,3.27c-.16,6.6.57,13.12,3.18,19.17,5.43,12.57,5.84,26.75,14.18,38.57,8.55,12.11,18.41,23.48,24.4,37.31.86,2,4.27,3.87,1.82,6-2.61,2.27-5-.55-7-2.31a13.42,13.42,0,0,1-2-2.58c-5.25-7.87-10.56-15.71-15.71-23.65-10.41-16-21.67-31.44-29.55-49.07-4.22-9.42-7.42-19.34-12.76-28.27-1.21-2-2-4.73-5-3.82-3.21,1-8.83,12.79-8,16.34,4.79,20.31,14.16,38.93,25.65,55.77,7.63,11.18,17.25,21.51,26.17,32.06,8.36,9.9,17.3,19.23,26.17,28.65l-6.69,3.19c-5.49,1-11,.51-16.46-.05-4.53-2-9.51-2.11-14.22-3.33a9.76,9.76,0,0,0-2.53-5.34,227.77,227.77,0,0,1-18.6-24.8c-8.86-13.77-17.63-27.53-24.59-42.38a20.27,20.27,0,0,0-4.22-6.3c-2.94-2.79-4.62-1.33-5.34,1.75a10,10,0,0,0,.55,4.78,127.49,127.49,0,0,0,13.18,30.44,82.18,82.18,0,0,1,11,31.63C147.24,318.11,146.88,324.88,150.59,330.7Z"/><path class="cls-2" d="M235.87,284.84q1.77,8.7,3.53,17.41a3.94,3.94,0,0,0-.22,1,4.94,4.94,0,0,1-4.14-3.83c-.27-.86-.55-1.91-1.72-1.63s-1,1.3-1,2.23c-.24,4.47-1,9,1.55,13.15-7.9,0-13.32,5.37-19.55,9-8.87-9.42-17.81-18.75-26.17-28.65-8.92-10.55-18.54-20.88-26.17-32.06-11.49-16.84-20.86-35.46-25.65-55.77-.84-3.55,4.78-15.37,8-16.34,3-.91,3.83,1.79,5,3.82,5.34,8.93,8.54,18.85,12.76,28.27,7.88,17.63,19.14,33.05,29.55,49.07,5.15,7.94,10.46,15.78,15.71,23.65a13.42,13.42,0,0,0,2,2.58c2,1.76,4.37,4.58,7,2.31,2.45-2.15-1-4-1.82-6-6-13.83-15.85-25.2-24.4-37.31-8.34-11.82-8.75-26-14.18-38.57-2.61-6.05-3.34-12.57-3.18-19.17,0-1.25-.48-2.83,1.11-3.27s2,1.26,2.42,2.35c6.2,16.49,18.42,29.19,27.6,43.79a9.66,9.66,0,0,0,2.31,2.29c.36.29,1,.23,1.52.33,1.38-2-.74-3.95,0-5.87,2.3.31,3.42,2.08,4.23,3.86a33.33,33.33,0,0,0,6.79,9.74c4.49,4.45,7,8.48,2.65,14.53-1.63,2.29,3,10.7,6.11,11.71,4.92,1.61,1-4.27,3.77-4.6a2.54,2.54,0,0,0,.51-.17Z"/><path class="cls-3" d="M233.84,313.13c-2.57-4.14-1.79-8.68-1.55-13.15.05-.93-.08-2,1-2.23s1.45.77,1.72,1.63a4.94,4.94,0,0,0,4.14,3.83C240.11,308,240.42,312.41,233.84,313.13Z"/><path class="cls-2" d="M150.59,330.7c-3.71-5.82-3.35-12.59-4.25-19a82.18,82.18,0,0,0-11-31.63,127.49,127.49,0,0,1-13.18-30.44,10,10,0,0,1-.55-4.78c.72-3.08,2.4-4.54,5.34-1.75a20.27,20.27,0,0,1,4.22,6.3c7,14.85,15.73,28.61,24.59,42.38a227.77,227.77,0,0,0,18.6,24.8,9.76,9.76,0,0,1,2.53,5.34l-3.47.87c-7,.1-12.7,3.62-18.6,6.69Z"/><path class="cls-2" d="M222.64,228.94l-.54,2.38c-6.14-9.76-9.82-20.66-14.37-31.16s-8.9-21.06-11.17-32.45a112.78,112.78,0,0,1-1.81-17.87c-.6-16.61-1.76-33.07-5.94-49.2a10.82,10.82,0,0,1,1.43-8.92c4.81-7.24,8.75-15.2,16.54-20A25.72,25.72,0,0,0,218.92,53c1.39-8.94,4.76-17.12,9.08-25,3.07-5.61,2.77-6.6-3.2-8.76-7.09-2.56-13-6.41-17.2-12.79,4.21-1.29,7.72,1.36,11.51,2.21,13.27,3,26.21,6.87,35.31,18.1a4.26,4.26,0,0,0,4.35,1.71c.16,5.56.07,11.16,2.63,16.33,2.45,5.76,2,12.45,5.69,17.8l5.22,16.18,3.33,8.78a31,31,0,0,0,2.82,9.21c.67,2.44,1.25,4.91,2,7.32,1.06,3.3,1,6.11-2.85,7.49a3.21,3.21,0,0,0-2.09,2.31h0c-5-1.2-8.5,3.53-13.25,3.17,1.13-17.77,3.2-35.53,1.07-53.35-.8-6.71-3.56-12.82-6.48-20.46-2,6.07-.17,10.34.25,14.53,1.36,13.77-4.43,26.49-5.26,39.91-.13,2-1.75,3.94-2.59,6-2.58,6.18-6.61,11.76-7.71,18.55a.53.53,0,0,1,.14.68c-11.35-.69-11.35-.69-9.83-8.73a9.22,9.22,0,0,0,.24-1c3.9-4.64,3.95-10.07,3.23-15.65.08-.7.16-1.39.25-2.09,2.36-1.49,3.65-4.43,1.68-5.85-3.25-2.33-1.7-4.59-1.15-6.9,1.39-5.81,1.48-11.6.69-18.46-2.32,2.92-2.45,5.45-3.09,7.85-2,7.67-.44,15.62-1.95,23.32q-1.31,8.07-2.6,16.16c-3.33,4.22-6.8,8.34-9.93,12.7-1.33,1.84-.95,4.25,0,6.28,1.41,2.92,3,5.75,4.54,8.62,0,2.94.09,5.87.13,8.81,1.78,5.64,1.45,12-1.22,16.38-3,4.85-3.82,9.74-4.44,14.77-.46,3.72-2,7.95,1.05,11.5q.75,5.49,1.51,11c-2.86-.75-3.58-3-4.55-5.52-2.28-5.9-2.79-12.43-6.41-17.85-.7-1-1-2.64-2.64-2.22-1.83.49-1.7,2.11-1.32,3.6,1.62,6.32,2.47,12.8,4.83,19C214.62,208.71,220.27,218.19,222.64,228.94ZM251.25,43c-1.45,2-.66,4.23-.78,6.31-.26,4.53.34,9.08-.73,13.6-3.26,13.89-6.41,27.82-9.56,41.75,0,.14.46.41.71.61C250.56,94.52,257.34,54.13,251.25,43Zm-9,2.31c-5.46,7.57-3.59,14.57-2.54,21.54,1.19-.44-.12-2.62,2-2.66.13,2.67.26,5.25.4,8.17C244.8,63.55,243,55.11,242.24,45.3Z"/><path class="cls-3" d="M204.2,230.05c.36-2.43.2-5.21,3.91-2.07,2.26,1.92,5.29,2.93,8,4.35l2.48,3.07c1.28,3.74,2.58,7.47,7.51,7.62,1.22,2.55,3.11,4.79,3.45,7.72-.88,6-1.16,12,1.31,17.7.31,1.39.62,2.78.92,4.17a2.54,2.54,0,0,1-.51.17c-2.76.33,1.15,6.21-3.77,4.6-3.07-1-7.74-9.42-6.11-11.71,4.32-6.05,1.84-10.08-2.65-14.53a33.33,33.33,0,0,1-6.79-9.74c-.81-1.78-1.93-3.55-4.23-3.86Q206,233.79,204.2,230.05Z"/><path class="cls-2" d="M46.46,121.55c2.55,8.46-.05,11.65-9.92,12.18l-2.1-1.47c5.43-6.09,4.08-13.82,4.53-21.84,3.25,2.72,3.11,5.84,4,8.48C43.51,120.73,43.77,122.66,46.46,121.55Z"/><path class="cls-2" d="M45.52,96.18c-2.29,1.92-1,4.83-1.94,7.1C40.44,93.52,40.65,84,45.52,73.12Z"/><path class="cls-1" d="M241.57,122.2c1.1-6.79,5.13-12.37,7.71-18.55.84-2,2.46-3.92,2.59-6,.83-13.42,6.62-26.14,5.26-39.91-.42-4.19-2.21-8.46-.25-14.53,2.92,7.64,5.68,13.75,6.48,20.46,2.13,17.82.06,35.58-1.07,53.35l-3.16,1.52C253.33,120,247.56,121.64,241.57,122.2Z"/><path class="cls-3" d="M222.64,228.94c-2.37-10.75-8-20.23-11.88-30.4-2.36-6.19-3.21-12.67-4.83-19-.38-1.49-.51-3.11,1.32-3.6,1.59-.42,1.94,1.17,2.64,2.22,3.62,5.42,4.13,12,6.41,17.85,1,2.53,1.69,4.77,4.55,5.52,1.65,1.87,1,5,3.57,6.36a14.13,14.13,0,0,0,2,8.76c.33,1.94.58,3.9,1,5.82C228.93,229.1,228.87,229.19,222.64,228.94Z"/><path class="cls-1" d="M251.25,43c6.09,11.14-.69,51.53-10.36,62.27-.25-.2-.74-.47-.71-.61,3.15-13.93,6.3-27.86,9.56-41.75,1.07-4.52.47-9.07.73-13.6C250.59,47.22,249.8,45,251.25,43Z"/><path class="cls-1" d="M242.24,45.3c.71,9.81,2.56,18.25-.18,27.05-.14-2.92-.27-5.5-.4-8.17-2.08,0-.77,2.22-2,2.66C238.65,59.87,236.78,52.87,242.24,45.3Z"/><g class="cls-4"><path class="cls-5" d="M196.7,261.14q-55,1.73-110,0V235h110Z"/><path class="cls-6" d="M98.12,252.75a.58.58,0,0,1,.14,0h.39l.24,0c.1,0,.2.09.3.11a.18.18,0,0,0,.16,0c.16-.21.35-.18.56-.1l.13,0a1.57,1.57,0,0,1,.07-.18.66.66,0,0,0,.57.08,5.4,5.4,0,0,1,.58-.11.64.64,0,0,1,.52.09.52.52,0,0,0,.45.09,1.15,1.15,0,0,1,.61.05c0,.23.12.31.33.28s.19,0,.19.15a1.85,1.85,0,0,0,.21.86,1.18,1.18,0,0,1,.1.66.24.24,0,0,1-.07.16,1.4,1.4,0,0,1-1.33.48,5.27,5.27,0,0,0-.89-.09,2.87,2.87,0,0,0-.58.07l-.3.06-.1-.22h-.06c-.16.31-.44.23-.69.18a1.2,1.2,0,0,0-.53-.05.13.13,0,0,1-.12,0,1.14,1.14,0,0,0-.52,0,1.73,1.73,0,0,1-.4-.09l-.15.17a.64.64,0,0,0-.63-.15,1.73,1.73,0,0,1-.93,0,.3.3,0,0,0-.3.05c-.1.07-.23.09-.35.18l.39.11a.13.13,0,0,1,0,.06l-.37,0c-.09,0-.11-.09-.13-.17a1,1,0,0,0-.14-.31,1.24,1.24,0,0,1-.24-.55,1.07,1.07,0,0,0-.12-.27,1.18,1.18,0,0,0-.13-.18,1.47,1.47,0,0,0-.34-.36.5.5,0,0,1-.22-.4c0-.18,0-.37-.06-.55s-.08-.31-.27-.34-.13-.1-.15-.19c-.11-.46-.23-.92-.34-1.38a.8.8,0,0,1,0-.15,2.27,2.27,0,0,0-.22-1,2.89,2.89,0,0,1-.15-.91c0-.1,0-.2,0-.3a.48.48,0,0,0-.05-.17,1.39,1.39,0,0,1-.35-1c0-.1,0-.2,0-.3s0-.27-.08-.41a.59.59,0,0,0-.11-.24.78.78,0,0,1-.29-.68c0-.11,0-.19-.13-.23s-.08-.08-.1-.13a2.72,2.72,0,0,1-.21-.74.69.69,0,0,1,0-.51c-.21-.19-.13-.42-.12-.64s.06-.33.07-.5,0-.4-.34-.55c-.1,0-.06.12,0,.19a1,1,0,0,1,0,.2l-.07,0c-.08-.28-.15-.56-.24-.84a.36.36,0,0,1,.11-.42,1.8,1.8,0,0,0-.11-.2c.12-.25.34-.12.51-.13a.63.63,0,0,1,.47.16l.41,0c.47,0,.94.06,1.41.06a5.18,5.18,0,0,0,.79-.11c.1,0,.18,0,.22,0l.78-.24c.1.15.15.18.26.19l-.07-.15c.17-.23.24-.23.51,0l.06-.12h.39c0,.12,0,.23,0,.34H97l.09-.31a2.15,2.15,0,0,1,.82.45h0c.16,0,.27-.16.46-.12a1.21,1.21,0,0,0,.49-.07c.2-.05.39-.11.59-.18s.25,0,.3-.12a.33.33,0,0,1,.28-.11s.06,0,.07,0c.15-.23.37-.11.54-.06a5.75,5.75,0,0,1,.78.31.11.11,0,0,1,.07,0,7.82,7.82,0,0,0,.77.63c.11.08.09.36,0,.49a2.72,2.72,0,0,0-.45.9.61.61,0,0,1-.42.48,4.23,4.23,0,0,1-.92.21c-.13,0-.26,0-.39,0a1.43,1.43,0,0,0-.29.1c-.11-.33-.42-.26-.67-.3,0,0-.09,0-.09,0-.08.19-.29.12-.41.2a.33.33,0,0,1-.22,0c-.21,0-.21,0-.28.18l-.22-.15c-.1.07-.27,0-.35.17s-.08,0-.12,0-.08,0-.09,0c-.24.25-.55.1-.83.12a1,1,0,0,1-.2-.07L96.1,244l-.06.18c-.06,0-.16,0-.2-.06s-.42-.13-.62-.16a.88.88,0,0,0-.62.14c-.13.09-.31.09-.43.23s-.06,0-.09,0c-.23,0-.25,0-.24.27a4.21,4.21,0,0,0,0,.62.49.49,0,0,0,.11.23.69.69,0,0,1,.14.33c0,.23.1.46.16.68s.09.29.12.44a.5.5,0,0,0,.71.37l.09,0c.2.18.35.21.57-.1.17,0,.37.3.5-.08l.21.22a.55.55,0,0,1,.52-.19,9.19,9.19,0,0,0,1.39-.09,5.05,5.05,0,0,1,1.4-.08,1.12,1.12,0,0,1,.27.1.37.37,0,0,1,.4-.1c.26,0,.52,0,.79.08a1.36,1.36,0,0,1,.52.27,1.81,1.81,0,0,0,.21.18.77.77,0,0,1,.34.64,1.5,1.5,0,0,0,0,.37.79.79,0,0,1-.64,1,1.38,1.38,0,0,1-1-.24.43.43,0,0,0-.2-.07.62.62,0,0,1-.45-.11s-.14,0-.24,0,0-.28,0-.42-.1-.23-.25-.18a.74.74,0,0,1-.39,0,.12.12,0,0,0-.1,0c-.19.15-.41.08-.62.09s-.25.05-.3.22a.84.84,0,0,1-.05.17c0,.06-.08.15-.14.16a4.3,4.3,0,0,0-.62.27.68.68,0,0,1-.49.06c-.2-.06-.25,0-.3.22,0,0-.09,0-.12-.07s-.12-.14-.28,0,0,0-.06.05a.56.56,0,0,1-.25,0c-.11,0-.11-.14-.11-.25s0-.38,0-.57-.07-.26-.28-.2l-.13.06s0,.06,0,.06c.23.19.2.49.3.73,0,0,0,.09,0,.14s-.11.39-.13.58a1.31,1.31,0,0,0,.07.44,1.11,1.11,0,0,0,.12.3.69.69,0,0,1,.13.52s0,.06,0,.09c.21.29.41.59.64.87a1.22,1.22,0,0,0,.62.39.73.73,0,0,1,.48.25c.1.14.29.11.44.11a.94.94,0,0,1,.64.2.57.57,0,0,0-.43-.33c-.18,0-.37-.05-.56-.1.15-.11.22-.33.46-.25a.35.35,0,0,0-.05.08s0,.07,0,.11.1,0,.12,0S98.2,252.77,98.12,252.75Zm1.82-4.19a1.59,1.59,0,0,0,.08.33s.07.05.1,0,.06-.06,0-.09A.3.3,0,0,0,99.94,248.56Zm-5.21,2.23c-.18.13-.18.18,0,.35C94.85,251,94.74,250.93,94.73,250.79ZM93.45,248c-.11.11-.09.18,0,.27C93.51,248.12,93.51,248.12,93.45,248Zm6.66-4.19c0-.06.1-.1.09-.12s-.06-.08-.09-.08-.07,0-.11.06Zm2.12,9.4-.08-.07,0,0a.2.2,0,0,0,0,.08Zm-5.42-9.31s0,0,0,.07l.12,0v0Zm1.63,11.22,0,0,.09,0s0,0,0,0Z"/><path class="cls-7" d="M139.69,256.94a.86.86,0,0,1-.83-.34c-.16-.26-.38-.47-.54-.73a1.7,1.7,0,0,1-.18-.44A2.92,2.92,0,0,0,138,255a1.21,1.21,0,0,1-.08-.82.83.83,0,0,0,0-.35c-.08-.35-.18-.69-.25-1a.32.32,0,0,0-.3-.31s0,0-.08-.05.08-.15.19-.12c.32.08.43,0,.48-.35a2.36,2.36,0,0,0,.08-.45c0-.29-.07-.59-.11-.88,0,0,0-.1,0-.15l-.09-1v0c.15-.3,0-.53-.16-.76a1.47,1.47,0,0,1-.14-.92,1,1,0,0,0,0-.35.5.5,0,0,1,.31-.59c.13-.08.21,0,.31.05a.31.31,0,0,0,0-.43.8.8,0,0,0-.73-.23,2.44,2.44,0,0,0-.26.06c-.2.05-.29.13-.25.38a5.21,5.21,0,0,1,0,.79v.37c-.12,0-.16,0-.14-.13a.61.61,0,0,0-.11-.43.42.42,0,0,1-.05-.22,1.38,1.38,0,0,0-.08-.67c-.24.11-.28.18-.28.41a4.07,4.07,0,0,1-.05.61.79.79,0,0,1-.09.19.46.46,0,0,1-.11-.43c0-.06,0-.12,0-.17s0-.28-.1-.32a.56.56,0,0,0-.33,0c-.07,0-.12.09-.18.13a.58.58,0,0,0-.26.62,6.85,6.85,0,0,1,0,.79.81.81,0,0,1,0,.27s-.09.09-.14.12l-.31.11c-.35-.21-.35-.21-.36-.8a.9.9,0,0,0-.23.19,1.28,1.28,0,0,0-.33.82,2.53,2.53,0,0,1,0,.38.34.34,0,0,1-.05.17,1.66,1.66,0,0,0-.3.61s0,0,0,.07c-.2.15-.18.37-.17.58s0,.32.07.48a1,1,0,0,0,.21.51,1.19,1.19,0,0,1,.17.36,1,1,0,0,0,.13.32,1.77,1.77,0,0,1,.31,1c0,.21,0,.41,0,.61a.64.64,0,0,1-.26.62.87.87,0,0,1-.76.13,1,1,0,0,1-.78-.67,2.19,2.19,0,0,0-.31-.46,1.38,1.38,0,0,1-.1-1.29A.83.83,0,0,0,132,252a2.62,2.62,0,0,0-.1-.88c-.05-.26-.05-.53-.08-.79a.76.76,0,0,0-.11-.34s0,0,0,.08a2.76,2.76,0,0,0,0,.7,1.63,1.63,0,0,1-.14.9,2.77,2.77,0,0,0,0-.41,1.79,1.79,0,0,0-.1-.62,3.51,3.51,0,0,1-.12-.78.54.54,0,0,1,0-.1l.23,0c0-.21-.14-.32-.18-.51s.15-.19,0-.31c0-.33-.18-.67,0-1a.39.39,0,0,0,0-.24c-.06-.28-.05-.31.21-.46.12.05.12.16.11.26,0,.27,0,.54,0,.81a2.72,2.72,0,0,0,0,.28c0,.1,0,.19.2.2a2.21,2.21,0,0,0,.05-.25c0-.38,0-.75-.05-1.13a.61.61,0,0,0-.54-.58c-.13,0-.16,0-.16.14,0,.36,0,.72,0,1.08a1.92,1.92,0,0,1-.09.32H131l0-.32a.24.24,0,0,0-.16-.26.41.41,0,0,1-.24-.46c0-.13,0-.27,0-.4a.3.3,0,0,0-.41.3.25.25,0,0,1-.12.25c-.21.12-.22.22-.08.42,0,0,0,0,0,.05a.23.23,0,0,1-.28.16c-.06-.33,0-.66-.07-1-.06.07-.12.09-.12.13,0,.2-.09.4-.11.6a1.73,1.73,0,0,1-.05.45c-.17-.08-.14-.4-.37-.26-.18-.23-.06-.5-.15-.76-.17.25-.19.32-.15.52l-.12-.05-.11-.09c-.05.25-.22.43-.15.7a.53.53,0,0,1-.17.51,1.81,1.81,0,0,0-.24.46c-.19-.11,0-.34-.13-.52a1.4,1.4,0,0,0-.18.13,1.64,1.64,0,0,1-.63.44.51.51,0,0,0-.29.38.8.8,0,0,0,0,.31l.12-.3a1.43,1.43,0,0,0,.21.11.28.28,0,0,0,.2,0s0-.13,0-.18a.2.2,0,0,1,.08-.3.23.23,0,0,1,.15.26,2.54,2.54,0,0,0,0,.91,4,4,0,0,1,0,.69c0,.3,0,.61.06.92a1.77,1.77,0,0,0,0,.2h.06c0-.08.07-.16.12-.27a1,1,0,0,1,.12.42,6.63,6.63,0,0,1,.15.75c.05.44.08.89.11,1.33a.81.81,0,0,1,0,.27c-.12.28-.25.32-.51.16a.66.66,0,0,1-.83.17c-.07-.07-.13-.18-.21-.19-.26-.05-.27-.27-.31-.46a5.46,5.46,0,0,1-.08-1.34.33.33,0,0,0-.05-.16c-.06.31,0,.64-.09,1l-.07,0c-.11-.29-.22-.59-.31-.89a4.63,4.63,0,0,1-.1-.65c0-.28-.1-.57-.16-.85s-.14-.65-.19-1-.06-.63-.09-1c-.18,0-.25-.14-.28-.29-.06-.3-.1-.59-.16-.92-.12,0-.2-.09-.2-.26a.34.34,0,0,0-.13-.21.44.44,0,0,1-.15-.36c0-.28,0-.56,0-.84s-.1-.43.09-.55l-.13-.43a.53.53,0,0,0,0-.12.47.47,0,0,1,0-.55.48.48,0,0,0,.08-.16c0-.28.28-.3.49-.34a.42.42,0,0,0,.12,0c.14-.19.33-.12.5-.07a1.3,1.3,0,0,1,.32.14.32.32,0,0,0,.35,0c.12-.08.21,0,.3.07s.12.15.25.11.15.07.19.13a.73.73,0,0,1,.12.54s0,.07,0,.1a3.27,3.27,0,0,0-.1,1.46,3.41,3.41,0,0,1-.06.71c0,.1,0,.2,0,.35a1.84,1.84,0,0,0,.35-.43.82.82,0,0,1,.61-.47.42.42,0,0,0,.27-.16c.17-.18.3-.38.45-.57s.29-.34.42-.51a1,1,0,0,0,.15-.2.83.83,0,0,1,.43-.36.28.28,0,0,1,.36,0c.12-.1.24-.17.4-.07s.13,0,.18,0a1.84,1.84,0,0,1,.72-.16h.1c.24,0,.29.14.18.36.18.15.31-.18.47,0a.67.67,0,0,0,0-.17c.05,0,.11,0,.15,0,.29-.14.49,0,.71.21l-.16.18c.1.08.19.16.28.22s.18.1.19.22a.21.21,0,0,0,0,.07,1,1,0,0,0,1,.24s.06,0,.09,0,.23-.06.27-.2a.07.07,0,0,1,0-.06c.18-.14.35-.28.54-.4a1.4,1.4,0,0,1,.31-.09.76.76,0,0,1,.88-.4,2.21,2.21,0,0,0,1-.14.33.33,0,0,1,.29,0,.3.3,0,0,0,.18,0,.56.56,0,0,1,.55.15,1.51,1.51,0,0,0,.28.15.59.59,0,0,1,.17.1c.12.1.13.16,0,.3s-.05.11-.08.16.16,0,.23,0c.23-.16.34-.12.42.16a2.13,2.13,0,0,0,.08.27,1.74,1.74,0,0,0,.15.4.72.72,0,0,1,.08.68,5.71,5.71,0,0,0-.21.58,2.73,2.73,0,0,0-.05.4,2.43,2.43,0,0,0,0,.38.38.38,0,0,0,0,.15,1.43,1.43,0,0,1,0,.77,1.59,1.59,0,0,0,0,.49.45.45,0,0,1-.22.42.3.3,0,0,0-.14.22,5.3,5.3,0,0,0,0,.69,3.73,3.73,0,0,0,0,.46,2.13,2.13,0,0,0,0,.25,2.4,2.4,0,0,1,.09.88,1.84,1.84,0,0,0,.09.42.31.31,0,0,0,.22.22.61.61,0,0,1,.26.19,2.82,2.82,0,0,1,.38.46.53.53,0,0,1,.08.31,2.58,2.58,0,0,0,.17,1.13.81.81,0,0,1,0,.61"/><path class="cls-7" d="M140.11,256.69l-.19-.05a.28.28,0,0,0,0,.12"/><path class="cls-7" d="M126.22,248.61c.07-.12.14-.23.2-.35a.24.24,0,0,0,0-.14l-.06-1.3c0-.07,0-.14,0-.22l-.07,0a3.74,3.74,0,0,0-.19.94c0,.25,0,.5,0,.76C126.09,248.45,126.1,248.56,126.22,248.61Z"/><path class="cls-7" d="M138.43,252.6q-.18-.24-.3-.12a.5.5,0,0,0-.17.43c0,.23.08.46.13.68a.6.6,0,0,0,.09.18c.1-.18.1-.18.07-.34s-.11-.38-.15-.57a1.47,1.47,0,0,1,0-.21Z"/><path class="cls-7" d="M132,245.73a.29.29,0,0,0,.31.1s.05-.06.06-.1,0-.06,0-.07S132.05,245.61,132,245.73Z"/><path class="cls-7" d="M124.36,247.39c.08-.21.08-.21-.06-.27C124.32,247.2,124.33,247.27,124.36,247.39Z"/><path class="cls-7" d="M138.42,254.42s0,0-.06,0,0,0,0,0,0,.05,0,.05S138.4,254.44,138.42,254.42Z"/><path class="cls-7" d="M129.61,245.67s0,0-.06,0l0,0s0,0,0,0S129.58,245.69,129.61,245.67Z"/><path class="cls-7" d="M131.06,245.6s0,0,0,0H131s0,0,0,0S131.05,245.6,131.06,245.6Z"/><path class="cls-7" d="M132.33,249l0,0,0,0s0,0,0,0Z"/><path class="cls-7" d="M125.81,247.6l0,0s0,0,0,0,0,0,0,0S125.81,247.58,125.81,247.6Z"/><path class="cls-7" d="M127.12,250.66l0,0s0,0,0,0l0,0S127.14,250.67,127.12,250.66Z"/><path class="cls-6" d="M115.77,254.93a1.58,1.58,0,0,1-.29-.17.38.38,0,0,1-.13-.15.23.23,0,0,0-.27-.16c-.16,0-.17,0-.2-.18a.22.22,0,0,0,0-.14,3,3,0,0,1-.34-.82c-.09-.23-.09-.24-.34-.22s-.34,0-.42-.29a1.22,1.22,0,0,1-.09-.42,5.37,5.37,0,0,0-.18-1,7.54,7.54,0,0,1-.16-.93,1.63,1.63,0,0,1,.08-.43.79.79,0,0,0,0-.25,3.13,3.13,0,0,0,0-.61c-.07-.33-.09-.66-.17-1a3.36,3.36,0,0,1-.12-1.41c0-.18.09-.36,0-.53a.11.11,0,0,1,0-.08c.1-.2.12-.45.34-.6a.55.55,0,0,0,.14-.19c.16-.29.3-.6.48-.88.07-.11.22-.16.27-.3a.08.08,0,0,1,.07,0l.83-.19a.61.61,0,0,1,.44.05.44.44,0,0,0,.36,0,1.67,1.67,0,0,1,.39-.05c.18,0,.36,0,.54,0a.37.37,0,0,1,.34.11,2.26,2.26,0,0,0,.28.25.16.16,0,0,0,.12,0s.07-.08.07-.12,0-.17.11-.19a.19.19,0,0,1,.21.14.37.37,0,0,0,.44.24.52.52,0,0,1,.26.06l.34.13.36.15s0,.05.08.06a.83.83,0,0,1,.49.41.35.35,0,0,1,0,.54c-.06.06-.17.09-.09.23l.22,0a2.14,2.14,0,0,0,.44.76.91.91,0,0,1,.14.43,1.34,1.34,0,0,0,.23.72.43.43,0,0,1,0,.17c0,.3.06.61.07.91a4.91,4.91,0,0,1-.06.66.39.39,0,0,1-.1.16l-.1.11c-.14.19-.21.21-.41.12a1,1,0,0,1-.2-.11c0,.19-.08.36-.12.57-.13-.17-.07-.4-.28-.48,0,.12-.06.23-.1.36l-.21-.15s0,.08,0,.11,0,.22-.17.24l-.09-.91h-.06s-.06.08-.06.13,0,.39-.2.51c0,0,0,.09,0,.14a1.24,1.24,0,0,0-.06.2c-.16-.19-.29-.36-.43-.54-.13.19-.37.22-.37.46-.19,0-.14-.18-.24-.24s-.09.21-.16.3-.16,0-.16-.13-.08-.18-.21-.18-.2,0-.25-.21l-.06-.16,0,0-.12.07a.27.27,0,0,1-.36,0,.61.61,0,0,0-.35-.09,3.58,3.58,0,0,0-.45,0c0,.17,0,.33.07.51l.6,0a.33.33,0,0,1-.3.15,1.09,1.09,0,0,0-.26,0,.39.39,0,0,1-.45-.12c-.12-.12-.12-.11-.28,0a4.67,4.67,0,0,1,.07,2c-.17-.06-.2-.2-.28-.31s-.16-.17-.37-.11c0,.21.09.41.15.61a.31.31,0,0,0,.15.15,1.68,1.68,0,0,1,.24.07c.18.07.22.16.2.35,0,0,0,.07,0,.1l.12.5c.16-.06.08-.17.08-.27s0-.21,0-.33c.22,0,.36.29.58.08l.11.31c.19-.13,0-.36.16-.5l.37.07a4.7,4.7,0,0,1,.63.13,2,2,0,0,1,.42.23l.11-.17.21.17.13-.2a.92.92,0,0,1,.45.17.67.67,0,0,0,.4.06s.07-.09.09-.14.06-.12.16-.1a1.29,1.29,0,0,1,0,.21c.3.07.37,0,.49-.24h.16c.11,0,.19,0,.26-.07a.19.19,0,0,1,.13-.07,1.55,1.55,0,0,1,.8.09.81.81,0,0,0,.53.08.79.79,0,0,1,.83.35.32.32,0,0,1,.06.31.83.83,0,0,1-.4.55,2.21,2.21,0,0,1-.91.38l-.79,0c-.07,0-.14-.07-.23-.12a3.36,3.36,0,0,1-1.56.41.6.6,0,0,1-.2-.07s-.06-.05-.09-.08l-.13-.09c0,.1,0,.18,0,.25a.53.53,0,0,1-.59,0,3.47,3.47,0,0,0-.33-.18,1.69,1.69,0,0,0-.24-.05l0,.05c0,.08.09.15.14.23-.24,0-.44,0-.55-.22,0,0-.06-.1-.1-.1C116.15,254.86,115.94,254.71,115.77,254.93Zm.68-9a1.55,1.55,0,0,1-.06-.23,2.68,2.68,0,0,1,0-.4c0-.1,0-.19-.12-.23a1.86,1.86,0,0,0-.8-.14,1,1,0,0,0-.67.51.6.6,0,0,0,0,.2s0,.12,0,.14-.1.25-.1.39a.56.56,0,0,1-.07.26,1,1,0,0,0-.16.58,1.83,1.83,0,0,1-.11.77,1,1,0,0,0,0,.38,1.7,1.7,0,0,0,.06.31c0,.15,0,.21-.16.25a.35.35,0,0,0-.14.58c.11-.1.2-.21.32-.31l.44-.32s.12-.09.17-.07a.56.56,0,0,0,.38-.07.32.32,0,0,1,.27,0,2.9,2.9,0,0,0,.66.07s.1-.05.13-.09a.36.36,0,0,1,.4-.14.45.45,0,0,0,.62-.23.31.31,0,0,0,.4-.18s.07,0,.1-.06a3.86,3.86,0,0,1,1,0,.21.21,0,0,1,.12.05c.16.14.41.16.54.36l.07,0a.42.42,0,0,0,0-.33c-.07-.14-.14-.29-.22-.43s-.21-.57-.45-.79-.27-.29-.41-.43-.08-.07-.09-.11-.13-.18-.25-.22-.21.07-.26.22c0-.07-.06-.09-.06-.12-.06-.26-.08-.29-.33-.23a.21.21,0,0,1-.22-.07l-.23-.25C116.89,245.75,116.81,246.05,116.45,246Zm1.93,3.81c.19-.18.15-.34-.1-.48A.5.5,0,0,0,118.38,249.79Zm-3.79.89c.1-.08.13-.15.06-.25S114.5,250.55,114.59,250.68Z"/><path class="cls-7" d="M154.49,247.28l.33,0a.32.32,0,0,0,.31-.11.18.18,0,0,1,.17,0c.14,0,.19,0,.25-.14a1.09,1.09,0,0,1,.29-.37c.27-.19.24-.22.6,0,.11,0,.11-.12.13-.21a.29.29,0,0,1,.28-.28.5.5,0,0,1,.44.09.26.26,0,0,0,.21.08c.26-.1.47.06.71.11a1.31,1.31,0,0,0,.34,0,.71.71,0,0,1,.67.3c.06.1.11.18.25.16s.17.08.21.18a.44.44,0,0,0,.28.27.28.28,0,0,1,.13.11c.06.24.27.28.44.36a.28.28,0,0,1,.18.19.41.41,0,0,0,.22.29s.06.08.1.11l.3.14c0,.08.06.21.08.34s0,.18.14.21a.38.38,0,0,1,.17.14c.07.07.1.17.18.21.25.16.22.41.21.66a2.09,2.09,0,0,0,0,.25,3.62,3.62,0,0,1,.09,1,3,3,0,0,0,.06.42.18.18,0,0,0,.25.17c.1.39.18.75.27,1.11a7.42,7.42,0,0,0,.38,1.4.66.66,0,0,1-.21.66.93.93,0,0,1-.67.23,1,1,0,0,1-.3-.09.35.35,0,0,0-.38,0l-.15.08a1,1,0,0,1-.82.1c-.2,0-.3-.23-.43-.37a.93.93,0,0,1-.21-.42,7.88,7.88,0,0,1-.13-1.19,2.05,2.05,0,0,1,.1-.54c0-.21.11-.41.13-.62a.56.56,0,0,0-.1-.33,1,1,0,0,1-.21-.69.83.83,0,0,0-.18-.59,1.74,1.74,0,0,1-.23-.45.46.46,0,0,0-.23-.28.39.39,0,0,1-.24-.35c0-.15-.1-.29,0-.44-.07-.27-.13-.55-.21-.81a.34.34,0,0,0-.4-.23.48.48,0,0,0-.28-.42.25.25,0,0,0-.16,0c-.26,0-.52.1-.78.13a1.08,1.08,0,0,1-.31,0c-.16,0-.2,0-.27.13l-.11.26c-.07.18-.07.18-.27.14H156s0,.05-.06.08c-.12.2-.12.2-.32.1a.33.33,0,0,0-.16-.05,2.6,2.6,0,0,1-.91-.23.82.82,0,0,0-.25-.1s0,.06.07.08a.17.17,0,0,1,.06.28l0,0a1.08,1.08,0,0,1-.26.62.24.24,0,0,0,0,.19.48.48,0,0,0,.12.21c.08.06.14,0,.19-.08s0,0,.06,0c.28.26.32.4.2.62-.11,0-.06-.14-.08-.22s-.05-.14-.15-.13-.14.09-.1.18a.84.84,0,0,0,.13.27.41.41,0,0,1,.09.34,1.43,1.43,0,0,0,.09.54.41.41,0,0,1,0,.36.23.23,0,0,0,0,.26.62.62,0,0,1,.09.25c0,.18,0,.35.08.53a.26.26,0,0,0,.25.24h0a.62.62,0,0,1,.55.4c.09.18.1.17.28.11a3.84,3.84,0,0,1,.3,1.56c-.05,0-.11,0-.15,0s-.07.07-.1.11-.24.35-.35.53,0,.15,0,.21l.39,0h0a.5.5,0,0,1-.58.07.79.79,0,0,0-.73-.11.11.11,0,0,1-.11,0,1.12,1.12,0,0,1-.58-.77c0-.27-.1-.52-.15-.78a.83.83,0,0,0,0-.15,1.08,1.08,0,0,1-.08-.64.46.46,0,0,0,0-.2c-.09-.31-.18-.61-.28-.92a.38.38,0,0,1,0-.1c0-.13-.08-.14-.19-.18,0-.35-.05-.71-.07-1.06a.75.75,0,0,1,0-.15.94.94,0,0,0-.25-.83s0,0,0,0c.17-.12.16-.25.12-.45a7.19,7.19,0,0,1,0-.81c0-.2-.09-.4-.12-.6a2.34,2.34,0,0,1,0-.53,4.17,4.17,0,0,1,.1-.6.73.73,0,0,1,.2-.4.73.73,0,0,0,.15-.29c.07-.2.18-.26.35-.16a.71.71,0,0,1,.32.38c.06.2.12.39.19.58a.23.23,0,0,1,0,.24.56.56,0,0,0-.11.2.51.51,0,0,0,.28.54.14.14,0,0,0,.17-.16,1.28,1.28,0,0,0-.05-.27Zm4.8,1.1a.15.15,0,0,0,0,.22,3.62,3.62,0,0,0,.32.22.15.15,0,0,0,.13,0,.13.13,0,0,0,0-.13.9.9,0,0,0-.18-.16Zm3.54,5.83a.68.68,0,0,0,0,.66C163,254.74,163,254.5,162.83,254.21Zm-.36-.14c.17,0,.26,0,.3-.16s.09-.22,0-.34C162.64,253.73,162.57,253.88,162.47,254.07Zm-3-4.46a.37.37,0,0,0,0-.16.3.3,0,0,0-.13-.09s-.07,0-.07,0,0,.11.07.14S159.39,249.59,159.45,249.61Zm1.39,1.34c0-.21,0-.26-.09-.38A.31.31,0,0,0,160.84,251Zm1.44,4.12a.22.22,0,0,0,.29,0C162.43,254.93,162.43,254.93,162.28,255.07Zm-1.76-3.58c0-.1-.05-.21-.19-.25C160.34,251.38,160.37,251.48,160.52,251.49ZM155,253.86c0-.09-.09-.16-.19-.11a.13.13,0,0,0,0,.09C154.83,253.93,154.89,253.93,155,253.86Zm3.91-7s-.06-.07-.08-.07-.05,0-.07,0,0,.07.06.08S158.85,246.91,158.89,246.89Zm1.62,1.28,0,0,0,0s0,0,0,0Zm1,2.78,0,0v0l0,0Zm-1.6-1-.06,0s0,0,0,0l.06,0Zm1.18,4.11s0,0,0,0h0l0,0Z"/><path class="cls-7" d="M164,245.22a2,2,0,0,1,.64,0,.41.41,0,0,0,.42-.06.13.13,0,0,1,.11,0,3.43,3.43,0,0,1,.46.11s.08.1.1.16,0,.15.09.27l.24-.3c.23.23.5,0,.76.13,0-.29.11-.55.14-.83a.46.46,0,0,0-.29.2,1.31,1.31,0,0,1-.12-.28.2.2,0,0,0-.18-.19c.05-.2.08-.4.13-.58a.42.42,0,0,1,.28-.3.6.6,0,0,0,.42-.36.41.41,0,0,1,.59-.18,1.28,1.28,0,0,1,.2.11.33.33,0,0,0,.41.06s.07,0,.08.07a.39.39,0,0,0,.31.34.27.27,0,0,1,.11.16,1.65,1.65,0,0,1,.07.32,4.14,4.14,0,0,0,.39,1.25c.1.22.19.25.42.16l.11,0a.32.32,0,0,1,.36,0,1.66,1.66,0,0,1,.13-.14.28.28,0,0,1,.17-.07c.25,0,.49,0,.74,0a2.28,2.28,0,0,1,.9.12.38.38,0,0,1,.31.32.22.22,0,0,0,.12.15.8.8,0,0,1,.47.75.34.34,0,0,0,.15.32.4.4,0,0,1,0,.68,2.81,2.81,0,0,1-.5.22l-.27.11a1.07,1.07,0,0,1-.33.11c-.3,0-.61,0-.91,0l-.69,0s-.06-.11-.11-.18-.15-.19-.33-.12a2.18,2.18,0,0,0-.38.18.24.24,0,0,0-.12.28,2.46,2.46,0,0,0,.07.29,6.2,6.2,0,0,1,.27,1.13c0,.22.12.44.17.66a.92.92,0,0,1,0,.76.41.41,0,0,0,0,.22c0,.19.06.39.11.58a1,1,0,0,0,.13.27,1.32,1.32,0,0,1,.25.7,1.73,1.73,0,0,0,.2.62,1.18,1.18,0,0,1,.1.39c0,.21.06.42.08.63a.65.65,0,0,1-.6.8.85.85,0,0,1-1.05-.61,5.26,5.26,0,0,0-.34-.67,2.59,2.59,0,0,1-.2-.57,3.63,3.63,0,0,1,0-.81,2.19,2.19,0,0,0,0-1.19.11.11,0,0,1,0-.05.58.58,0,0,0-.33-.6.57.57,0,0,1-.12-.18c0-.11-.07-.22-.11-.33s-.15-.27-.09-.44,0-.07,0-.11l-.09-.4s0-.09,0-.12a.65.65,0,0,1,.16-.67.35.35,0,0,0,.07-.31.58.58,0,0,0,0-.14,1.09,1.09,0,0,1-.13-.61c0-.07-.05-.15-.09-.27a1.59,1.59,0,0,0-.12.16.19.19,0,0,1-.21.14c-.09,0-.12-.08-.14-.16s-.09-.17-.22-.16a2.58,2.58,0,0,0-.62,0s-.12,0-.18-.05c-.21-.09-.21-.1-.34.12l0,0a.54.54,0,0,1,0-.11.25.25,0,0,0-.26-.19,1.29,1.29,0,0,1-.64-.16c-.22-.1-.47-.16-.7-.25a2.26,2.26,0,0,1-.2-.13s0,0,0-.05l-.5-.82.29-.37h0s0,.08,0,.11a.36.36,0,0,0,0,.09c0,.05,0,.13,0,.16s.12,0,.17-.06Zm3.62.8c-.06.07-.11.1-.12.15s.08.24.15.21a.24.24,0,0,0,.12-.16C167.71,246.16,167.63,246.11,167.57,246Zm2.6,8.87-.31-.38C169.78,254.75,169.86,254.86,170.17,254.89Zm-.89-2.16c0-.15-.06-.22-.16-.2s-.12.1-.08.22Zm1.36-5.57c.11,0,.2,0,.23-.11s0-.09-.05-.09S170.64,247,170.64,247.16Zm2.56.1,0-.06s-.07,0-.1,0-.06,0-.06,0,0,.06,0,.06S173.17,247.27,173.2,247.26Z"/><path class="cls-7" d="M145.54,255.3l-.07.15a1,1,0,0,1-.09.26c-.07.12-.15.22,0,.35a.75.75,0,0,1-.4-.25.84.84,0,0,0-.54-.3.3.3,0,0,1-.23-.25.44.44,0,0,0-.37-.32.45.45,0,0,1-.21-.12,1.45,1.45,0,0,1-.22-.21.8.8,0,0,1-.13-.21,4,4,0,0,0-.1-.5c0-.09,0-.23.05-.35a.32.32,0,0,0-.07-.31.62.62,0,0,1-.13-.34c0-.11-.05-.22-.07-.33s-.08-.49-.16-.72a3,3,0,0,1-.17-1,1.7,1.7,0,0,1,0-.45.21.21,0,0,0,0-.11c0-.24-.1-.48-.16-.71a.62.62,0,0,1,0-.38,1.1,1.1,0,0,0,.08-.54c0-.14,0-.29,0-.43s-.09-.26-.09-.39c0-.42,0-.85.08-1.27a.29.29,0,0,1,.11-.18c.17-.14.39-.22.48-.46a.12.12,0,0,1,0-.05c.2-.09.26-.28.34-.48l.21,0c.05,0,.11,0,.14,0,.35-.27.73-.11,1.09-.08s.53.08.79.1a1.61,1.61,0,0,0,.44,0,1,1,0,0,1,.81.15,4.79,4.79,0,0,0,.56.26,1.46,1.46,0,0,1,.74.87c.08.22.16.27.46.27,0,.25.07.5.09.75s0,.39,0,.58a.25.25,0,0,0,.16.24.3.3,0,0,1,.13.14,1.26,1.26,0,0,1-.08.93c-.22-.07-.24-.06-.35.16a1,1,0,0,0-.1.47,1.42,1.42,0,0,1-.08.45.31.31,0,0,1-.19.14,1.14,1.14,0,0,0-.55.32.83.83,0,0,1-.63.24c-.17,0-.34,0-.5,0s-.21,0-.25-.08-.23-.11-.36-.11l-1.36.08-.12-.41a.53.53,0,0,0,0-.12c-.07-.14-.28-.26-.36-.21a.42.42,0,0,0-.22.46.47.47,0,0,1,0,.4.59.59,0,0,0,0,.47c.08.25.16.5.25.75s.24.31.49.18a.76.76,0,0,1,.08.36c0,.27,0,.54.08.81a.48.48,0,0,0,.28.34,1.66,1.66,0,0,1,.25.14l-.22.16a.66.66,0,0,0,.23.46l.08,0c.17-.31.47-.2.72-.22a2.67,2.67,0,0,1,.4,0,.64.64,0,0,0,.52-.33,2,2,0,0,1,.68-.61.5.5,0,0,1,.46,0,3.08,3.08,0,0,0,.84.18.33.33,0,0,1,.35.26c.05.17.19.3.16.5a.27.27,0,0,1-.12.21,5.84,5.84,0,0,0-.48.39.86.86,0,0,1-.27.21,1.56,1.56,0,0,1-1.08.16c-.23.07-.42-.13-.64-.09s-.43,0-.64.06-.3.11-.45.14c-.34.09-.38.06-.41-.29a.76.76,0,0,0,0-.16Zm2.09-7.36a.54.54,0,0,0,.15-.09c.15-.15.11-.36.11-.54s-.08-.28-.3-.33l-.33-.07a2.27,2.27,0,0,1-.53-.11,4.16,4.16,0,0,0-.92-.18.51.51,0,0,1-.21-.06.18.18,0,0,0-.26,0,.21.21,0,0,1-.32,0,.41.41,0,0,0-.41-.14.68.68,0,0,0-.73.6c0,.11-.06.17-.17.19a.37.37,0,0,0-.18.11,1.42,1.42,0,0,0-.12.46c0,.21,0,.23.22.24a.42.42,0,0,1,.39.33,3.32,3.32,0,0,1,0,.83s0,.07,0,.1c-.09.18-.08.2.07.35a.52.52,0,0,1,.14.22c.07.25.06.26.31.24l.17,0,.67-.15c.16,0,.31,0,.46-.09l.62-.17a.31.31,0,0,0,.23-.18l.27-.63a.47.47,0,0,0,0-.35,1.45,1.45,0,0,1,0-.3c0-.14,0-.29,0-.43a.18.18,0,0,1,.15-.22.27.27,0,0,1,.29.08C147.45,247.73,147.54,247.83,147.63,247.94Zm1.82,6.84s-.07-.08-.09-.08a.24.24,0,0,0-.11.06s0,.07,0,.07Z"/><path class="cls-7" d="M176.76,248.4a1.12,1.12,0,0,0,.37-.81c0-.13,0-.27.18-.32,0,.11,0,.22.07.32s.12.15.2.06.27-.27.24-.5a3.47,3.47,0,0,1,0-.44.26.26,0,0,1,.22.31c0,.1,0,.21.11.26a.24.24,0,0,0,.09-.27c0-.24,0-.23.17-.37a.79.79,0,0,0,.18-.31c0-.06,0-.15.11-.14s.1.09.11.15a1.53,1.53,0,0,1,0,.37.42.42,0,0,0,.14.37c.11-.12.1-.4.4-.28,0-.11,0-.18,0-.25a.46.46,0,0,1,.33-.51c.15,0,.27,0,.36.12a.32.32,0,0,0,.31.17c.11,0,.17.06.23.14a1,1,0,0,1,.23.82.12.12,0,0,0,0,.1s0,0,.05.08.06-.11.1-.14.11-.07.15-.05a.27.27,0,0,1,.11.14c0,.08,0,.17,0,.25a.77.77,0,0,0,.32.67c.09,0,.1.14.1.24s0,.19.14.3c.19-.08,0-.27.13-.42,0,.06,0,.11.05.15,0,.34.05.68.08,1a.2.2,0,0,0,.25.18c.11,0,.17,0,.21.12.16.38.32.76.49,1.14a.59.59,0,0,0,.27.36.38.38,0,0,1,.22.41.26.26,0,0,0,.11.2,3.2,3.2,0,0,1,.85,1.05.85.85,0,0,0,.31.34l.17.14a.78.78,0,0,1,.26.83.41.41,0,0,1-.17.2,2.28,2.28,0,0,1-.3.17.25.25,0,0,1-.14.06,3.42,3.42,0,0,1-1.1-.13l-.15-.08a2.27,2.27,0,0,0-.44-.38,1.06,1.06,0,0,1-.47-1c0-.26,0-.52,0-.78a.25.25,0,0,0-.14-.27c-.14.09,0,.36-.27.36l0-.18a.44.44,0,0,0-.51-.41c-.16,0-.18,0-.21-.17s-.1-.38-.16-.57a.26.26,0,0,0-.12-.11.37.37,0,0,1-.3-.42l-.17.08c-.1-.1-.06-.18,0-.28a1.15,1.15,0,0,0,.12-.25.46.46,0,0,0,0-.38,1.27,1.27,0,0,1-.05-.34,2.78,2.78,0,0,0-.25-1,.57.57,0,0,0-.25-.26.27.27,0,0,1-.17-.36.69.69,0,0,0-.43-.69c-.1,0-.15,0-.16.1s0,.24,0,.35,0,.16-.06.18a.52.52,0,0,0-.24.34.48.48,0,0,1-.27.27.69.69,0,0,0-.4.4,3,3,0,0,1-.24.38c-.08.15-.16.3-.23.45a2.09,2.09,0,0,0-.13.35,2.17,2.17,0,0,0,0,.25c0,.19,0,.38,0,.58s0,.21,0,.32a.87.87,0,0,1,0,.28c-.1.25,0,.47.07.7a.56.56,0,0,0,.05.08h.06c.09,0,.19-.1.25-.08a1,1,0,0,1,.29.22s0,.11,0,.16,0,.07,0,.1,0,.26.11.25.09-.13.1-.22,0-.07,0-.1,0-.14.14-.12a1.28,1.28,0,0,1,.5.33c.13-.3.42-.27.65-.36a1.48,1.48,0,0,1,.75-.1,5.44,5.44,0,0,0,.57,0c.1,0,.2,0,.26.1s.19.26.15.44a.68.68,0,0,1-.37.51.16.16,0,0,0-.13.19c.06.3-.15.4-.36.49s-.48.19-.72.28a2,2,0,0,0-.48.21,1.2,1.2,0,0,1-.55.1,1.71,1.71,0,0,1-.32,0c-.21-.25-.21-.25-.47-.07a1.48,1.48,0,0,1-.16-.27.26.26,0,0,0-.21-.18,1.36,1.36,0,0,1-.36-.09c-.07,0-.17-.09-.18-.15a1.45,1.45,0,0,1,.07-1,1.62,1.62,0,0,1,.19.18c.07.08.16.11.24,0a.16.16,0,0,0,0-.23.41.41,0,0,0-.21-.16.39.39,0,0,1-.33-.22s-.05,0-.08-.06a.46.46,0,0,0-.21.41,1.52,1.52,0,0,0,0,.29c.05.2-.07.38,0,.57s-.05.17-.14.21a.13.13,0,0,1-.19-.09.3.3,0,0,1,.06-.33c.11-.1.1-.24.15-.36a2,2,0,0,0,0-.64s0,0-.05,0l-.14.21a1.08,1.08,0,0,1-.47-.62A3.19,3.19,0,0,1,176,251a.9.9,0,0,0,0-.23c0-.05,0-.11,0-.14a.77.77,0,0,0,0-.52,4.5,4.5,0,0,1,0-1.1.67.67,0,0,1,.52.22c0-.12,0-.24,0-.36a2.19,2.19,0,0,1,0-.36,2.29,2.29,0,0,1,.07-.36.16.16,0,0,1,.21-.1c.09,0,.08.11.06.19A1.55,1.55,0,0,1,176.76,248.4Zm1.17,5.06a.58.58,0,0,0-.19.35c0,.09,0,.14.14.1S178.1,253.66,177.93,253.46Zm1.73.93c-.07,0-.12-.11-.14-.1a.39.39,0,0,0-.14.12s.06.1.07.09A1.08,1.08,0,0,0,179.66,254.39Zm-.65-7.15c0,.13,0,.18.1.21S179.13,247.29,179,247.24Zm.53,6.62,0,.06c0,.1.06.13.2.09Zm3.32-2c.13-.07.13-.12,0-.22Zm-6.05-3c-.1,0-.1,0-.07.16A1.11,1.11,0,0,1,176.81,248.83Zm-.29,1a.08.08,0,0,0,0,0h0v0Z"/><path class="cls-7" d="M190.62,245.82c-.28.09-.29.12-.31.41,0,.5-.09,1-.12,1.52s0,.79,0,1.19a1.71,1.71,0,0,0,0,.32c0,.06,0,.15,0,.17a5.65,5.65,0,0,0,.57.38s.12-.06.14-.11a1.42,1.42,0,0,0,0-.29c0-.2,0-.4,0-.6a.21.21,0,0,1,0-.11,2.15,2.15,0,0,1,.07.71c0,.39-.06.77-.1,1.17h-.23c-.05.08-.09.17-.15.25a.46.46,0,0,1-.14.07.37.37,0,0,1-.07-.14,1.69,1.69,0,0,1,.09-.34c.12-.25.11-.29-.15-.45a.55.55,0,0,0-.22.61,1.38,1.38,0,0,0,.23.61.41.41,0,0,1,.06.36,1.6,1.6,0,0,0,0,.31.4.4,0,0,1,.46.11.75.75,0,0,1,.07.12c0,.2.08.4,0,.6a.23.23,0,0,0,0,.12.93.93,0,0,1-.27.72.85.85,0,0,0-.14.34,1.72,1.72,0,0,0,0,.64,2.43,2.43,0,0,1,0,.47.31.31,0,0,0-.36.2,1.18,1.18,0,0,1-.13.18.27.27,0,0,1-.32.13c-.13,0-.12-.14-.14-.23a.24.24,0,0,0,0-.09h-.06c-.24.13-.31.1-.36-.18a4.74,4.74,0,0,1,0-.84c0-.29,0-.58,0-.87a4.21,4.21,0,0,1,.09-.87.78.78,0,0,0,0-.46,1.08,1.08,0,0,1-.06-.56c0-.12,0-.22-.13-.29,0,.14,0,.26,0,.41a.33.33,0,0,1-.15-.33c0-.11,0-.23,0-.35l.22-.08c0-.12.06-.23.09-.36l-.26-.06a2.24,2.24,0,0,1-.1-.37.33.33,0,0,1,0-.17c0-.16.06-.31.07-.47a.77.77,0,0,0,0-.26h-.06l-.16.29,0-.06a1.14,1.14,0,0,0,0-.73,2.29,2.29,0,0,1,0-.94,4.12,4.12,0,0,0,0-.7.6.6,0,0,1,.16-.53s0-.06.05-.13c-.19.07-.35.11-.37.35-.06,0-.13,0-.13-.08s-.08-.25,0-.3c.3-.39.14-.8.1-1.21,0,0,0-.11,0-.17s-.06-.41-.12-.61-.13-.13-.22-.21c-.12-.34.1-.75-.07-1.13-.15,0-.17.11-.16.21s0,.25,0,.38a.34.34,0,0,1-.12.29c0-.07-.08-.12-.08-.18s0-.32,0-.48,0-.57-.09-.86a.86.86,0,0,1,.07-.7.24.24,0,0,0,0-.16,1.09,1.09,0,0,1,.07-.54.81.81,0,0,0,0-.15c0-.15,0-.3,0-.44a.21.21,0,0,1,.22-.2,1.82,1.82,0,0,0,.3-.11c.31-.1.42,0,.49.29a.54.54,0,0,0,0,.1l.2,0,.14.21.26-.07a.85.85,0,0,0,.1.19.74.74,0,0,0,.17.12l.19-.21.16.26a2.22,2.22,0,0,1,.37-.09c.16,0,.18.15.25.25l.17,0c.09.1.15.19.23.27s.15.15.23.23,0,.27,0,.42a1.58,1.58,0,0,1-.14.8.65.65,0,0,0-.06.24c0,.18,0,.36,0,.54a.39.39,0,0,1-.12.32,1.26,1.26,0,0,0-.13.26l.21.08c0,.14,0,.28,0,.42a1.47,1.47,0,0,0,0,.59.84.84,0,0,1,0,.41,2,2,0,0,1-.14.3Zm-2.89-5.4a2.16,2.16,0,0,0,0,1l.11,0a.08.08,0,0,0,0,0A2.16,2.16,0,0,0,187.73,240.42Zm.27,1.69c0-.06,0-.14,0-.25l-.18.12c-.1-.06-.16-.23-.31-.12a.17.17,0,0,0-.05.26Zm2.35,10.44c.12,0,.18,0,.18-.13s0-.06-.06,0S190.33,252.43,190.35,252.55Zm0,.16-.2.08C190.2,252.89,190.26,252.88,190.3,252.71Z"/><path class="cls-6" d="M110.43,252.79c0,.26-.26.26-.44.34,0,.12.09.15.19.11s.2-.06.34-.1a2.35,2.35,0,0,1,0,.34,1.76,1.76,0,0,1-.07.4,1.47,1.47,0,0,0,.07.72,1,1,0,0,0,.11-.48c0-.11,0-.11.12-.18a.83.83,0,0,1,.06.72.73.73,0,0,0-.11.38c0,.23,0,.33-.27.36l-.14,0c-.1.4-.29.37-.71.33-.11,0-.21-.08-.33,0a.16.16,0,0,1-.13,0,.88.88,0,0,0-.61-.27v-.18a.13.13,0,0,0-.12-.16c-.28,0-.34-.26-.37-.5s-.06-.25-.08-.37a.4.4,0,0,1,0-.24.6.6,0,0,0,0-.4c-.06-.14-.1-.27,0-.36-.06-.31-.13-.59-.17-.87,0-.07.06-.17.11-.24a1.17,1.17,0,0,1,.19-.14,1.72,1.72,0,0,1-.32-.79,1,1,0,0,0-.18-.38.8.8,0,0,1-.11-.35c0-.39-.09-.79-.14-1.18s0-.52-.08-.78c-.06-.6-.13-1.19-.18-1.79a4.82,4.82,0,0,1,0-.65.93.93,0,0,0-.09-.51c0-.09,0-.25,0-.37a2.27,2.27,0,0,0-.1-.9,1.18,1.18,0,0,1-.05-.42,5.61,5.61,0,0,1,0-.58.7.7,0,0,1,.06-.19c0-.06.07-.13.06-.19a.89.89,0,0,1,.14-.55c0-.09.08-.2.13-.32.15.14.34,0,.48.14s.09,0,.13,0l.22-.15a.78.78,0,0,1,.06.19.76.76,0,0,0,.25.52c.09.09.26.1.39.17a2.65,2.65,0,0,1,.4.24s0,.13,0,.2c0,.31,0,.62,0,.93,0,.64,0,1.27,0,1.9,0,.22,0,.44,0,.66a1.69,1.69,0,0,1,0,.55.31.31,0,0,0,0,.33l.19-.1s0,0,0,.06,0,.27,0,.4a.32.32,0,0,0,.12.29.4.4,0,0,1,.11.29c0,.29,0,.59,0,.89.23.09.16.29.19.46a2,2,0,0,1,0,.26,3.94,3.94,0,0,1,.09.76,2.86,2.86,0,0,1-.11.64.23.23,0,0,0,.13.27,2,2,0,0,1,.36.26c-.29.06-.35.23-.17.44A1.71,1.71,0,0,0,110.43,252.79ZM94.77,242c.47,0,.94.05,1.41.05a4.17,4.17,0,0,0,.78-.1m26.7,7.57c-.18,0-.25-.14-.28-.29s-.1-.59-.16-.91m-9.67-1.93a.45.45,0,0,0,.14-.19c.16-.3.3-.6.49-.89M150.06,253a.46.46,0,0,0,0-.2c-.09-.31-.19-.61-.28-.92m10.93-3.21-.09-.4s0-.09,0-.12m-20,4a3.06,3.06,0,0,1-.16-1,1.42,1.42,0,0,1,0-.46m28.36,1.13a1.12,1.12,0,0,1-.47-.62,3.25,3.25,0,0,1-.18-1.07M180.49,248a2.17,2.17,0,0,1,0-.95,5.67,5.67,0,0,0,0-.71m-71.27-3c0,.31,0,.62,0,.93,0,.64,0,1.27,0,1.9m.63,8.73c-.08,0-.13.07-.09.16s.06,0,.07,0S109.91,254.93,109.85,254.85Zm-2.46-11.75c0,.1,0,.18.07.25C107.52,243.24,107.47,243.18,107.39,243.1Zm0,5h-.06a.36.36,0,0,1,0,.09h0A.29.29,0,0,0,107.4,248.13Z"/><path class="cls-6" d="M98.12,252.75a.58.58,0,0,1,.14,0h.39l.24,0c.1,0,.2.09.3.11a.18.18,0,0,0,.16,0c.16-.21.35-.18.56-.1l.13,0a1.57,1.57,0,0,1,.07-.18.66.66,0,0,0,.57.08,5.4,5.4,0,0,1,.58-.11.64.64,0,0,1,.52.09.52.52,0,0,0,.45.09,1.15,1.15,0,0,1,.61.05c0,.23.12.31.33.28s.19,0,.19.15a1.85,1.85,0,0,0,.21.86,1.18,1.18,0,0,1,.1.66.24.24,0,0,1-.07.16,1.4,1.4,0,0,1-1.33.48,5.27,5.27,0,0,0-.89-.09,2.87,2.87,0,0,0-.58.07l-.3.06-.1-.22h-.06c-.16.31-.44.23-.69.18a1.2,1.2,0,0,0-.53-.05.13.13,0,0,1-.12,0,1.14,1.14,0,0,0-.52,0,1.73,1.73,0,0,1-.4-.09l-.15.17a.64.64,0,0,0-.63-.15,1.73,1.73,0,0,1-.93,0,.3.3,0,0,0-.3.05c-.1.07-.23.09-.35.18l.39.11a.13.13,0,0,1,0,.06l-.37,0c-.09,0-.11-.09-.13-.17a1,1,0,0,0-.14-.31,1.24,1.24,0,0,1-.24-.55,1.07,1.07,0,0,0-.12-.27,1.18,1.18,0,0,0-.13-.18,1.47,1.47,0,0,0-.34-.36.5.5,0,0,1-.22-.4c0-.18,0-.37-.06-.55s-.08-.31-.27-.34-.13-.1-.15-.19c-.11-.46-.23-.92-.34-1.38a.8.8,0,0,1,0-.15,2.27,2.27,0,0,0-.22-1,2.89,2.89,0,0,1-.15-.91c0-.1,0-.2,0-.3a.48.48,0,0,0-.05-.17,1.39,1.39,0,0,1-.35-1c0-.1,0-.2,0-.3s0-.27-.08-.41a.59.59,0,0,0-.11-.24.78.78,0,0,1-.29-.68c0-.11,0-.19-.13-.23s-.08-.08-.1-.13a2.72,2.72,0,0,1-.21-.74.69.69,0,0,1,0-.51c-.21-.19-.13-.42-.12-.64s.06-.33.07-.5,0-.4-.34-.55c-.1,0-.06.12,0,.19a1,1,0,0,1,0,.2l-.07,0c-.08-.28-.15-.56-.24-.84a.36.36,0,0,1,.11-.42,1.8,1.8,0,0,0-.11-.2c.12-.25.34-.12.51-.13a.63.63,0,0,1,.47.16l.41,0c.47,0,.94.06,1.41.06a5.18,5.18,0,0,0,.79-.11c.1,0,.18,0,.22,0l.78-.24c.1.15.15.18.26.19l-.07-.15c.17-.23.24-.23.51,0l.06-.12h.39c0,.12,0,.23,0,.34H97l.09-.31a2.15,2.15,0,0,1,.82.45h0c.16,0,.27-.16.46-.12a1.21,1.21,0,0,0,.49-.07c.2-.05.39-.11.59-.18s.25,0,.3-.12a.33.33,0,0,1,.28-.11s.06,0,.07,0c.15-.23.37-.11.54-.06a5.75,5.75,0,0,1,.78.31.11.11,0,0,1,.07,0,7.82,7.82,0,0,0,.77.63c.11.08.09.36,0,.49a2.72,2.72,0,0,0-.45.9.61.61,0,0,1-.42.48,4.23,4.23,0,0,1-.92.21c-.13,0-.26,0-.39,0a1.43,1.43,0,0,0-.29.1c-.11-.33-.42-.26-.67-.3,0,0-.09,0-.09,0-.08.19-.29.12-.41.2a.33.33,0,0,1-.22,0c-.21,0-.21,0-.28.18l-.22-.15c-.1.07-.27,0-.35.17s-.08,0-.12,0-.08,0-.09,0c-.24.25-.55.1-.83.12a1,1,0,0,1-.2-.07L96.1,244l-.06.18c-.06,0-.16,0-.2-.06s-.42-.13-.62-.16a.88.88,0,0,0-.62.14c-.13.09-.31.09-.43.23s-.06,0-.09,0c-.23,0-.25,0-.24.27a4.21,4.21,0,0,0,0,.62.49.49,0,0,0,.11.23.69.69,0,0,1,.14.33c0,.23.1.46.16.68s.09.29.12.44a.5.5,0,0,0,.71.37l.09,0c.2.18.35.21.57-.1.17,0,.37.3.5-.08l.21.22a.55.55,0,0,1,.52-.19,9.19,9.19,0,0,0,1.39-.09,5.05,5.05,0,0,1,1.4-.08,1.12,1.12,0,0,1,.27.1.37.37,0,0,1,.4-.1c.26,0,.52,0,.79.08a1.36,1.36,0,0,1,.52.27,1.81,1.81,0,0,0,.21.18.77.77,0,0,1,.34.64,1.5,1.5,0,0,0,0,.37.79.79,0,0,1-.64,1,1.38,1.38,0,0,1-1-.24.43.43,0,0,0-.2-.07.62.62,0,0,1-.45-.11s-.14,0-.24,0,0-.28,0-.42-.1-.23-.25-.18a.74.74,0,0,1-.39,0,.12.12,0,0,0-.1,0c-.19.15-.41.08-.62.09s-.25.05-.3.22a.84.84,0,0,1-.05.17c0,.06-.08.15-.14.16a4.3,4.3,0,0,0-.62.27.68.68,0,0,1-.49.06c-.2-.06-.25,0-.3.22,0,0-.09,0-.12-.07s-.12-.14-.28,0,0,0-.06.05a.56.56,0,0,1-.25,0c-.11,0-.11-.14-.11-.25s0-.38,0-.57-.07-.26-.28-.2l-.13.06s0,.06,0,.06c.23.19.2.49.3.73,0,0,0,.09,0,.14s-.11.39-.13.58a1.31,1.31,0,0,0,.07.44,1.11,1.11,0,0,0,.12.3.69.69,0,0,1,.13.52s0,.06,0,.09c.21.29.41.59.64.87a1.22,1.22,0,0,0,.62.39.73.73,0,0,1,.48.25c.1.14.29.11.44.11a.94.94,0,0,1,.64.2.57.57,0,0,0-.43-.33c-.18,0-.37-.05-.56-.1.15-.11.22-.33.46-.25a.35.35,0,0,0-.05.08s0,.07,0,.11.1,0,.12,0S98.2,252.77,98.12,252.75Zm1.82-4.19a1.59,1.59,0,0,0,.08.33s.07.05.1,0,.06-.06,0-.09A.3.3,0,0,0,99.94,248.56Zm-5.21,2.23c-.18.13-.18.18,0,.35C94.85,251,94.74,250.93,94.73,250.79ZM93.45,248c-.11.11-.09.18,0,.27C93.51,248.12,93.51,248.12,93.45,248Zm6.66-4.19c0-.06.1-.1.09-.12s-.06-.08-.09-.08-.07,0-.11.06Zm2.12,9.4-.08-.07,0,0a.2.2,0,0,0,0,.08Zm-5.42-9.31s0,0,0,.07l.12,0v0Zm1.63,11.22,0,0,.09,0s0,0,0,0Z"/><path class="cls-7" d="M127.62,249a1.64,1.64,0,0,1-.63.44.51.51,0,0,0-.29.38"/><path class="cls-6" d="M120,245.74c-.06.06-.17.09-.09.23l.22,0"/><path class="cls-6" d="M116.4,248.56a.36.36,0,0,1,.4-.14.45.45,0,0,0,.62-.23"/><path class="cls-7" d="M153.49,251.88c0-.13-.08-.14-.19-.18,0-.35-.05-.71-.07-1.06"/><path class="cls-7" d="M164,245.22a2,2,0,0,1,.64,0,.41.41,0,0,0,.42-.06.13.13,0,0,1,.11,0,3.43,3.43,0,0,1,.46.11s.08.1.1.16,0,.15.09.27l.24-.3c.23.23.5,0,.76.13,0-.29.11-.55.14-.83a.46.46,0,0,0-.29.2,1.31,1.31,0,0,1-.12-.28.2.2,0,0,0-.18-.19c.05-.2.08-.4.13-.58a.42.42,0,0,1,.28-.3.6.6,0,0,0,.42-.36.41.41,0,0,1,.59-.18,1.28,1.28,0,0,1,.2.11.33.33,0,0,0,.41.06s.07,0,.08.07a.39.39,0,0,0,.31.34.27.27,0,0,1,.11.16,1.65,1.65,0,0,1,.07.32,4.14,4.14,0,0,0,.39,1.25c.1.22.19.25.42.16l.11,0a.32.32,0,0,1,.36,0,1.66,1.66,0,0,1,.13-.14.28.28,0,0,1,.17-.07c.25,0,.49,0,.74,0a2.28,2.28,0,0,1,.9.12.38.38,0,0,1,.31.32.22.22,0,0,0,.12.15.8.8,0,0,1,.47.75.34.34,0,0,0,.15.32.4.4,0,0,1,0,.68,2.81,2.81,0,0,1-.5.22l-.27.11a1.07,1.07,0,0,1-.33.11c-.3,0-.61,0-.91,0l-.69,0s-.06-.11-.11-.18-.15-.19-.33-.12a2.18,2.18,0,0,0-.38.18.24.24,0,0,0-.12.28,2.46,2.46,0,0,0,.07.29,6.2,6.2,0,0,1,.27,1.13c0,.22.12.44.17.66a.92.92,0,0,1,0,.76.41.41,0,0,0,0,.22c0,.19.06.39.11.58a1,1,0,0,0,.13.27,1.32,1.32,0,0,1,.25.7,1.73,1.73,0,0,0,.2.62,1.18,1.18,0,0,1,.1.39c0,.21.06.42.08.63a.65.65,0,0,1-.6.8.85.85,0,0,1-1.05-.61,5.26,5.26,0,0,0-.34-.67,2.59,2.59,0,0,1-.2-.57,3.63,3.63,0,0,1,0-.81,2.19,2.19,0,0,0,0-1.19.11.11,0,0,1,0-.05.58.58,0,0,0-.33-.6.57.57,0,0,1-.12-.18c0-.11-.07-.22-.11-.33s-.15-.27-.09-.44,0-.07,0-.11l-.09-.4s0-.09,0-.12a.65.65,0,0,1,.16-.67.35.35,0,0,0,.07-.31.58.58,0,0,0,0-.14,1.09,1.09,0,0,1-.13-.61c0-.07-.05-.15-.09-.27a1.59,1.59,0,0,0-.12.16.19.19,0,0,1-.21.14c-.09,0-.12-.08-.14-.16s-.09-.17-.22-.16a2.58,2.58,0,0,0-.62,0s-.12,0-.18-.05c-.21-.09-.21-.1-.34.12l0,0a.54.54,0,0,1,0-.11.25.25,0,0,0-.26-.19,1.29,1.29,0,0,1-.64-.16c-.22-.1-.47-.16-.7-.25a2.26,2.26,0,0,1-.2-.13s0,0,0-.05l-.5-.82.29-.37h0s0,.08,0,.11a.36.36,0,0,0,0,.09c0,.05,0,.13,0,.16s.12,0,.17-.06Zm3.62.8c-.06.07-.11.1-.12.15s.08.24.15.21a.24.24,0,0,0,.12-.16C167.71,246.16,167.63,246.11,167.57,246Zm2.6,8.87-.31-.38C169.78,254.75,169.86,254.86,170.17,254.89Zm-.89-2.16c0-.15-.06-.22-.16-.2s-.12.1-.08.22Zm1.36-5.57c.11,0,.2,0,.23-.11s0-.09-.05-.09S170.64,247,170.64,247.16Zm2.56.1,0-.06s-.07,0-.1,0-.06,0-.06,0,0,.06,0,.06S173.17,247.27,173.2,247.26Z"/><path class="cls-7" d="M146.52,251.2c-.11-.14-.23-.11-.36-.11l-1.36.08"/><path class="cls-7" d="M179,248.15a.48.48,0,0,1-.27.27.69.69,0,0,0-.4.4"/><path class="cls-7" d="M188.35,246.91a.6.6,0,0,1,.16-.53s0-.06.05-.13"/><path class="cls-6" d="M110.43,252.79c0,.26-.26.26-.44.34,0,.12.09.15.19.11s.2-.06.34-.1a2.35,2.35,0,0,1,0,.34,1.76,1.76,0,0,1-.07.4,1.47,1.47,0,0,0,.07.72,1,1,0,0,0,.11-.48c0-.11,0-.11.12-.18a.83.83,0,0,1,.06.72.73.73,0,0,0-.11.38c0,.23,0,.33-.27.36l-.14,0c-.1.4-.29.37-.71.33-.11,0-.21-.08-.33,0a.16.16,0,0,1-.13,0,.88.88,0,0,0-.61-.27v-.18a.13.13,0,0,0-.12-.16c-.28,0-.34-.26-.37-.5s-.06-.25-.08-.37a.4.4,0,0,1,0-.24.6.6,0,0,0,0-.4c-.06-.14-.1-.27,0-.36-.06-.31-.13-.59-.17-.87,0-.07.06-.17.11-.24a1.17,1.17,0,0,1,.19-.14,1.72,1.72,0,0,1-.32-.79,1,1,0,0,0-.18-.38.8.8,0,0,1-.11-.35c0-.39-.09-.79-.14-1.18s0-.52-.08-.78c-.06-.6-.13-1.19-.18-1.79a4.82,4.82,0,0,1,0-.65.93.93,0,0,0-.09-.51c0-.09,0-.25,0-.37a2.27,2.27,0,0,0-.1-.9,1.18,1.18,0,0,1-.05-.42,5.61,5.61,0,0,1,0-.58.7.7,0,0,1,.06-.19c0-.06.07-.13.06-.19a.89.89,0,0,1,.14-.55c0-.09.08-.2.13-.32.15.14.34,0,.48.14s.09,0,.13,0l.22-.15a.78.78,0,0,1,.06.19.76.76,0,0,0,.25.52c.09.09.26.1.39.17a2.65,2.65,0,0,1,.4.24s0,.13,0,.2c0,.31,0,.62,0,.93,0,.64,0,1.27,0,1.9,0,.22,0,.44,0,.66a1.69,1.69,0,0,1,0,.55.31.31,0,0,0,0,.33l.19-.1s0,0,0,.06,0,.27,0,.4a.32.32,0,0,0,.12.29.4.4,0,0,1,.11.29c0,.29,0,.59,0,.89.23.09.16.29.19.46a2,2,0,0,1,0,.26,3.94,3.94,0,0,1,.09.76,2.86,2.86,0,0,1-.11.64.23.23,0,0,0,.13.27,2,2,0,0,1,.36.26c-.29.06-.35.23-.17.44A1.71,1.71,0,0,0,110.43,252.79ZM94.77,242c.47,0,.94.05,1.41.05a4.17,4.17,0,0,0,.78-.1m26.7,7.57c-.18,0-.25-.14-.28-.29s-.1-.59-.16-.91m-9.67-1.93a.45.45,0,0,0,.14-.19c.16-.3.3-.6.49-.89M150.06,253a.46.46,0,0,0,0-.2c-.09-.31-.19-.61-.28-.92m10.93-3.21-.09-.4s0-.09,0-.12m-20,4a3.06,3.06,0,0,1-.16-1,1.42,1.42,0,0,1,0-.46m28.36,1.13a1.12,1.12,0,0,1-.47-.62,3.25,3.25,0,0,1-.18-1.07M180.49,248a2.17,2.17,0,0,1,0-.95,5.67,5.67,0,0,0,0-.71m-71.27-3c0,.31,0,.62,0,.93,0,.64,0,1.27,0,1.9m.63,8.73c-.08,0-.13.07-.09.16s.06,0,.07,0S109.91,254.93,109.85,254.85Zm-2.46-11.75c0,.1,0,.18.07.25C107.52,243.24,107.47,243.18,107.39,243.1Zm0,5h-.06a.36.36,0,0,1,0,.09h0A.29.29,0,0,0,107.4,248.13Z"/></g><g class="cls-8"><path class="cls-9" d="M179.76,145.11s3.23,4.51,3.57,9.08c.23,3.09.62,6.31.6,7.26-.72,35.74-10.8,50.08-44.31,50.08-22.5,0-33.27-32.24-34.29-42.72-.66-6.76-5.24-9.64-8.11-12.71-3.07-3.29-6-6.23-7.83-12.28-1.26-4.14,1.73-10.35.14-14.12C85.65,120.46,91.15,109,91.15,109s-2.76,11.94,3.45,18.58c3.06,3.27-.78,11.48,2.4,14.73s4.31,5.54,7.43,1.33c2.43-3.26-.83-8.29-5.15-14.68a13.63,13.63,0,0,1-1.93-8.34s0,4.54,2.41,6.29,4.56,2.54,2.9-2c-.92-2.54-2-2.49-3-4.92s-.76-8.49-1.71-10.61c-2.68-6-6.33-5.72-6.33-5.72a11.23,11.23,0,0,1,8.47,4.56c.84,1.06,1.31,4.61,2.18,5.66,1.61,1.94,4.07-2.89,3.48-7.82-.84-5.49-1.16-7.31-3.34-9.73-2.86-3.2-4.74-2-7-5.52s.53-14.61.53-14.61.3,10.45,4.57,12.71c1.58.84,5.19,3.37,6.67,4.44,1.16.85,1.37,3.39,6,9.21,2.68,3.35,2.53,7.3,3.89,7.08,2.12-.35,5.33-3.85,2.67-13.41-1.69-6-5.36-6.26-9.31-8.7-2.68-2.29-5.5-3.52-7.84-8.15-2.79-5.53-1.76-8-1.35-10.72.84-5.82,7-10.24,7-10.24s-4.12,5.95-4.12,11.22a11.76,11.76,0,0,0,1.16,5,15.37,15.37,0,0,0,3.36,4.94c.83.77,4.49,3.83,7,2.88s2.39-3.5,2.09-6.25c-.52-3-8-9.26-8-9.26s9.19,3,10.68,7.87a25.56,25.56,0,0,1,1.07,6.53c-.1,2.62-.1,5.49,4.4,10,2.51,2.52,2.76,1.8,7.31,4.56,3.06,1.85,6,12.36,9.58,7,2.56-3.84-7.94-10.64-6.56-16,1.44-5.68-5.24-11.64-5.24-11.64s8.52,4,9.1,10.8c.32,3.71,3.17,8.41,7.11,7.94A6.71,6.71,0,0,0,153,89.23c.35-1.09.65-2.71-.14-7.36-1.13-6.7-9.06-13.3-9.06-13.3a22.17,22.17,0,0,1,13.83,14c.9,2.75,1.39,9.69-.18,11.34-9.09,9.57-7.07,16.36-6.9,17.61.34,2.52,3.8,6.26,3.8,10.11,0,2.5.54,3.9,2.62,4.4,3,.74-.09-6.84,1.83-11.06,2.1-4.61,2.79-3.43,5.38-6.73,2.12-2.69-3.26-11.53-3.26-11.53s5.92,3.46,7.46,9c.95,3.43-1.57,6.75-4,10-2,2.7,3.79,7,2.83,11.53-1.34,6.32-4.86,12.61.19,19a40.78,40.78,0,0,0,4.38-7.69c2.74-6.33-1.09-16.88-1.09-16.88a31.08,31.08,0,0,1,5.93,17.46c.1,2.55-1.58,14.37-1.73,16.91-.31,5.54,2,5.34,4,3.07.63-.69,1.17-2.81,1.59-5.06C181.22,150.73,179.76,145.11,179.76,145.11Z"/><path class="cls-5" d="M179,145.57a22.14,22.14,0,0,1,2,3.45,22.86,22.86,0,0,1,1.72,7.92,51.26,51.26,0,0,1,.33,6.32c-.07,2.17-.17,4.35-.33,6.52-.52,7.1-1.55,14.33-4.23,21a28.93,28.93,0,0,1-10,13.11c-5.14,3.59-11.34,5.3-17.49,6.1-7.23.95-15.09,1.55-21.73-2-6.16-3.28-10.76-8.9-14.25-14.83a71.84,71.84,0,0,1-7.37-17.75,46.86,46.86,0,0,1-1.3-6.53,17,17,0,0,0-5.39-10.5c-2.77-2.74-5.69-5.41-7.81-8.7a19.31,19.31,0,0,1-3-6.86c-.39-2.26.19-4.63.51-6.86a14,14,0,0,0,0-5.94c-.33-1.12-.81-2.17-1.08-3.31a19,19,0,0,1-.46-3.68,31.41,31.41,0,0,1,2.1-11.73c.23-.63.47-1.26.76-1.86l-1.66-.71a28.7,28.7,0,0,0-.45,9.69,18.84,18.84,0,0,0,2.4,7.49c.64,1,1.68,1.91,2.21,3a7.81,7.81,0,0,1,.53,3.55c0,2.48-.48,5,0,7.47s2.45,4.42,4.3,5.9c2.13,1.71,4.11.66,5.64-1.28a6.41,6.41,0,0,0,.76-6.42c-1.28-3.68-3.77-6.72-5.78-10a12.13,12.13,0,0,1-1.58-7.53H96.44c0,2.53.75,5.5,2.86,7.08.89.67,2.15,1.6,3.33,1.53s1.63-1.32,1.49-2.42a10.41,10.41,0,0,0-2.36-5.15,9,9,0,0,1-1.82-4.93c-.22-1.86-.29-3.74-.58-5.6a11.12,11.12,0,0,0-2.15-4.94c-1.21-1.66-3.3-3.57-5.55-3.44-1.16.06-1.18,1.85,0,1.82a8.42,8.42,0,0,1,3.68.92,11.47,11.47,0,0,1,3.29,2.4,7.25,7.25,0,0,1,1.7,3.41c.43,1.45,1,4.29,3.13,3.89s2.77-3.31,3.07-4.92a22.19,22.19,0,0,0-.55-8.58,12.35,12.35,0,0,0-2.22-5.21A11.63,11.63,0,0,0,101.19,94c-.93-.65-2-1-3-1.62a5.88,5.88,0,0,1-2.8-5.13A37,37,0,0,1,96.8,76.42L95,76.18a31.67,31.67,0,0,0,1,7,14.24,14.24,0,0,0,1.89,4.47,11.33,11.33,0,0,0,3.67,2.92,39.13,39.13,0,0,1,5,3.43,7.83,7.83,0,0,1,1.38,2.3,40.58,40.58,0,0,0,3.29,5.19,26.77,26.77,0,0,1,2.39,3.41,29.06,29.06,0,0,1,1.33,3.39c.42,1.17,1,2.48,2.5,2.13a4.42,4.42,0,0,0,2.33-1.53c2.3-2.71,2.06-6.84,1.48-10.11a16.25,16.25,0,0,0-2.54-6.88,11.78,11.78,0,0,0-4.22-3.31c-3.62-1.85-7.42-4.12-9.82-7.51a15.72,15.72,0,0,1-3.06-7.89,18.78,18.78,0,0,1,.72-5.52c.91-3.36,3.73-6.65,6.31-8.52l-1.25-1.25a24.39,24.39,0,0,0-4,9.44A14.77,14.77,0,0,0,108,80.18c2.3,2.15,6.51,4.88,9.42,2.25,1.55-1.4,1.5-3.63,1.31-5.55a7.38,7.38,0,0,0-1.77-4,43.55,43.55,0,0,0-6.55-6.61l-.88,1.53a27.3,27.3,0,0,1,5.63,2.65,12.08,12.08,0,0,1,3.74,3.26c1.09,1.6,1.36,3.85,1.59,5.72.16,1.4,0,2.8.16,4.2A10.7,10.7,0,0,0,122,87.9a17,17,0,0,0,7.18,6.83,13.87,13.87,0,0,1,4.31,2.63,24.57,24.57,0,0,1,2.39,3.5c1.09,1.72,2.89,5,5.42,4.38s3.19-3.63,2.29-5.76c-1.21-2.83-3.53-5.08-5.14-7.67-.8-1.29-1.64-2.82-1.44-4.39a10.72,10.72,0,0,0-.41-5.75,19,19,0,0,0-5-7.08L130.53,76a18.49,18.49,0,0,1,6.69,5.33,10.47,10.47,0,0,1,1.56,2.86c.39,1.18.39,2.41.7,3.6a10.58,10.58,0,0,0,3.57,5.79c4,3.05,9.45.25,10.85-4.13a11.78,11.78,0,0,0,.29-4.73,19.69,19.69,0,0,0-2-7.41,31.7,31.7,0,0,0-7.77-9.4l-.89,1.52c5.52,1.59,10.24,6.35,12.49,11.49a18.56,18.56,0,0,1,1.45,6.27c.12,1.73.33,4-.44,5.65a16.9,16.9,0,0,1-2.38,2.85,31.33,31.33,0,0,0-2.42,3.44,21.16,21.16,0,0,0-2.38,5.5,15.67,15.67,0,0,0-.25,6.81,15.31,15.31,0,0,0,1.91,4.6,20.16,20.16,0,0,1,1.51,3.31,23,23,0,0,1,.5,3.87,4.08,4.08,0,0,0,3.18,3.67c1.44.32,2.32-.59,2.5-2a33.33,33.33,0,0,0-.17-5.28,10.82,10.82,0,0,1,1.75-6.54c1-1.54,2.63-2.53,3.79-3.95a5.1,5.1,0,0,0,.75-4.64,28.27,28.27,0,0,0-3.64-8.29l-1.24,1.25a17.71,17.71,0,0,1,4.85,4.32,9.63,9.63,0,0,1,2.36,5.31c.08,2.46-1.56,4.73-2.93,6.64-.94,1.32-1.87,2.35-1.55,4a14.92,14.92,0,0,0,1.78,4c.78,1.46,1.64,3.11,1.47,4.83a44.37,44.37,0,0,1-1.65,6.36c-1.26,4.86-1.29,9.58,1.87,13.74a.93.93,0,0,0,1.58,0c3-4,5.49-8.72,5.49-13.79a35,35,0,0,0-2.11-11.49l-1.53.89s.12.15.32.44c.38.52.72,1.06,1,1.62a29.28,29.28,0,0,1,2.64,5.78,30,30,0,0,1,1.66,9.09,39.27,39.27,0,0,1-.37,4.84c-.43,3.94-1.1,7.89-1.35,11.85-.11,1.67-.21,4.72,1.78,5.45,1.46.54,3.08-.69,3.93-1.78a10,10,0,0,0,1.44-4,17.22,17.22,0,0,0,.43-4.47,32.13,32.13,0,0,0-1-6.32.91.91,0,0,0-1.75.49c1,4.06,1.46,8.46-.17,12.44-.38.91-2.13,2.95-2.67,1.18-.49-1.58-.15-3.45,0-5.07.45-3.95,1-7.9,1.36-11.86a30.32,30.32,0,0,0-1.78-13,27.09,27.09,0,0,0-4.26-8c-.57-.7-1.82.05-1.52.89a33.59,33.59,0,0,1,2,10.67c.08,4.88-2.34,9.38-5.24,13.2h1.58a11.41,11.41,0,0,1-2.52-7,23.62,23.62,0,0,1,1.09-6.34c.55-2,1.41-4.11,1.47-6.19a10,10,0,0,0-1.3-4.61c-.68-1.36-1.86-2.85-2-4.4-.09-.8.37-1.27.82-1.89a34.63,34.63,0,0,0,2.16-3.21,9.32,9.32,0,0,0,1.49-5.93,11.76,11.76,0,0,0-2.31-5.11,19.45,19.45,0,0,0-5.73-5.26.92.92,0,0,0-1.25,1.24,31.05,31.05,0,0,1,3.16,6.76c.38,1.25.86,2.82,0,4S161,110,160,111.21a11.66,11.66,0,0,0-2.52,5.16,24,24,0,0,0,0,6,11.66,11.66,0,0,1,.05,2.21c-.08.68,0,.72-.69.45-2.06-.8-1.34-3.71-1.75-5.42-.8-3.29-3.25-5.88-3.73-9.25a14.42,14.42,0,0,1,1.18-7.62,25.89,25.89,0,0,1,4.07-6.41,18.2,18.2,0,0,0,2-2.37,6.45,6.45,0,0,0,.67-2.33A21.74,21.74,0,0,0,157.64,80c-2.46-5.55-7.63-10.61-13.58-12.33-.83-.24-1.61.93-.89,1.53a33.19,33.19,0,0,1,6.07,6.68A16.31,16.31,0,0,1,152,82.11a16.77,16.77,0,0,1,.34,6.11c-.83,4.23-6,6.58-9.1,3.07-1.66-1.89-1.94-4.05-2.4-6.41a11.77,11.77,0,0,0-2.54-5.09,20.34,20.34,0,0,0-6.85-5.35c-.88-.41-1.93.7-1.11,1.44a18.44,18.44,0,0,1,4.11,5.34,8.3,8.3,0,0,1,.9,5.41,6.59,6.59,0,0,0,.33,3.7c1.07,2.8,3.17,5.06,4.86,7.49a8.72,8.72,0,0,1,1.71,3.31c.13.85-.43,2.22-1.41,2.36-.81.11-1.61-1-2-1.57-.87-1.14-1.57-2.41-2.35-3.61a12.45,12.45,0,0,0-2.26-2.84A22.51,22.51,0,0,0,129.81,93a14.6,14.6,0,0,1-6.69-7,9.3,9.3,0,0,1-.73-3.9,24.59,24.59,0,0,0-.38-4.61,11.33,11.33,0,0,0-2-5.34,14.54,14.54,0,0,0-3.83-3.24A29.4,29.4,0,0,0,110,66a.92.92,0,0,0-.89,1.52,59.73,59.73,0,0,1,4.49,4.22,20.15,20.15,0,0,1,2.68,3.3,6.74,6.74,0,0,1,.67,4.33c-.6,4.41-5.76,1.23-7.58-.42a13,13,0,0,1-4.18-11.3A23.33,23.33,0,0,1,109,58.86c.51-.73-.51-1.78-1.25-1.25a21.25,21.25,0,0,0-5.46,5.88,14.8,14.8,0,0,0-2,5.56,18.5,18.5,0,0,0-.42,4.45,17.88,17.88,0,0,0,6.27,11.77,31.19,31.19,0,0,0,4.54,3.42c1.55.88,3.24,1.53,4.72,2.53a8.8,8.8,0,0,1,3.44,5,21.52,21.52,0,0,1,1,7.21,7.49,7.49,0,0,1-1.25,4.09,3.09,3.09,0,0,1-.86.83c-.15.1-.31.15-.45.24s-.34,0-.14.11c-.43-.34-.6-1.52-.77-2a19.06,19.06,0,0,0-1.42-3.24c-1.26-2.17-3-4-4.34-6.19-.68-1.14-1.22-2.34-1.89-3.48a7.3,7.3,0,0,0-2.35-2.17c-1.77-1.25-3.56-2.43-5.41-3.55A7.13,7.13,0,0,1,98.18,84a27.37,27.37,0,0,1-1.34-7.83.92.92,0,0,0-1.79-.25,48.09,48.09,0,0,0-1.41,8.67,14.28,14.28,0,0,0,.45,5.56,7.92,7.92,0,0,0,4,4.22A10.88,10.88,0,0,1,103,98.54a17.32,17.32,0,0,1,1.67,6c.41,2.57.74,6.29-1.14,8.45-.58.68-.72-.07-1-.73-.41-1.16-.65-2.39-1.11-3.54-1.38-3.41-6.12-6.12-9.78-6v1.82a5,5,0,0,1,3.22,1.66c2.34,2.38,2.75,5.17,3,8.33.25,2.82.41,5.63,2.21,7.95a9.47,9.47,0,0,1,2.18,4.4,2,2,0,0,1,0,.6c0,.11.24-.09.13-.11a3.38,3.38,0,0,1-1.24-.59c-2.18-1.34-2.94-3.72-3-6.19a.91.91,0,0,0-1.82,0,14,14,0,0,0,.4,5c.8,3.17,3,5.68,4.68,8.42,1.27,2.09,3,4.71,2.82,7.28a4.61,4.61,0,0,1-1.64,2.95,1.58,1.58,0,0,1-2.51,0c-1.75-1.49-3.41-3.17-3.59-5.55s.24-4.67.18-7a9.68,9.68,0,0,0-.44-2.93,9.41,9.41,0,0,0-1.81-2.7,15.5,15.5,0,0,1-2.73-6.69A26.19,26.19,0,0,1,92,109.22c.22-1-1.2-1.68-1.66-.7-3,6.29-4.38,14.43-1.85,21.07,1.68,4.4-1,9-.21,13.56S92,151.77,95,155.07c2.62,2.86,6,5.33,7.87,8.77,1.54,2.79,1.54,6,2.18,9a72.27,72.27,0,0,0,6.42,17.83c3.28,6.41,7.62,12.54,13.5,16.82a25.82,25.82,0,0,0,9.44,4.35c3.87.86,7.93.63,11.86.36,6.83-.46,13.8-1.68,19.91-4.9a29.38,29.38,0,0,0,12.05-12c3.31-6.06,4.8-12.94,5.65-19.73a130.23,130.23,0,0,0,.92-13.09,62.42,62.42,0,0,0-.47-7,21.29,21.29,0,0,0-1.77-7.32,22.1,22.1,0,0,0-2-3.61C179.88,143.7,178.3,144.61,179,145.57Z"/><path class="cls-10" d="M178.32,183.22c0,.49-.31,1.57-.3,2.05,0,.82,0,1.63-.05,2.43a10.26,10.26,0,0,1-.93,3.37c-.24.67.46,1.85.47,2.74,0,2.16-4.63,13.26-11.2,17.39-1.16.73-13.27,4.51-14.11,4.47-.37,0-3.3.3-3.52.3-18.28,0-32.51-12.8-32.51-30.32,0-16.05,3.2-18.23,6.85-32,3-11.3-6.59-6.67-2.28-18.52,1-2.18,3.43-3.87,5.55-5.29,2.36-2.29-1.69-3.13,1.65-6.61-1.56,4.56,3.33,4,1.55,7.63-2.43,3.83-4.52,4.16-4.07,7.71.94,5.3,7.58,2.64,8.92,7.73,4,15.1,12.18,6.58,9.59-7.25-1-5-6.31-9.2-9.88-15.16a15.79,15.79,0,0,1-1.48-8.34,21.22,21.22,0,0,1,1.07-5,5.73,5.73,0,0,0-1.81-6.46s4.56,2.51,4.34,6.31a26.27,26.27,0,0,0,.22,5.34A12.71,12.71,0,0,0,141,124.2c4,2,5.14-2.1,4.38-6.08a18.77,18.77,0,0,0-2.9-6.31s8.18,4.09,6.59,16.53c-3.3,14.2,10.63,20,20.34,35.11,1.72,2.67,3.06,4.63,4.13,6.33.35.56,2.36,1.77,2.65,2.28C178.06,175.36,176.78,181.12,178.32,183.22Z"/><path class="cls-5" d="M177.4,183.22c0,.69-.26,1.36-.3,2.05a17.36,17.36,0,0,1-.21,3.53c-.18.69-.55,1.34-.73,2a4,4,0,0,0,.24,2.1c.52,1.79-.59,3.84-1.33,5.46a37,37,0,0,1-4.67,7.75c-1.41,1.76-3.16,3.77-5.29,4.6a94.42,94.42,0,0,1-12.3,3.89,21.38,21.38,0,0,1-4.67.42,35.44,35.44,0,0,1-9.81-1.49c-12.16-3.67-21-14.38-21.24-27.22a58,58,0,0,1,2.53-19c.88-2.71,1.86-5.38,2.72-8.1,1-3,2.21-6.33,2.19-9.56a7.7,7.7,0,0,0-1.77-4.91c-.9-1.13-1.94-2.12-2.18-3.62a9.69,9.69,0,0,1,3-8.21c1.93-1.74,5.11-2.79,4.14-5.9a2.8,2.8,0,0,1,.84-3.2l-1.52-.89a4.67,4.67,0,0,0,.28,4c.45.74,1.53,1.4,1.63,2.31s-.59,1.59-1,2.19c-.64.85-1.37,1.62-2,2.44a5.85,5.85,0,0,0-1.43,4.25c.26,3.44,3,4.46,5.82,5.45a4.4,4.4,0,0,1,3.09,2.59,33.49,33.49,0,0,0,2.11,5.63c1.07,1.89,3,4,5.41,3.12s3.37-3.63,3.88-5.77a22.31,22.31,0,0,0-.29-11.64c-1.26-3.82-4.26-6.84-6.69-9.93-1.84-2.35-3.49-4.66-4.09-7.63a17.2,17.2,0,0,1,.57-8.45c.6-2,.93-3.84,0-5.81a6.68,6.68,0,0,0-2-2.45l-.92,1.57a7.84,7.84,0,0,1,3.72,4.12,7.65,7.65,0,0,1,.13,2.48,25.2,25.2,0,0,0,.12,3.13,18.39,18.39,0,0,0,1.22,5.17c1.06,2.57,3.32,6.06,6.51,5.83,2.74-.19,3.47-3.32,3.41-5.57a16,16,0,0,0-3.23-8.68L142,112.6a11.9,11.9,0,0,1,5,5.79,18,18,0,0,1,1.25,8.74c-.13,1.61-.56,3.18-.61,4.81A16.52,16.52,0,0,0,148,136c1.22,5.53,5.28,9.93,9,14,2.38,2.56,4.78,5.08,7,7.77a105.78,105.78,0,0,1,6.75,9.53,16.81,16.81,0,0,0,2.64,3.7c.55.47,1.22.83,1.72,1.35a4,4,0,0,1,.86,1.91,32,32,0,0,1,.51,5.36,8.32,8.32,0,0,0,1,4.08c.65,1,2.23.06,1.57-.92a7.65,7.65,0,0,1-.77-3.82,33.67,33.67,0,0,0-.44-4.7,5.69,5.69,0,0,0-1.61-3.36c-.49-.42-1-.77-1.54-1.19a5.55,5.55,0,0,1-1.11-1.43c-2-3.17-4.07-6.4-6.37-9.41s-4.63-5.56-7.09-8.21c-3.94-4.22-8.65-8.65-10.2-14.41a14.46,14.46,0,0,1-.5-4.14c0-1.62.46-3.16.6-4.76a19.88,19.88,0,0,0-1.1-8.92c-1.11-2.88-3.21-5.94-6.05-7.38-.74-.38-1.83.44-1.25,1.24,1.83,2.52,3.29,5.74,3,8.91-.14,1.39-.74,2.95-2.42,2.52-1.88-.49-3.27-2.93-4-4.59a17.88,17.88,0,0,1-1.19-6.1c-.06-1.75.26-3.48-.44-5.13a10,10,0,0,0-4.32-4.58c-1-.59-1.84.89-.92,1.57-.25-.18.25.24.35.35a5.08,5.08,0,0,1,1,1.45c.82,1.87,0,3.57-.46,5.41-1,4-1,8.72,1.13,12.43s5.12,6.53,7.45,9.94A16.91,16.91,0,0,1,143.5,145c-.08,2.5-.46,5.75-2.29,7.65-1.56,1.61-3.11,0-4-1.44a25.66,25.66,0,0,1-2.07-5.43,5.45,5.45,0,0,0-2.31-3c-1.92-1.2-5.25-1.15-6.25-3.49-1.72-4,3.74-5.92,4.18-9.49a3.55,3.55,0,0,0-1.14-2.88,3.06,3.06,0,0,1-.8-3.47.92.92,0,0,0-1.53-.89,4.84,4.84,0,0,0-1.63,3.66c.07.79.76,1.77.35,2.52s-1.5,1.18-2.12,1.64a17.82,17.82,0,0,0-2.29,2,10.06,10.06,0,0,0-2.41,4.64c-.56,2.13-.81,4.46.27,6.47.72,1.35,2,2.31,2.69,3.68,1.22,2.43.24,5.42-.45,7.86-.9,3.21-2,6.36-3,9.52a60.71,60.71,0,0,0-3.35,18.36c-.18,6.77.92,13.29,4.59,19.1a31.56,31.56,0,0,0,14.17,12,36.08,36.08,0,0,0,9.56,2.62,38.94,38.94,0,0,0,8.29,0,21.23,21.23,0,0,0,4.5-1.08c2.45-.73,4.89-1.5,7.31-2.33a14.22,14.22,0,0,0,5-2.6,29.08,29.08,0,0,0,6-7.53A34.71,34.71,0,0,0,178,195.8a6,6,0,0,0,.37-2.29c-.08-.8-.56-1.56-.42-2.35s.64-1.58.79-2.42a21.64,21.64,0,0,0,.16-3.22c0-.78.27-1.52.3-2.3C179.27,182.05,177.45,182.05,177.4,183.22Z"/><path class="cls-5" d="M162.76,172.85l2-1,1.17-.62a1.83,1.83,0,0,0,.24-.13c-.11.1-.29.11,0,0,.47-.15.94-.33,1.41-.5a6.7,6.7,0,0,1,1.87-.61,8.14,8.14,0,0,1,3.19.85,21.87,21.87,0,0,1,2.12,1,.91.91,0,0,0,.92-1.57,15,15,0,0,0-5.74-2.12c-1.37-.13-2.6.58-3.87,1a10.44,10.44,0,0,0-1.6.72l-2.58,1.37c-1,.55-.11,2.12.92,1.57Z"/><path class="cls-5" d="M136.92,180.94c.58-2.53,3.33-4.08,5.6-4.87s5.33-1.34,7.49.05c1,.64,1.9-.94.92-1.58-2.61-1.68-6.3-1.16-9.06-.17s-6,3-6.71,6.08c-.26,1.15,1.49,1.63,1.76.49Z"/><path class="cls-5" d="M141.8,194.77a15.43,15.43,0,0,0,7.47-.65c2-.67,4.38-1.94,4.82-4.23.1-.57-.78-.82-.88-.24-.39,2.06-2.65,3.12-4.46,3.68a14.42,14.42,0,0,1-6.71.56c-.57-.1-.82.77-.24.88Z"/><circle class="cls-11" cx="163.5" cy="201.95" r="5.24"/><circle class="cls-11" cx="170.6" cy="179.48" r="7.42"/><circle class="cls-11" cx="145.59" cy="184.74" r="7.42"/><path class="cls-5" d="M177.58,184.62a5.65,5.65,0,0,1-2.15,2.43,11.68,11.68,0,0,1-1.31.79l-.3.13c-.07,0,.07,0,0,0l-.09,0-.21.06-.08,0c.1,0,.1,0,0,0a.46.46,0,0,0,0,.92,2.25,2.25,0,0,0,.8-.24,7.88,7.88,0,0,0,1-.54,9.33,9.33,0,0,0,2.3-1.89,4.8,4.8,0,0,0,.89-1.49.46.46,0,0,0-.32-.56.47.47,0,0,0-.56.32Z"/><circle class="cls-12" cx="142.73" cy="182.91" r="2.86"/><circle class="cls-12" cx="168.42" cy="177.32" r="2.86"/><circle class="cls-12" cx="149.83" cy="188.82" r="0.95"/><circle class="cls-12" cx="175.17" cy="183.43" r="0.95"/></g></g></g></svg>