<svg xmlns="http://www.w3.org/2000/svg" width="140" height="117" viewBox="0 0 140 117">
  <defs>
    <style>
      .cls-1 {
        fill: #ccc;
        stroke: #000;
        stroke-width: 1px;
        fill-rule: evenodd;
      }
    </style>
  </defs>
  <path id="fa-bars_xf0c9_1" data-name="fa-bars [&amp;#xf0c9;] 1" class="cls-1" d="M137.269,94.683a5.529,5.529,0,0,0-4.042-1.706H6.749a5.526,5.526,0,0,0-4.042,1.706A5.523,5.523,0,0,0,1,98.724v11.5a5.519,5.519,0,0,0,1.707,4.041,5.521,5.521,0,0,0,4.042,1.706H133.227a5.828,5.828,0,0,0,5.749-5.747v-11.5A5.528,5.528,0,0,0,137.269,94.683Zm0-45.981A5.529,5.529,0,0,0,133.227,47H6.749A5.526,5.526,0,0,0,2.707,48.7,5.523,5.523,0,0,0,1,52.744v11.5A5.518,5.518,0,0,0,2.707,68.28a5.521,5.521,0,0,0,4.042,1.706H133.227a5.829,5.829,0,0,0,5.749-5.748v-11.5A5.528,5.528,0,0,0,137.269,48.7Zm0-45.981a5.529,5.529,0,0,0-4.042-1.706H6.749A5.526,5.526,0,0,0,2.707,2.721,5.523,5.523,0,0,0,1,6.763v11.5A5.518,5.518,0,0,0,2.707,22.3a5.521,5.521,0,0,0,4.042,1.706H133.227a5.829,5.829,0,0,0,5.749-5.748V6.763A5.528,5.528,0,0,0,137.269,2.721Z"/>
</svg>
