<svg xmlns="http://www.w3.org/2000/svg" width="373" height="49" viewBox="0 0 373 49">
  <defs>
    <style>
      .cls-1 {
        fill: #ccc;
        stroke: #000;
        stroke-width: 1px;
        fill-rule: evenodd;
      }
    </style>
  </defs>
  <path id="fa-facebook-square_xf082_1" data-name="fa-facebook-square [&amp;#xf082;] 1" class="cls-1" d="M9.436,1.985A8.238,8.238,0,0,0,3.475,4.394,7.8,7.8,0,0,0,1,10.2V37.567a7.8,7.8,0,0,0,2.475,5.8,8.238,8.238,0,0,0,5.961,2.409H25.019V28.814H19.161V22.2h5.858V17.324a8.489,8.489,0,0,1,2.387-6.443A8.839,8.839,0,0,1,33.778,8.6a40.332,40.332,0,0,1,5.214.257v5.9l-3.574.029a3.476,3.476,0,0,0-2.68.8,3.586,3.586,0,0,0-.688,2.395V22.2h6.708l-0.879,6.615H32.049V45.778h5.507a8.239,8.239,0,0,0,5.961-2.409,7.8,7.8,0,0,0,2.475-5.8V10.2a7.806,7.806,0,0,0-2.475-5.8,8.24,8.24,0,0,0-5.961-2.409H9.436Z"/>
  <path id="fa-envelope_xf0e0_1" data-name="fa-envelope [&amp;#xf0e0;] 1" class="cls-1" d="M129.931,18.3q-10.068,7.1-15.285,11.027-1.749,1.342-2.839,2.094a17.254,17.254,0,0,1-2.9,1.534,8.547,8.547,0,0,1-3.376.783h-0.062a8.544,8.544,0,0,1-3.376-.783,17.261,17.261,0,0,1-2.9-1.534q-1.09-.751-2.839-2.094Q92.21,26.159,81.1,18.3A16.469,16.469,0,0,1,78,15.516V40.894a5.028,5.028,0,0,0,1.442,3.612,4.637,4.637,0,0,0,3.468,1.5h45.178a4.637,4.637,0,0,0,3.468-1.5A5.028,5.028,0,0,0,133,40.894V15.516a17.167,17.167,0,0,1-3.069,2.781h0Zm1.611-15.789a4.653,4.653,0,0,0-3.453-1.5H82.911a4.31,4.31,0,0,0-3.637,1.662A6.63,6.63,0,0,0,78,6.822a7.64,7.64,0,0,0,1.688,4.363,15.543,15.543,0,0,0,3.591,3.692q1.043,0.767,6.292,4.555t8.041,5.833q0.306,0.224,1.3.975t1.657,1.215q0.66,0.464,1.6,1.039a9.114,9.114,0,0,0,1.765.863,4.7,4.7,0,0,0,1.534.288h0.062a4.7,4.7,0,0,0,1.534-.288,9.114,9.114,0,0,0,1.765-.863q0.936-.575,1.6-1.039t1.657-1.215q1-.751,1.305-0.975,2.823-2.045,14.364-10.387a14.934,14.934,0,0,0,3.744-3.931A8.693,8.693,0,0,0,133,6.119,5,5,0,0,0,131.542,2.508Z"/>
  <path id="fa-home_xf015_1" data-name="fa-home [&amp;#xf015;] 1" class="cls-1" d="M205.378,26.716l-18.9-16.609-18.9,16.609a0.511,0.511,0,0,1-.017.105,0.505,0.505,0,0,0-.016.105V43.745a2.227,2.227,0,0,0,.624,1.577,1.96,1.96,0,0,0,1.479.666h12.619V32.532h8.413V45.987h12.619a1.964,1.964,0,0,0,1.479-.666,2.227,2.227,0,0,0,.624-1.577V26.926a0.517,0.517,0,0,0-.033-0.21h0Zm7.591-3.031a1.041,1.041,0,0,0-.361-0.753l-7.2-6.377V2.258a1.132,1.132,0,0,0-.3-0.806,0.99,0.99,0,0,0-.756-0.315H198.05a0.99,0.99,0,0,0-.756.315,1.132,1.132,0,0,0-.3.806V9.091L188.98,1.943a3.879,3.879,0,0,0-4.995,0L160.357,22.931a1.038,1.038,0,0,0-.361.753,1.184,1.184,0,0,0,.23.823l2.037,2.593a1.1,1.1,0,0,0,.69.385,1.165,1.165,0,0,0,.789-0.245l22.74-20.218,22.741,20.218a0.969,0.969,0,0,0,.69.245h0.1a1.1,1.1,0,0,0,.69-0.385l2.037-2.593A1.189,1.189,0,0,0,212.969,23.685Z"/>
  <path id="fa-instagram_xf16d_1" data-name="fa-instagram [&amp;#xf16d;] 1" class="cls-1" d="M278.368,42.268a1.743,1.743,0,0,1-1.259.513H245.8a1.75,1.75,0,0,1-1.787-1.787V22.012h4.13a12.593,12.593,0,0,0-.586,3.837,12.862,12.862,0,0,0,4.1,9.593,13.682,13.682,0,0,0,9.871,3.969,14.07,14.07,0,0,0,7.03-1.816,13.668,13.668,0,0,0,5.1-4.936,12.978,12.978,0,0,0,1.875-6.811,12.624,12.624,0,0,0-.586-3.837H278.9V40.993A1.7,1.7,0,0,1,278.368,42.268Zm-16.843-8.129a8.838,8.838,0,0,1-6.371-2.563,8.565,8.565,0,0,1,0-12.391,9.237,9.237,0,0,1,12.772,0,8.565,8.565,0,0,1,0,12.391,8.875,8.875,0,0,1-6.4,2.563h0ZM278.31,16.27a1.953,1.953,0,0,1-1.436.586h-5.1a2,2,0,0,1-2.022-2.021V10a1.965,1.965,0,0,1,.586-1.421,1.93,1.93,0,0,1,1.436-.6h5.1a1.932,1.932,0,0,1,1.436.6A1.968,1.968,0,0,1,278.9,10v4.833A1.953,1.953,0,0,1,278.31,16.27Zm3.983-11.6a5.556,5.556,0,0,0-4.071-1.7H244.77a5.554,5.554,0,0,0-4.071,1.7A5.553,5.553,0,0,0,239,8.742V42.194a5.8,5.8,0,0,0,5.77,5.771h33.452a5.8,5.8,0,0,0,5.77-5.771V8.742A5.553,5.553,0,0,0,282.293,4.67Z"/>
  <path id="fa-youtube-play_xf16a_1" data-name="fa-youtube-play [&amp;#xf16a;] 1" class="cls-1" d="M352.34,27.31L333.769,38.056a2.186,2.186,0,0,1-1.233.336,2.667,2.667,0,0,1-1.125-.269,1.983,1.983,0,0,1-1.2-1.881V14.751a1.984,1.984,0,0,1,1.2-1.881,2.336,2.336,0,0,1,2.358.067L352.34,23.683a2.054,2.054,0,0,1,0,3.627h0Zm19.315-11.434a38.739,38.739,0,0,0-.779-4.953,7.7,7.7,0,0,0-2.521-4.13,8.021,8.021,0,0,0-4.516-1.948q-8.053-.839-24.339-0.839t-24.339.839a7.924,7.924,0,0,0-4.5,1.948,7.716,7.716,0,0,0-2.5,4.13,34.484,34.484,0,0,0-.816,4.953q-0.273,2.77-.309,4.584T307,25.5q0,3.224.036,5.037t0.309,4.584a38.546,38.546,0,0,0,.779,4.953,7.681,7.681,0,0,0,2.521,4.13,8.011,8.011,0,0,0,4.516,1.948q8.053,0.84,24.339.839t24.339-.839a7.924,7.924,0,0,0,4.5-1.948,7.724,7.724,0,0,0,2.5-4.13,34.47,34.47,0,0,0,.816-4.953q0.273-2.77.309-4.584T372,25.5q0-3.224-.036-5.037T371.655,15.876Z"/>
</svg>
