<svg xmlns="http://www.w3.org/2000/svg" width="37" height="134" viewBox="0 0 37 134">
  <defs>
    <style>
      .cls-1 {
        fill: #fff;
        stroke: #000;
        stroke-width: 1px;
        fill-rule: evenodd;
      }
    </style>
  </defs>
  <path id="fa-instagram_xf16d_1" data-name="fa-instagram [&amp;#xf16d;] 1" class="cls-1" d="M31.62,31.531a1.356,1.356,0,0,1-.98.4H6.286A1.362,1.362,0,0,1,4.9,30.54V15.781H8.108a9.791,9.791,0,0,0-.456,2.984,10,10,0,0,0,3.19,7.459A10.643,10.643,0,0,0,18.52,29.31,10.949,10.949,0,0,0,23.988,27.9a10.629,10.629,0,0,0,3.964-3.838,10.092,10.092,0,0,0,1.458-5.3,9.8,9.8,0,0,0-.456-2.984H32.03V30.54A1.325,1.325,0,0,1,31.62,31.531Zm-13.1-6.32a6.874,6.874,0,0,1-4.955-1.993,6.658,6.658,0,0,1,0-9.634,6.875,6.875,0,0,1,4.955-1.993A6.9,6.9,0,0,1,23.5,13.584a6.658,6.658,0,0,1,0,9.634A6.9,6.9,0,0,1,18.52,25.21h0ZM31.574,11.317a1.518,1.518,0,0,1-1.116.456H26.494A1.556,1.556,0,0,1,24.922,10.2V6.443a1.528,1.528,0,0,1,.456-1.1,1.5,1.5,0,0,1,1.116-.467h3.964a1.5,1.5,0,0,1,1.116.467,1.529,1.529,0,0,1,.456,1.1V10.2A1.517,1.517,0,0,1,31.574,11.317Zm3.1-9.019A4.322,4.322,0,0,0,31.506.977H5.488A4.321,4.321,0,0,0,2.321,2.3,4.318,4.318,0,0,0,1,5.464v26.01a4.318,4.318,0,0,0,1.321,3.166A4.321,4.321,0,0,0,5.488,35.96H31.506a4.511,4.511,0,0,0,4.488-4.487V5.464A4.319,4.319,0,0,0,34.673,2.3Z"/>
  <path id="fa-youtube-play_xf16a_1" data-name="fa-youtube-play [&amp;#xf16a;] 1" class="cls-1" d="M25.414,68.021l-10,6a1.145,1.145,0,0,1-.664.188,1.392,1.392,0,0,1-.605-0.15,1.112,1.112,0,0,1-.645-1.05v-12a1.112,1.112,0,0,1,.645-1.05,1.219,1.219,0,0,1,1.269.038l10,6a1.168,1.168,0,0,1,0,2.026h0Zm10.4-6.387a22.372,22.372,0,0,0-.42-2.767,4.324,4.324,0,0,0-1.357-2.307,4.242,4.242,0,0,0-2.432-1.088Q27.269,55,18.5,55t-13.106.469A4.194,4.194,0,0,0,2.973,56.56a4.346,4.346,0,0,0-1.348,2.307,19.974,19.974,0,0,0-.439,2.767q-0.146,1.548-.166,2.56T1,67.008q0,1.8.02,2.814t0.166,2.56a22.306,22.306,0,0,0,.42,2.767,4.318,4.318,0,0,0,1.357,2.307,4.236,4.236,0,0,0,2.432,1.088q4.336,0.469,13.106.469t13.106-.469a4.192,4.192,0,0,0,2.422-1.088,4.347,4.347,0,0,0,1.348-2.307,19.96,19.96,0,0,0,.439-2.767q0.147-1.548.166-2.56T36,67.008q0-1.8-.02-2.814T35.814,61.634Z"/>
  <path id="fa-facebook-square_xf082_1" data-name="fa-facebook-square [&amp;#xf082;] 1" class="cls-1" d="M7.561,97.976A6.318,6.318,0,0,0,2.925,99.9,6.322,6.322,0,0,0,1,104.539v21.88a6.323,6.323,0,0,0,1.925,4.638,6.321,6.321,0,0,0,4.636,1.925h12.12v-13.56H15.125v-5.288h4.557v-3.9a6.893,6.893,0,0,1,1.857-5.151,6.768,6.768,0,0,1,4.955-1.823,30.492,30.492,0,0,1,4.055.2v4.718l-2.779.023a2.657,2.657,0,0,0-2.085.638,2.921,2.921,0,0,0-.535,1.914v3.373h5.217l-0.683,5.288H25.149v13.56h4.283a6.573,6.573,0,0,0,6.561-6.563v-21.88a6.574,6.574,0,0,0-6.561-6.563H7.561Z"/>
</svg>
